EncodeSansCondensed-Light.ufo
<glyph name="exclam" format="2">
  <advance width="427.8787878787879"/>
  <unicode hex="0021"/>
  <outline>
    <contour>
      <point x="176.0" y="348.72727272727275" type="line"/>
      <point x="252.4848484848485" y="348.72727272727275" type="line"/>
      <point x="276.0" y="906.060606060606" type="line"/>
      <point x="276.0" y="1480.0" type="line"/>
      <point x="151.87878787878788" y="1480.0" type="line"/>
      <point x="151.87878787878788" y="906.060606060606" type="line"/>
    </contour>
    <contour>
      <point x="213.93939393939394" y="-11.515151515151516" type="curve" smooth="yes"/>
      <point x="266.3030303030303" y="-11.515151515151516"/>
      <point x="303.8181818181818" y="23.393939393939394"/>
      <point x="303.8181818181818" y="76.84848484848484" type="curve" smooth="yes"/>
      <point x="303.8181818181818" y="130.3030303030303"/>
      <point x="266.90909090909093" y="166.9090909090909"/>
      <point x="213.93939393939394" y="166.9090909090909" type="curve" smooth="yes"/>
      <point x="160.96969696969697" y="166.9090909090909"/>
      <point x="124.06060606060606" y="130.9090909090909"/>
      <point x="124.06060606060606" y="76.84848484848484" type="curve" smooth="yes"/>
      <point x="124.06060606060606" y="22.78787878787879"/>
      <point x="161.57575757575756" y="-11.515151515151516"/>
    </contour>
  </outline>
</glyph>
<glyph name="dollar" format="2">
  <advance width="893.8787878787879"/>
  <unicode hex="0024"/>
  <outline>
    <contour>
      <point x="374.90909090909093" y="-18.303030303030305" type="curve" smooth="yes"/>
      <point x="668.3636363636364" y="-18.303030303030305"/>
      <point x="833.1515151515151" y="128.66666666666666"/>
      <point x="833.1515151515151" y="388.1212121212121" type="curve" smooth="yes"/>
      <point x="833.1515151515151" y="599.5757575757576"/>
      <point x="716.6060606060606" y="720.7878787878788"/>
      <point x="502.0" y="794.4848484848485" type="curve" smooth="yes"/>
      <point x="439.6969696969697" y="815.8181818181819" type="line" smooth="yes"/>
      <point x="253.03030303030303" y="880.969696969697"/>
      <point x="181.5151515151515" y="956.4848484848485"/>
      <point x="181.5151515151515" y="1113.3939393939395" type="curve" smooth="yes"/>
      <point x="181.5151515151515" y="1290.7878787878788"/>
      <point x="287.8181818181818" y="1392.6060606060605"/>
      <point x="522.4848484848485" y="1392.6060606060605" type="curve" smooth="yes"/>
      <point x="606.1818181818181" y="1392.6060606060605"/>
      <point x="689.8181818181819" y="1382.3030303030303"/>
      <point x="774.9090909090909" y="1355.5151515151515" type="curve"/>
      <point x="774.9090909090909" y="1462.6060606060605" type="line"/>
      <point x="704.4848484848485" y="1486.0"/>
      <point x="602.969696969697" y="1498.3030303030303"/>
      <point x="520.1212121212121" y="1498.3030303030303" type="curve" smooth="yes"/>
      <point x="218.0" y="1498.3030303030303"/>
      <point x="60.72727272727273" y="1350.2424242424242"/>
      <point x="60.72727272727273" y="1105.4545454545455" type="curve" smooth="yes"/>
      <point x="60.72727272727273" y="898.6060606060606"/>
      <point x="176.1818181818182" y="779.5757575757576"/>
      <point x="379.75757575757575" y="708.7878787878788" type="curve" smooth="yes"/>
      <point x="442.06060606060606" y="687.4545454545455" type="line" smooth="yes"/>
      <point x="636.5454545454545" y="619.6969696969697"/>
      <point x="712.3636363636364" y="543.5757575757576"/>
      <point x="712.3636363636364" y="379.27272727272725" type="curve" smooth="yes"/>
      <point x="712.3636363636364" y="186.0"/>
      <point x="598.969696969697" y="87.3939393939394"/>
      <point x="378.1818181818182" y="87.3939393939394" type="curve" smooth="yes"/>
      <point x="284.24242424242425" y="87.3939393939394"/>
      <point x="184.4848484848485" y="104.60606060606061"/>
      <point x="79.57575757575758" y="140.0" type="curve"/>
      <point x="79.57575757575758" y="32.90909090909091" type="line"/>
      <point x="175.6969696969697" y="-1.696969696969697"/>
      <point x="286.969696969697" y="-18.303030303030305"/>
    </contour>
    <contour>
      <point x="393.5151515151515" y="-240.0" type="line"/>
      <point x="502.3636363636364" y="-240.0" type="line"/>
      <point x="502.3636363636364" y="32.121212121212125" type="line"/>
      <point x="393.5151515151515" y="15.151515151515152" type="line"/>
    </contour>
    <contour>
      <point x="393.5151515151515" y="1470.909090909091" type="line"/>
      <point x="502.3636363636364" y="1470.909090909091" type="line"/>
      <point x="502.3636363636364" y="1720.0" type="line"/>
      <point x="393.5151515151515" y="1720.0" type="line"/>
    </contour>
  </outline>
</glyph>
<glyph name="percent" format="2">
  <advance width="1621.5757575757575"/>
  <unicode hex="0025"/>
  <note>
450
</note>
  <outline>
    <contour>
      <point x="490.1818181818182" y="0.0" type="line"/>
      <point x="593.939393939394" y="0.0" type="line"/>
      <point x="1131.3939393939395" y="1480.0" type="line"/>
      <point x="1027.6363636363637" y="1480.0" type="line"/>
    </contour>
    <contour>
      <point x="387.2121212121212" y="576.1818181818181" type="curve" smooth="yes"/>
      <point x="564.4242424242424" y="576.1818181818181"/>
      <point x="685.3939393939394" y="697.3333333333334"/>
      <point x="685.3939393939394" y="1037.3939393939395" type="curve" smooth="yes"/>
      <point x="685.3939393939394" y="1377.4545454545455"/>
      <point x="566.1212121212121" y="1498.3030303030303"/>
      <point x="387.2121212121212" y="1498.3030303030303" type="curve" smooth="yes"/>
      <point x="208.3030303030303" y="1498.3030303030303"/>
      <point x="89.03030303030303" y="1377.4545454545455"/>
      <point x="89.03030303030303" y="1037.3939393939395" type="curve" smooth="yes"/>
      <point x="89.03030303030303" y="697.3333333333334"/>
      <point x="210.0" y="576.1818181818181"/>
    </contour>
    <contour>
      <point x="387.2121212121212" y="665.7575757575758" type="curve" smooth="yes"/>
      <point x="270.42424242424244" y="665.7575757575758"/>
      <point x="191.6969696969697" y="750.7878787878788"/>
      <point x="191.6969696969697" y="1039.090909090909" type="curve" smooth="yes"/>
      <point x="191.6969696969697" y="1324.0"/>
      <point x="270.42424242424244" y="1408.7272727272727"/>
      <point x="387.2121212121212" y="1408.7272727272727" type="curve" smooth="yes"/>
      <point x="504.0" y="1408.7272727272727"/>
      <point x="582.7272727272727" y="1324.0"/>
      <point x="582.7272727272727" y="1035.6969696969697" type="curve" smooth="yes"/>
      <point x="582.7272727272727" y="750.7878787878788"/>
      <point x="504.0" y="665.7575757575758"/>
    </contour>
    <contour>
      <point x="1234.3636363636363" y="-18.0" type="curve" smooth="yes"/>
      <point x="1413.2727272727273" y="-18.0"/>
      <point x="1532.5454545454545" y="103.15151515151516"/>
      <point x="1532.5454545454545" y="443.2121212121212" type="curve" smooth="yes"/>
      <point x="1532.5454545454545" y="783.2727272727273"/>
      <point x="1411.5757575757575" y="904.1212121212121"/>
      <point x="1234.3636363636363" y="904.1212121212121" type="curve" smooth="yes"/>
      <point x="1057.1515151515152" y="904.1212121212121"/>
      <point x="936.1818181818181" y="783.2727272727273"/>
      <point x="936.1818181818181" y="443.2121212121212" type="curve" smooth="yes"/>
      <point x="936.1818181818181" y="103.15151515151516"/>
      <point x="1055.4545454545455" y="-18.0"/>
    </contour>
    <contour>
      <point x="1234.3636363636363" y="71.57575757575758" type="curve" smooth="yes"/>
      <point x="1117.5757575757575" y="71.57575757575758"/>
      <point x="1038.8484848484848" y="156.6060606060606"/>
      <point x="1038.8484848484848" y="444.90909090909093" type="curve" smooth="yes"/>
      <point x="1038.8484848484848" y="729.8181818181819"/>
      <point x="1117.5757575757575" y="814.5454545454545"/>
      <point x="1234.3636363636363" y="814.5454545454545" type="curve" smooth="yes"/>
      <point x="1351.1515151515152" y="814.5454545454545"/>
      <point x="1429.878787878788" y="729.8181818181819"/>
      <point x="1429.878787878788" y="441.5151515151515" type="curve" smooth="yes"/>
      <point x="1429.878787878788" y="156.6060606060606"/>
      <point x="1351.1515151515152" y="71.57575757575758"/>
    </contour>
  </outline>
</glyph>
<glyph name="ampersand" format="2">
  <advance width="1286.4848484848485"/>
  <unicode hex="0026"/>
  <outline>
    <contour>
      <point x="1216.2424242424242" y="-20.0" type="line"/>
      <point x="1286.4848484848485" y="67.87878787878788" type="line"/>
      <point x="610.1818181818181" y="683.7575757575758" type="line" smooth="yes"/>
      <point x="433.0909090909091" y="849.6363636363636"/>
      <point x="384.72727272727275" y="949.030303030303"/>
      <point x="384.72727272727275" y="1088.7878787878788" type="curve" smooth="yes"/>
      <point x="384.72727272727275" y="1289.090909090909"/>
      <point x="493.1515151515151" y="1392.6060606060605"/>
      <point x="722.7878787878788" y="1392.6060606060605" type="curve" smooth="yes"/>
      <point x="780.3030303030303" y="1392.6060606060605"/>
      <point x="838.8484848484849" y="1387.6969696969697"/>
      <point x="911.030303030303" y="1368.909090909091" type="curve"/>
      <point x="911.030303030303" y="1476.0" type="line"/>
      <point x="850.6060606060606" y="1490.0"/>
      <point x="785.8787878787879" y="1498.3030303030303"/>
      <point x="720.4242424242424" y="1498.3030303030303" type="curve" smooth="yes"/>
      <point x="417.8181818181818" y="1498.3030303030303"/>
      <point x="263.93939393939394" y="1351.939393939394"/>
      <point x="263.93939393939394" y="1086.7878787878788" type="curve" smooth="yes"/>
      <point x="263.93939393939394" y="915.5151515151515"/>
      <point x="329.6363636363636" y="790.3030303030303"/>
      <point x="539.939393939394" y="595.8787878787879" type="curve" smooth="yes"/>
    </contour>
    <contour>
      <point x="585.7575757575758" y="-18.0" type="curve" smooth="yes"/>
      <point x="884.2424242424242" y="-18.0"/>
      <point x="1076.060606060606" y="157.6969696969697"/>
      <point x="1076.060606060606" y="513.2727272727273" type="curve" smooth="yes"/>
      <point x="1076.060606060606" y="595.4545454545455"/>
      <point x="1066.060606060606" y="693.6363636363636"/>
      <point x="1042.969696969697" y="782.1212121212121" type="curve"/>
      <point x="936.0" y="782.1212121212121" type="line"/>
      <point x="960.7878787878788" y="693.6363636363636"/>
      <point x="972.4848484848485" y="595.1515151515151"/>
      <point x="972.4848484848485" y="510.969696969697" type="curve" smooth="yes"/>
      <point x="972.4848484848485" y="202.78787878787878"/>
      <point x="823.2121212121212" y="81.63636363636364"/>
      <point x="594.4242424242424" y="81.63636363636364" type="curve" smooth="yes"/>
      <point x="375.57575757575756" y="81.63636363636364"/>
      <point x="248.06060606060606" y="210.42424242424244"/>
      <point x="248.06060606060606" y="416.6666666666667" type="curve" smooth="yes"/>
      <point x="248.06060606060606" y="562.5454545454545"/>
      <point x="311.6969696969697" y="672.5454545454545"/>
      <point x="432.06060606060606" y="742.3030303030303" type="curve"/>
      <point x="372.90909090909093" y="813.1515151515151" type="line"/>
      <point x="219.03030303030303" y="733.2121212121212"/>
      <point x="127.87878787878788" y="590.1212121212121"/>
      <point x="127.87878787878788" y="404.3030303030303" type="curve" smooth="yes"/>
      <point x="127.87878787878788" y="148.0"/>
      <point x="300.90909090909093" y="-18.0"/>
    </contour>
  </outline>
</glyph>
<glyph name="quotesingle" format="2">
  <advance width="359.75757575757575"/>
  <unicode hex="0027"/>
  <outline>
    <contour>
      <point x="144.72727272727272" y="934.1818181818181" type="line"/>
      <point x="215.03030303030303" y="934.1818181818181" type="line"/>
      <point x="243.21212121212122" y="1616.0" type="line"/>
      <point x="116.54545454545455" y="1616.0" type="line"/>
    </contour>
  </outline>
</glyph>
<glyph name="parenleft" format="2">
  <advance width="565.3939393939394"/>
  <unicode hex="0028"/>
  <outline>
    <contour>
      <point x="406.4848484848485" y="-440.0" type="curve"/>
      <point x="524.060606060606" y="-440.0" type="line"/>
      <point x="325.8181818181818" y="-132.72727272727272"/>
      <point x="233.33333333333334" y="214.96969696969697"/>
      <point x="233.33333333333334" y="588.0" type="curve" smooth="yes"/>
      <point x="233.33333333333334" y="961.030303030303"/>
      <point x="325.8181818181818" y="1308.7272727272727"/>
      <point x="524.060606060606" y="1616.0" type="curve"/>
      <point x="406.4848484848485" y="1616.0" type="line"/>
      <point x="201.8181818181818" y="1313.6363636363637"/>
      <point x="111.33333333333333" y="967.6363636363636"/>
      <point x="111.33333333333333" y="588.0" type="curve" smooth="yes"/>
      <point x="111.33333333333333" y="208.36363636363637"/>
      <point x="201.8181818181818" y="-137.63636363636363"/>
    </contour>
  </outline>
</glyph>
<glyph name="parenright" format="2">
  <advance width="565.3939393939394"/>
  <unicode hex="0029"/>
  <outline>
    <contour>
      <point x="41.33333333333333" y="-440.0" type="curve"/>
      <point x="158.9090909090909" y="-440.0" type="line"/>
      <point x="363.57575757575756" y="-137.63636363636363"/>
      <point x="454.06060606060606" y="208.36363636363637"/>
      <point x="454.06060606060606" y="588.0" type="curve" smooth="yes"/>
      <point x="454.06060606060606" y="967.6363636363636"/>
      <point x="363.57575757575756" y="1313.6363636363637"/>
      <point x="158.9090909090909" y="1616.0" type="curve"/>
      <point x="41.33333333333333" y="1616.0" type="line"/>
      <point x="239.57575757575756" y="1308.7272727272727"/>
      <point x="332.06060606060606" y="961.030303030303"/>
      <point x="332.06060606060606" y="588.0" type="curve" smooth="yes"/>
      <point x="332.06060606060606" y="214.96969696969697"/>
      <point x="239.57575757575756" y="-132.72727272727272"/>
    </contour>
  </outline>
</glyph>
<glyph name="asterisk" format="2">
  <advance width="855.8787878787879"/>
  <unicode hex="002A"/>
  <outline>
    <contour>
      <point x="471.2121212121212" y="1198.5454545454545" type="line"/>
      <point x="669.5151515151515" y="1242.0" type="line"/>
      <point x="825.8787878787879" y="1292.7878787878788" type="line"/>
      <point x="796.4848484848485" y="1381.878787878788" type="line"/>
      <point x="641.8181818181819" y="1330.7878787878788" type="line"/>
      <point x="454.54545454545456" y="1248.8484848484848" type="line"/>
      <point x="475.0909090909091" y="1451.6363636363637" type="line"/>
      <point x="475.0909090909091" y="1616.0" type="line"/>
      <point x="380.7878787878788" y="1616.0" type="line"/>
      <point x="380.7878787878788" y="1451.6363636363637" type="line"/>
      <point x="401.3333333333333" y="1248.8484848484848" type="line"/>
      <point x="214.06060606060606" y="1330.7878787878788" type="line"/>
      <point x="59.39393939393939" y="1381.878787878788" type="line"/>
      <point x="30.0" y="1292.7878787878788" type="line"/>
      <point x="186.36363636363637" y="1242.0" type="line"/>
      <point x="384.6666666666667" y="1198.5454545454545" type="line"/>
      <point x="249.63636363636363" y="1046.4848484848485" type="line"/>
      <point x="152.06060606060606" y="913.5151515151515" type="line"/>
      <point x="228.6060606060606" y="857.6363636363636" type="line"/>
      <point x="326.1818181818182" y="990.6060606060606" type="line"/>
      <point x="427.93939393939394" y="1166.7272727272727" type="line"/>
      <point x="529.6969696969697" y="990.6060606060606" type="line"/>
      <point x="627.2727272727273" y="857.6363636363636" type="line"/>
      <point x="703.8181818181819" y="913.5151515151515" type="line"/>
      <point x="606.2424242424242" y="1046.4848484848485" type="line"/>
    </contour>
  </outline>
</glyph>
<glyph name="plus" format="2">
  <advance width="1019.030303030303"/>
  <unicode hex="002B"/>
  <outline>
    <contour>
      <point x="457.030303030303" y="368.90909090909093" type="line"/>
      <point x="562.0" y="368.90909090909093" type="line"/>
      <point x="562.0" y="710.1212121212121" type="line"/>
      <point x="885.030303030303" y="710.1212121212121" type="line"/>
      <point x="885.030303030303" y="809.8787878787879" type="line"/>
      <point x="562.0" y="809.8787878787879" type="line"/>
      <point x="562.0" y="1151.090909090909" type="line"/>
      <point x="457.030303030303" y="1151.090909090909" type="line"/>
      <point x="457.030303030303" y="809.8787878787879" type="line"/>
      <point x="134.0" y="809.8787878787879" type="line"/>
      <point x="134.0" y="710.1212121212121" type="line"/>
      <point x="457.030303030303" y="710.1212121212121" type="line"/>
    </contour>
  </outline>
</glyph>
<glyph name="comma" format="2">
  <advance width="387.8787878787879"/>
  <unicode hex="002C"/>
  <outline>
    <contour>
      <point x="127.87878787878788" y="-309.09090909090907" type="curve"/>
      <point x="198.84848484848484" y="-309.09090909090907" type="line"/>
      <point x="247.45454545454544" y="-207.8181818181818"/>
      <point x="283.8181818181818" y="-81.6969696969697"/>
      <point x="283.8181818181818" y="49.878787878787875" type="curve" smooth="yes"/>
      <point x="283.8181818181818" y="132.3030303030303"/>
      <point x="248.42424242424244" y="168.72727272727272"/>
      <point x="191.33333333333334" y="168.72727272727272" type="curve" smooth="yes"/>
      <point x="139.27272727272728" y="168.72727272727272"/>
      <point x="104.06060606060606" y="133.63636363636363"/>
      <point x="104.06060606060606" y="79.45454545454545" type="curve" smooth="yes"/>
      <point x="104.06060606060606" y="24.484848484848484"/>
      <point x="142.1818181818182" y="-11.515151515151516"/>
      <point x="193.93939393939394" y="-11.515151515151516" type="curve" smooth="yes"/>
      <point x="211.3939393939394" y="-11.515151515151516" type="line"/>
      <point x="194.36363636363637" y="18.060606060606062" type="line"/>
      <point x="194.36363636363637" y="-88.78787878787878"/>
      <point x="169.33333333333334" y="-189.03030303030303"/>
    </contour>
  </outline>
</glyph>
<glyph name="period" format="2">
  <advance width="387.8787878787879"/>
  <unicode hex="002E"/>
  <outline>
    <contour>
      <point x="193.93939393939394" y="-11.515151515151516" type="curve" smooth="yes"/>
      <point x="246.3030303030303" y="-11.515151515151516"/>
      <point x="283.8181818181818" y="23.393939393939394"/>
      <point x="283.8181818181818" y="77.75757575757575" type="curve" smooth="yes"/>
      <point x="283.8181818181818" y="132.12121212121212"/>
      <point x="246.9090909090909" y="168.72727272727272"/>
      <point x="193.93939393939394" y="168.72727272727272" type="curve" smooth="yes"/>
      <point x="140.96969696969697" y="168.72727272727272"/>
      <point x="104.06060606060606" y="132.72727272727272"/>
      <point x="104.06060606060606" y="77.75757575757575" type="curve" smooth="yes"/>
      <point x="104.06060606060606" y="22.78787878787879"/>
      <point x="141.57575757575756" y="-11.515151515151516"/>
    </contour>
  </outline>
</glyph>
<glyph name="slash" format="2">
  <advance width="468.0"/>
  <unicode hex="002F"/>
  <outline>
    <contour>
      <point x="0.0" y="-240.0" type="line"/>
      <point x="115.45454545454545" y="-240.0" type="line"/>
      <point x="468.0" y="1616.0" type="line"/>
      <point x="352.54545454545456" y="1616.0" type="line"/>
    </contour>
  </outline>
</glyph>
<glyph name="zero" format="2">
  <advance width="1063.878787878788"/>
  <unicode hex="0030"/>
  <note>
600
</note>
  <outline>
    <contour>
      <point x="531.939393939394" y="-18.303030303030305" type="curve" smooth="yes"/>
      <point x="797.6969696969697" y="-18.303030303030305"/>
      <point x="962.5454545454545" y="179.45454545454547"/>
      <point x="962.5454545454545" y="740.0" type="curve" smooth="yes"/>
      <point x="962.5454545454545" y="1300.5454545454545"/>
      <point x="799.3939393939394" y="1498.3030303030303"/>
      <point x="531.939393939394" y="1498.3030303030303" type="curve" smooth="yes"/>
      <point x="264.4848484848485" y="1498.3030303030303"/>
      <point x="101.33333333333333" y="1300.5454545454545"/>
      <point x="101.33333333333333" y="740.0" type="curve" smooth="yes"/>
      <point x="101.33333333333333" y="179.45454545454547"/>
      <point x="266.1818181818182" y="-18.303030303030305"/>
    </contour>
    <contour>
      <point x="531.939393939394" y="86.78787878787878" type="curve" smooth="yes"/>
      <point x="341.8787878787879" y="86.78787878787878"/>
      <point x="220.9090909090909" y="236.3030303030303"/>
      <point x="220.9090909090909" y="743.3939393939394" type="curve" smooth="yes"/>
      <point x="220.9090909090909" y="1243.6969696969697"/>
      <point x="341.8787878787879" y="1393.2121212121212"/>
      <point x="531.939393939394" y="1393.2121212121212" type="curve" smooth="yes"/>
      <point x="722.0" y="1393.2121212121212"/>
      <point x="842.969696969697" y="1243.6969696969697"/>
      <point x="842.969696969697" y="736.6060606060606" type="curve" smooth="yes"/>
      <point x="842.969696969697" y="236.3030303030303"/>
      <point x="722.0" y="86.78787878787878"/>
    </contour>
  </outline>
</glyph>
<glyph name="one" format="2">
  <advance width="578.060606060606"/>
  <unicode hex="0031"/>
  <outline>
    <contour>
      <point x="298.4848484848485" y="0.0" type="line"/>
      <point x="415.57575757575756" y="0.0" type="line"/>
      <point x="415.57575757575756" y="1484.3030303030303" type="line"/>
      <point x="346.969696969697" y="1484.3030303030303" type="line"/>
      <point x="18.18181818181818" y="1238.7272727272727" type="line"/>
      <point x="18.18181818181818" y="1121.090909090909" type="line"/>
      <point x="346.969696969697" y="1366.6666666666667" type="line"/>
      <point x="298.4848484848485" y="1371.2727272727273" type="line"/>
    </contour>
  </outline>
</glyph>
<glyph name="two" format="2">
  <advance width="830.969696969697"/>
  <unicode hex="0032"/>
  <outline>
    <contour>
      <point x="48.96969696969697" y="0.0" type="line"/>
      <point x="774.3030303030303" y="0.0" type="line"/>
      <point x="774.3030303030303" y="106.12121212121212" type="line"/>
      <point x="161.03030303030303" y="106.12121212121212" type="line"/>
      <point x="178.12121212121212" y="71.51515151515152" type="line"/>
      <point x="521.939393939394" y="617.3333333333334" type="line" smooth="yes"/>
      <point x="661.030303030303" y="838.3636363636364"/>
      <point x="707.8181818181819" y="976.7878787878788"/>
      <point x="709.5151515151515" y="1124.3636363636363" type="curve" smooth="yes"/>
      <point x="712.9090909090909" y="1390.6666666666667"/>
      <point x="556.1212121212121" y="1498.3030303030303"/>
      <point x="308.3636363636364" y="1498.3030303030303" type="curve" smooth="yes"/>
      <point x="213.93939393939394" y="1498.3030303030303"/>
      <point x="102.78787878787878" y="1478.3030303030303"/>
      <point x="32.36363636363636" y="1444.909090909091" type="curve"/>
      <point x="32.36363636363636" y="1337.8181818181818" type="line"/>
      <point x="117.45454545454545" y="1374.909090909091"/>
      <point x="203.57575757575756" y="1392.6060606060605"/>
      <point x="298.969696969697" y="1392.6060606060605" type="curve" smooth="yes"/>
      <point x="486.90909090909093" y="1392.6060606060605"/>
      <point x="591.3333333333334" y="1321.3333333333333"/>
      <point x="591.3333333333334" y="1119.2121212121212" type="curve" smooth="yes"/>
      <point x="591.3333333333334" y="988.7878787878788"/>
      <point x="542.5454545454545" y="859.6363636363636"/>
      <point x="421.57575757575756" y="665.8181818181819" type="curve" smooth="yes"/>
      <point x="48.96969696969697" y="67.27272727272728" type="line"/>
    </contour>
  </outline>
</glyph>
<glyph name="three" format="2">
  <advance width="877.0909090909091"/>
  <unicode hex="0033"/>
  <outline>
    <contour>
      <point x="350.3030303030303" y="-18.303030303030305" type="curve" smooth="yes"/>
      <point x="633.2727272727273" y="-18.303030303030305"/>
      <point x="807.1515151515151" y="125.81818181818181"/>
      <point x="807.1515151515151" y="386.8484848484849" type="curve" smooth="yes"/>
      <point x="807.1515151515151" y="602.6060606060606"/>
      <point x="683.3939393939394" y="742.4848484848485"/>
      <point x="445.75757575757575" y="778.1818181818181" type="curve"/>
      <point x="444.06060606060606" y="757.6969696969697" type="line"/>
      <point x="648.7878787878788" y="800.4848484848485"/>
      <point x="761.7575757575758" y="943.7575757575758"/>
      <point x="761.7575757575758" y="1132.5454545454545" type="curve" smooth="yes"/>
      <point x="761.7575757575758" y="1368.1818181818182"/>
      <point x="619.0909090909091" y="1498.3030303030303"/>
      <point x="350.8484848484849" y="1498.3030303030303" type="curve" smooth="yes"/>
      <point x="251.8181818181818" y="1498.3030303030303"/>
      <point x="140.66666666666666" y="1478.3030303030303"/>
      <point x="69.63636363636364" y="1444.909090909091" type="curve"/>
      <point x="69.63636363636364" y="1341.1515151515152" type="line"/>
      <point x="155.03030303030303" y="1377.939393939394"/>
      <point x="242.96969696969697" y="1395.939393939394"/>
      <point x="344.06060606060606" y="1395.939393939394" type="curve" smooth="yes"/>
      <point x="544.969696969697" y="1395.939393939394"/>
      <point x="645.6969696969697" y="1307.8181818181818"/>
      <point x="645.6969696969697" y="1127.2727272727273" type="curve" smooth="yes"/>
      <point x="645.6969696969697" y="935.4545454545455"/>
      <point x="513.030303030303" y="811.8787878787879"/>
      <point x="256.6060606060606" y="811.8787878787879" type="curve" smooth="yes"/>
      <point x="201.3939393939394" y="811.8787878787879" type="line"/>
      <point x="201.3939393939394" y="708.3030303030303" type="line"/>
      <point x="317.5151515151515" y="708.3030303030303" type="line" smooth="yes"/>
      <point x="575.5757575757576" y="708.3030303030303"/>
      <point x="691.0909090909091" y="585.030303030303"/>
      <point x="691.0909090909091" y="389.3939393939394" type="curve" smooth="yes"/>
      <point x="691.0909090909091" y="184.96969696969697"/>
      <point x="560.6060606060606" y="84.06060606060606"/>
      <point x="347.09090909090907" y="84.06060606060606" type="curve" smooth="yes"/>
      <point x="251.6969696969697" y="84.06060606060606"/>
      <point x="143.75757575757575" y="101.45454545454545"/>
      <point x="45.45454545454545" y="137.63636363636363" type="curve"/>
      <point x="45.45454545454545" y="33.878787878787875" type="line"/>
      <point x="139.57575757575756" y="-0.9090909090909092"/>
      <point x="241.3939393939394" y="-18.303030303030305"/>
    </contour>
  </outline>
</glyph>
<glyph name="four" format="2">
  <advance width="1021.5757575757576"/>
  <unicode hex="0034"/>
  <outline>
    <contour>
      <point x="46.36363636363636" y="369.1515151515151" type="line"/>
      <point x="982.6060606060606" y="369.1515151515151" type="line"/>
      <point x="982.6060606060606" y="468.90909090909093" type="line"/>
      <point x="145.87878787878788" y="468.90909090909093" type="line"/>
      <point x="165.63636363636363" y="434.72727272727275" type="line"/>
      <point x="675.2727272727273" y="1480.0" type="line"/>
      <point x="556.4242424242424" y="1480.0" type="line"/>
      <point x="46.36363636363636" y="436.42424242424244" type="line"/>
    </contour>
    <contour>
      <point x="678.5454545454545" y="0.0" type="line"/>
      <point x="788.6666666666666" y="0.0" type="line"/>
      <point x="788.6666666666666" y="980.0" type="line"/>
      <point x="696.4848484848485" y="980.0" type="line"/>
      <point x="678.5454545454545" y="468.90909090909093" type="line"/>
    </contour>
  </outline>
</glyph>
<glyph name="five" format="2">
  <advance width="879.5151515151515"/>
  <unicode hex="0035"/>
  <outline>
    <contour>
      <point x="376.90909090909093" y="-18.303030303030305" type="curve" smooth="yes"/>
      <point x="669.1515151515151" y="-18.303030303030305"/>
      <point x="831.1515151515151" y="129.21212121212122"/>
      <point x="831.1515151515151" y="406.7878787878788" type="curve" smooth="yes"/>
      <point x="831.1515151515151" y="680.4242424242424"/>
      <point x="660.8484848484849" y="817.3333333333334"/>
      <point x="320.24242424242425" y="838.5454545454545" type="curve" smooth="yes"/>
      <point x="161.5151515151515" y="848.2424242424242" type="line"/>
      <point x="232.60606060606062" y="787.2121212121212" type="line"/>
      <point x="274.7878787878788" y="1428.2424242424242" type="line"/>
      <point x="221.27272727272728" y="1376.909090909091" type="line"/>
      <point x="770.6666666666666" y="1376.909090909091" type="line"/>
      <point x="770.6666666666666" y="1480.0" type="line"/>
      <point x="164.24242424242425" y="1480.0" type="line"/>
      <point x="118.24242424242425" y="746.7878787878788" type="line"/>
      <point x="276.969696969697" y="737.0909090909091" type="line" smooth="yes"/>
      <point x="588.3030303030303" y="718.4848484848485"/>
      <point x="715.0909090909091" y="618.969696969697"/>
      <point x="715.0909090909091" y="402.6666666666667" type="curve" smooth="yes"/>
      <point x="715.0909090909091" y="191.75757575757575"/>
      <point x="599.8787878787879" y="84.06060606060606"/>
      <point x="375.3939393939394" y="84.06060606060606" type="curve" smooth="yes"/>
      <point x="274.90909090909093" y="84.06060606060606"/>
      <point x="166.96969696969697" y="103.45454545454545"/>
      <point x="70.36363636363636" y="138.24242424242425" type="curve"/>
      <point x="70.36363636363636" y="34.484848484848484" type="line"/>
      <point x="161.0909090909091" y="-0.6060606060606061"/>
      <point x="266.3030303030303" y="-18.303030303030305"/>
    </contour>
  </outline>
</glyph>
<glyph name="six" format="2">
  <advance width="983.8181818181819"/>
  <unicode hex="0036"/>
  <outline>
    <contour>
      <point x="552.4242424242424" y="-18.303030303030305" type="curve" smooth="yes"/>
      <point x="765.5757575757576" y="-18.303030303030305"/>
      <point x="935.939393939394" y="122.36363636363636"/>
      <point x="935.939393939394" y="416.4848484848485" type="curve" smooth="yes"/>
      <point x="935.939393939394" y="706.7272727272727"/>
      <point x="757.0909090909091" y="840.7272727272727"/>
      <point x="540.969696969697" y="840.7272727272727" type="curve" smooth="yes"/>
      <point x="396.90909090909093" y="840.7272727272727"/>
      <point x="265.3333333333333" y="781.1515151515151"/>
      <point x="199.93939393939394" y="681.5757575757576" type="curve"/>
      <point x="199.93939393939394" y="561.0909090909091" type="line"/>
      <point x="269.5151515151515" y="691.2121212121212"/>
      <point x="404.42424242424244" y="740.4848484848485"/>
      <point x="525.4545454545455" y="740.4848484848485" type="curve" smooth="yes"/>
      <point x="690.7272727272727" y="740.4848484848485"/>
      <point x="822.9090909090909" y="647.7575757575758"/>
      <point x="822.9090909090909" y="410.969696969697" type="curve" smooth="yes"/>
      <point x="822.9090909090909" y="175.27272727272728"/>
      <point x="699.2121212121212" y="82.54545454545455"/>
      <point x="554.7272727272727" y="82.54545454545455" type="curve" smooth="yes"/>
      <point x="372.6666666666667" y="82.54545454545455"/>
      <point x="233.6969696969697" y="204.24242424242425"/>
      <point x="233.6969696969697" y="682.3030303030303" type="curve" smooth="yes"/>
      <point x="233.6969696969697" y="717.6363636363636" type="line" smooth="yes"/>
      <point x="233.6969696969697" y="1221.3333333333333"/>
      <point x="383.030303030303" y="1394.7272727272727"/>
      <point x="653.4545454545455" y="1394.7272727272727" type="curve" smooth="yes"/>
      <point x="734.7878787878788" y="1394.7272727272727"/>
      <point x="808.4848484848485" y="1381.3333333333333"/>
      <point x="873.8181818181819" y="1353.939393939394" type="curve"/>
      <point x="873.8181818181819" y="1458.909090909091" type="line"/>
      <point x="810.6060606060606" y="1486.6060606060605"/>
      <point x="730.969696969697" y="1498.3030303030303"/>
      <point x="655.030303030303" y="1498.3030303030303" type="curve" smooth="yes"/>
      <point x="312.6666666666667" y="1498.3030303030303"/>
      <point x="116.12121212121212" y="1278.060606060606"/>
      <point x="116.12121212121212" y="691.8181818181819" type="curve" smooth="yes"/>
      <point x="116.12121212121212" y="147.45454545454547"/>
      <point x="304.4848484848485" y="-18.303030303030305"/>
    </contour>
  </outline>
</glyph>
<glyph name="seven" format="2">
  <advance width="806.4242424242424"/>
  <unicode hex="0037"/>
  <outline>
    <contour>
      <point x="146.78787878787878" y="0.0" type="line"/>
      <point x="267.6969696969697" y="0.0" type="line"/>
      <point x="750.4242424242424" y="1412.7272727272727" type="line"/>
      <point x="750.4242424242424" y="1480.0" type="line"/>
      <point x="8.303030303030303" y="1480.0" type="line"/>
      <point x="8.303030303030303" y="1373.878787878788" type="line"/>
      <point x="665.7575757575758" y="1373.878787878788" type="line"/>
      <point x="635.7575757575758" y="1414.4242424242425" type="line"/>
    </contour>
  </outline>
</glyph>
<glyph name="eight" format="2">
  <advance width="1063.878787878788"/>
  <unicode hex="0038"/>
  <outline>
    <contour>
      <point x="542.4242424242424" y="-18.303030303030305" type="curve" smooth="yes"/>
      <point x="812.060606060606" y="-18.303030303030305"/>
      <point x="979.030303030303" y="135.63636363636363"/>
      <point x="979.030303030303" y="366.1818181818182" type="curve" smooth="yes"/>
      <point x="979.030303030303" y="581.0909090909091"/>
      <point x="872.2424242424242" y="695.8181818181819"/>
      <point x="569.5757575757576" y="794.060606060606" type="curve" smooth="yes"/>
      <point x="314.72727272727275" y="876.060606060606"/>
      <point x="243.87878787878788" y="963.5757575757576"/>
      <point x="243.87878787878788" y="1127.6363636363637" type="curve" smooth="yes"/>
      <point x="243.87878787878788" y="1295.2727272727273"/>
      <point x="346.6060606060606" y="1400.1818181818182"/>
      <point x="531.5757575757576" y="1400.1818181818182" type="curve" smooth="yes"/>
      <point x="717.3333333333334" y="1400.1818181818182"/>
      <point x="828.5454545454545" y="1301.5757575757575"/>
      <point x="828.5454545454545" y="1121.939393939394" type="curve" smooth="yes"/>
      <point x="828.5454545454545" y="955.8787878787879"/>
      <point x="752.6060606060606" y="860.7272727272727"/>
      <point x="579.3333333333334" y="777.7575757575758" type="curve"/>
      <point x="673.5757575757576" y="737.3333333333334" type="line"/>
      <point x="844.3030303030303" y="818.060606060606"/>
      <point x="936.5454545454545" y="953.4545454545455"/>
      <point x="936.5454545454545" y="1126.4848484848485" type="curve" smooth="yes"/>
      <point x="936.5454545454545" y="1354.0"/>
      <point x="779.5757575757576" y="1498.3030303030303"/>
      <point x="530.969696969697" y="1498.3030303030303" type="curve" smooth="yes"/>
      <point x="282.0" y="1498.3030303030303"/>
      <point x="126.72727272727272" y="1350.969696969697"/>
      <point x="126.72727272727272" y="1124.121212121212" type="curve" smooth="yes"/>
      <point x="126.72727272727272" y="912.1212121212121"/>
      <point x="238.42424242424244" y="786.6666666666666"/>
      <point x="532.3030303030303" y="693.3333333333334" type="curve" smooth="yes"/>
      <point x="785.030303030303" y="613.1515151515151"/>
      <point x="862.7878787878788" y="534.9090909090909"/>
      <point x="862.7878787878788" y="358.3636363636364" type="curve" smooth="yes"/>
      <point x="862.7878787878788" y="182.72727272727272"/>
      <point x="743.6969696969697" y="79.81818181818181"/>
      <point x="542.4242424242424" y="79.81818181818181" type="curve" smooth="yes"/>
      <point x="312.6060606060606" y="79.81818181818181"/>
      <point x="200.78787878787878" y="186.72727272727272"/>
      <point x="200.78787878787878" y="372.969696969697" type="curve" smooth="yes"/>
      <point x="200.78787878787878" y="546.3030303030303"/>
      <point x="303.6969696969697" y="675.939393939394"/>
      <point x="471.6969696969697" y="730.1212121212121" type="curve"/>
      <point x="379.030303030303" y="773.939393939394" type="line"/>
      <point x="197.21212121212122" y="707.8181818181819"/>
      <point x="84.54545454545455" y="554.060606060606"/>
      <point x="84.54545454545455" y="367.8181818181818" type="curve" smooth="yes"/>
      <point x="84.54545454545455" y="127.63636363636364"/>
      <point x="248.78787878787878" y="-18.303030303030305"/>
    </contour>
  </outline>
</glyph>
<glyph name="nine" format="2">
  <advance width="983.8181818181819"/>
  <unicode hex="0039"/>
  <outline>
    <contour>
      <point x="431.3939393939394" y="1498.3030303030303" type="curve" smooth="yes"/>
      <point x="218.24242424242425" y="1498.3030303030303"/>
      <point x="47.878787878787875" y="1357.6363636363637"/>
      <point x="47.878787878787875" y="1063.5151515151515" type="curve" smooth="yes"/>
      <point x="47.878787878787875" y="773.2727272727273"/>
      <point x="226.72727272727272" y="639.2727272727273"/>
      <point x="442.8484848484849" y="639.2727272727273" type="curve" smooth="yes"/>
      <point x="586.9090909090909" y="639.2727272727273"/>
      <point x="718.4848484848485" y="698.8484848484849"/>
      <point x="783.8787878787879" y="798.4242424242424" type="curve"/>
      <point x="783.8787878787879" y="918.9090909090909" type="line"/>
      <point x="714.3030303030303" y="788.7878787878788"/>
      <point x="579.3939393939394" y="739.5151515151515"/>
      <point x="458.3636363636364" y="739.5151515151515" type="curve" smooth="yes"/>
      <point x="293.0909090909091" y="739.5151515151515"/>
      <point x="160.9090909090909" y="832.2424242424242"/>
      <point x="160.9090909090909" y="1069.030303030303" type="curve" smooth="yes"/>
      <point x="160.9090909090909" y="1304.7272727272727"/>
      <point x="284.6060606060606" y="1397.4545454545455"/>
      <point x="429.09090909090907" y="1397.4545454545455" type="curve" smooth="yes"/>
      <point x="611.1515151515151" y="1397.4545454545455"/>
      <point x="750.1212121212121" y="1275.7575757575758"/>
      <point x="750.1212121212121" y="797.6969696969697" type="curve" smooth="yes"/>
      <point x="750.1212121212121" y="762.3636363636364" type="line" smooth="yes"/>
      <point x="750.1212121212121" y="258.6666666666667"/>
      <point x="600.7878787878788" y="85.27272727272728"/>
      <point x="330.3636363636364" y="85.27272727272728" type="curve" smooth="yes"/>
      <point x="249.03030303030303" y="85.27272727272728"/>
      <point x="175.33333333333334" y="98.66666666666666"/>
      <point x="110.0" y="126.06060606060606" type="curve"/>
      <point x="110.0" y="21.09090909090909" type="line"/>
      <point x="173.21212121212122" y="-6.606060606060606"/>
      <point x="252.84848484848484" y="-18.303030303030305"/>
      <point x="328.7878787878788" y="-18.303030303030305" type="curve" smooth="yes"/>
      <point x="671.1515151515151" y="-18.303030303030305"/>
      <point x="867.6969696969697" y="201.93939393939394"/>
      <point x="867.6969696969697" y="788.1818181818181" type="curve" smooth="yes"/>
      <point x="867.6969696969697" y="1332.5454545454545"/>
      <point x="679.3333333333334" y="1498.3030303030303"/>
    </contour>
  </outline>
</glyph>
<glyph name="colon" format="2">
  <advance width="387.8787878787879"/>
  <unicode hex="003A"/>
  <outline>
    <contour>
      <point x="193.93939393939394" y="-11.515151515151516" type="curve" smooth="yes"/>
      <point x="246.3030303030303" y="-11.515151515151516"/>
      <point x="283.8181818181818" y="23.393939393939394"/>
      <point x="283.8181818181818" y="77.75757575757575" type="curve" smooth="yes"/>
      <point x="283.8181818181818" y="132.12121212121212"/>
      <point x="246.9090909090909" y="168.72727272727272"/>
      <point x="193.93939393939394" y="168.72727272727272" type="curve" smooth="yes"/>
      <point x="140.96969696969697" y="168.72727272727272"/>
      <point x="104.06060606060606" y="132.72727272727272"/>
      <point x="104.06060606060606" y="77.75757575757575" type="curve" smooth="yes"/>
      <point x="104.06060606060606" y="22.78787878787879"/>
      <point x="141.57575757575756" y="-11.515151515151516"/>
    </contour>
    <contour>
      <point x="193.93939393939394" y="914.3030303030303" type="curve" smooth="yes"/>
      <point x="246.3030303030303" y="914.3030303030303"/>
      <point x="283.8181818181818" y="949.2121212121212"/>
      <point x="283.8181818181818" y="1003.5757575757576" type="curve" smooth="yes"/>
      <point x="283.8181818181818" y="1057.939393939394"/>
      <point x="246.9090909090909" y="1094.5454545454545"/>
      <point x="193.93939393939394" y="1094.5454545454545" type="curve" smooth="yes"/>
      <point x="140.96969696969697" y="1094.5454545454545"/>
      <point x="104.06060606060606" y="1058.5454545454545"/>
      <point x="104.06060606060606" y="1003.5757575757576" type="curve" smooth="yes"/>
      <point x="104.06060606060606" y="948.6060606060606"/>
      <point x="141.57575757575756" y="914.3030303030303"/>
    </contour>
  </outline>
</glyph>
<glyph name="semicolon" format="2">
  <advance width="387.8787878787879"/>
  <unicode hex="003B"/>
  <outline>
    <contour>
      <point x="127.87878787878788" y="-309.09090909090907" type="curve"/>
      <point x="198.84848484848484" y="-309.09090909090907" type="line"/>
      <point x="247.45454545454544" y="-207.8181818181818"/>
      <point x="283.8181818181818" y="-81.6969696969697"/>
      <point x="283.8181818181818" y="49.878787878787875" type="curve" smooth="yes"/>
      <point x="283.8181818181818" y="132.3030303030303"/>
      <point x="248.42424242424244" y="168.72727272727272"/>
      <point x="191.33333333333334" y="168.72727272727272" type="curve" smooth="yes"/>
      <point x="139.27272727272728" y="168.72727272727272"/>
      <point x="104.06060606060606" y="133.63636363636363"/>
      <point x="104.06060606060606" y="79.45454545454545" type="curve" smooth="yes"/>
      <point x="104.06060606060606" y="24.484848484848484"/>
      <point x="142.1818181818182" y="-11.515151515151516"/>
      <point x="193.93939393939394" y="-11.515151515151516" type="curve" smooth="yes"/>
      <point x="211.3939393939394" y="-11.515151515151516" type="line"/>
      <point x="194.36363636363637" y="18.060606060606062" type="line"/>
      <point x="194.36363636363637" y="-88.78787878787878"/>
      <point x="169.33333333333334" y="-189.03030303030303"/>
    </contour>
    <contour>
      <point x="193.93939393939394" y="914.3030303030303" type="curve" smooth="yes"/>
      <point x="246.3030303030303" y="914.3030303030303"/>
      <point x="283.8181818181818" y="949.2121212121212"/>
      <point x="283.8181818181818" y="1003.5757575757576" type="curve" smooth="yes"/>
      <point x="283.8181818181818" y="1057.939393939394"/>
      <point x="246.9090909090909" y="1094.5454545454545"/>
      <point x="193.93939393939394" y="1094.5454545454545" type="curve" smooth="yes"/>
      <point x="140.96969696969697" y="1094.5454545454545"/>
      <point x="104.06060606060606" y="1058.5454545454545"/>
      <point x="104.06060606060606" y="1003.5757575757576" type="curve" smooth="yes"/>
      <point x="104.06060606060606" y="948.6060606060606"/>
      <point x="141.57575757575756" y="914.3030303030303"/>
    </contour>
  </outline>
</glyph>
<glyph name="less" format="2">
  <advance width="1019.030303030303"/>
  <unicode hex="003C"/>
  <outline>
    <contour>
      <point x="885.030303030303" y="379.6363636363636" type="line"/>
      <point x="885.030303030303" y="486.1818181818182" type="line"/>
      <point x="221.03030303030303" y="772.0" type="line"/>
      <point x="221.03030303030303" y="748.0" type="line"/>
      <point x="885.030303030303" y="1033.8181818181818" type="line"/>
      <point x="885.030303030303" y="1140.3636363636363" type="line"/>
      <point x="134.0" y="811.4545454545455" type="line"/>
      <point x="134.0" y="708.5454545454545" type="line"/>
    </contour>
  </outline>
</glyph>
<glyph name="equal" format="2">
  <advance width="1019.030303030303"/>
  <unicode hex="003D"/>
  <outline>
    <contour>
      <point x="134.0" y="899.3939393939394" type="line"/>
      <point x="885.030303030303" y="899.3939393939394" type="line"/>
      <point x="885.030303030303" y="999.1515151515151" type="line"/>
      <point x="134.0" y="999.1515151515151" type="line"/>
    </contour>
    <contour>
      <point x="134.0" y="520.8484848484849" type="line"/>
      <point x="885.030303030303" y="520.8484848484849" type="line"/>
      <point x="885.030303030303" y="620.6060606060606" type="line"/>
      <point x="134.0" y="620.6060606060606" type="line"/>
    </contour>
  </outline>
</glyph>
<glyph name="greater" format="2">
  <advance width="1019.030303030303"/>
  <unicode hex="003E"/>
  <outline>
    <contour>
      <point x="134.0" y="379.6363636363636" type="line"/>
      <point x="885.030303030303" y="708.5454545454545" type="line"/>
      <point x="885.030303030303" y="811.4545454545455" type="line"/>
      <point x="134.0" y="1140.3636363636363" type="line"/>
      <point x="134.0" y="1033.8181818181818" type="line"/>
      <point x="798.0" y="748.0" type="line"/>
      <point x="798.0" y="772.0" type="line"/>
      <point x="134.0" y="486.1818181818182" type="line"/>
    </contour>
  </outline>
</glyph>
<glyph name="question" format="2">
  <advance width="783.030303030303"/>
  <unicode hex="003F"/>
  <outline>
    <contour>
      <point x="301.1515151515151" y="335.1515151515151" type="line"/>
      <point x="377.6363636363636" y="335.1515151515151" type="line"/>
      <point x="390.6666666666667" y="693.6969696969697" type="line"/>
      <point x="637.6969696969697" y="804.6060606060606"/>
      <point x="727.5757575757576" y="931.030303030303"/>
      <point x="727.5757575757576" y="1132.5454545454545" type="curve" smooth="yes"/>
      <point x="727.5757575757576" y="1368.1818181818182"/>
      <point x="584.9090909090909" y="1498.3030303030303"/>
      <point x="316.6666666666667" y="1498.3030303030303" type="curve" smooth="yes"/>
      <point x="217.63636363636363" y="1498.3030303030303"/>
      <point x="106.48484848484848" y="1478.3030303030303"/>
      <point x="35.45454545454545" y="1444.909090909091" type="curve"/>
      <point x="35.45454545454545" y="1341.1515151515152" type="line"/>
      <point x="120.84848484848484" y="1377.939393939394"/>
      <point x="208.78787878787878" y="1395.939393939394"/>
      <point x="308.1818181818182" y="1395.939393939394" type="curve" smooth="yes"/>
      <point x="510.7878787878788" y="1395.939393939394"/>
      <point x="611.5151515151515" y="1307.8181818181818"/>
      <point x="611.5151515151515" y="1127.2727272727273" type="curve" smooth="yes"/>
      <point x="611.5151515151515" y="957.5151515151515"/>
      <point x="529.4545454545455" y="849.2121212121212"/>
      <point x="280.969696969697" y="756.0" type="curve"/>
    </contour>
    <contour>
      <point x="339.3939393939394" y="-11.515151515151516" type="curve" smooth="yes"/>
      <point x="393.45454545454544" y="-11.515151515151516"/>
      <point x="429.27272727272725" y="25.090909090909093"/>
      <point x="429.27272727272725" y="76.84848484848484" type="curve" smooth="yes"/>
      <point x="429.27272727272725" y="130.3030303030303"/>
      <point x="392.3636363636364" y="166.9090909090909"/>
      <point x="339.3939393939394" y="166.9090909090909" type="curve" smooth="yes"/>
      <point x="286.42424242424244" y="166.9090909090909"/>
      <point x="249.5151515151515" y="130.9090909090909"/>
      <point x="249.5151515151515" y="76.84848484848484" type="curve" smooth="yes"/>
      <point x="249.5151515151515" y="24.484848484848484"/>
      <point x="287.030303030303" y="-11.515151515151516"/>
    </contour>
  </outline>
</glyph>
<glyph name="at" format="2">
  <advance width="1612.3636363636363"/>
  <unicode hex="0040"/>
  <outline>
    <contour>
      <point x="847.3333333333334" y="-460.0" type="curve" smooth="yes"/>
      <point x="969.5757575757576" y="-460.0"/>
      <point x="1082.7272727272727" y="-436.90909090909093"/>
      <point x="1175.2121212121212" y="-404.3030303030303" type="curve"/>
      <point x="1175.2121212121212" y="-307.8181818181818" type="line"/>
      <point x="1065.4545454545455" y="-345.5151515151515"/>
      <point x="962.7878787878788" y="-365.2121212121212"/>
      <point x="847.3333333333334" y="-365.2121212121212" type="curve" smooth="yes"/>
      <point x="428.1212121212121" y="-365.2121212121212"/>
      <point x="198.1818181818182" y="-159.63636363636363"/>
      <point x="198.1818181818182" y="523.3939393939394" type="curve" smooth="yes"/>
      <point x="198.1818181818182" y="1197.939393939394"/>
      <point x="428.1212121212121" y="1403.2121212121212"/>
      <point x="811.939393939394" y="1403.2121212121212" type="curve" smooth="yes"/>
      <point x="1195.7575757575758" y="1403.2121212121212"/>
      <point x="1420.909090909091" y="1199.1515151515152"/>
      <point x="1421.2121212121212" y="557.939393939394" type="curve" smooth="yes"/>
      <point x="1421.5151515151515" y="188.0"/>
      <point x="1329.6969696969697" y="78.0"/>
      <point x="1241.5151515151515" y="78.0" type="curve" smooth="yes"/>
      <point x="1166.969696969697" y="78.0"/>
      <point x="1138.969696969697" y="128.06060606060606"/>
      <point x="1138.969696969697" y="226.9090909090909" type="curve" smooth="yes"/>
      <point x="1138.969696969697" y="741.2121212121212" type="line" smooth="yes"/>
      <point x="1138.969696969697" y="1006.5454545454545"/>
      <point x="1017.030303030303" y="1096.3030303030303"/>
      <point x="790.2424242424242" y="1096.3030303030303" type="curve" smooth="yes"/>
      <point x="708.0" y="1096.3030303030303"/>
      <point x="602.060606060606" y="1080.0"/>
      <point x="526.1212121212121" y="1051.3939393939395" type="curve"/>
      <point x="525.5151515151515" y="947.6363636363636" type="line"/>
      <point x="614.3030303030303" y="979.6363636363636"/>
      <point x="706.9090909090909" y="993.939393939394"/>
      <point x="777.030303030303" y="993.939393939394" type="curve" smooth="yes"/>
      <point x="938.7878787878788" y="993.939393939394"/>
      <point x="1024.6060606060605" y="938.6666666666666"/>
      <point x="1024.6060606060605" y="745.6363636363636" type="curve" smooth="yes"/>
      <point x="1024.6060606060605" y="232.0" type="line"/>
      <point x="954.7878787878788" y="117.27272727272728"/>
      <point x="859.2121212121212" y="82.42424242424242"/>
      <point x="777.5151515151515" y="82.42424242424242" type="curve" smooth="yes"/>
      <point x="653.1515151515151" y="82.42424242424242"/>
      <point x="581.8181818181819" y="146.36363636363637"/>
      <point x="581.8181818181819" y="286.1212121212121" type="curve" smooth="yes"/>
      <point x="581.8181818181819" y="414.6060606060606"/>
      <point x="653.7575757575758" y="484.8484848484849"/>
      <point x="812.3030303030303" y="502.42424242424244" type="curve" smooth="yes"/>
      <point x="1077.2727272727273" y="530.7878787878788" type="line"/>
      <point x="1060.909090909091" y="618.3030303030303" type="line"/>
      <point x="806.7272727272727" y="589.939393939394" type="line" smooth="yes"/>
      <point x="570.7878787878788" y="564.8484848484849"/>
      <point x="462.3636363636364" y="461.2121212121212"/>
      <point x="462.3636363636364" y="272.06060606060606" type="curve" smooth="yes"/>
      <point x="462.3636363636364" y="84.54545454545455"/>
      <point x="580.1818181818181" y="-16.90909090909091"/>
      <point x="750.9090909090909" y="-16.90909090909091" type="curve" smooth="yes"/>
      <point x="863.0909090909091" y="-16.90909090909091"/>
      <point x="962.7878787878788" y="27.575757575757574"/>
      <point x="1025.6363636363637" y="123.51515151515152" type="curve"/>
      <point x="1035.1515151515152" y="123.51515151515152" type="line"/>
      <point x="1057.3333333333333" y="37.878787878787875"/>
      <point x="1121.5151515151515" y="-16.90909090909091"/>
      <point x="1226.3030303030303" y="-16.90909090909091" type="curve" smooth="yes"/>
      <point x="1388.909090909091" y="-16.90909090909091"/>
      <point x="1521.030303030303" y="145.0909090909091"/>
      <point x="1521.030303030303" y="564.2424242424242" type="curve" smooth="yes"/>
      <point x="1521.030303030303" y="1236.4242424242425"/>
      <point x="1259.3939393939395" y="1498.0"/>
      <point x="811.939393939394" y="1498.0" type="curve" smooth="yes"/>
      <point x="362.7878787878788" y="1498.0"/>
      <point x="91.33333333333333" y="1236.4242424242425"/>
      <point x="91.33333333333333" y="520.0" type="curve" smooth="yes"/>
      <point x="91.33333333333333" y="-203.21212121212122"/>
      <point x="366.1818181818182" y="-460.0"/>
    </contour>
  </outline>
</glyph>
<glyph name="B" format="2">
  <advance width="1113.030303030303"/>
  <unicode hex="0042"/>
  <anchor x="571.8787878787879" y="0.0" name="bottom"/>
  <anchor x="571.8787878787879" y="1480.0" name="top"/>
  <outline>
    <contour>
      <point x="455.8787878787879" y="-11.515151515151516" type="curve" smooth="yes"/>
      <point x="873.030303030303" y="-11.515151515151516"/>
      <point x="1044.6060606060605" y="126.60606060606061"/>
      <point x="1044.6060606060605" y="394.24242424242425" type="curve" smooth="yes"/>
      <point x="1044.6060606060605" y="601.4545454545455"/>
      <point x="934.4848484848485" y="743.0909090909091"/>
      <point x="704.9090909090909" y="771.3939393939394" type="curve"/>
      <point x="704.9090909090909" y="757.6969696969697" type="line"/>
      <point x="926.969696969697" y="792.0"/>
      <point x="1002.6060606060606" y="945.4545454545455"/>
      <point x="1002.6060606060606" y="1109.1515151515152" type="curve" smooth="yes"/>
      <point x="1002.6060606060606" y="1374.0"/>
      <point x="846.7272727272727" y="1494.909090909091"/>
      <point x="487.2121212121212" y="1494.909090909091" type="curve" smooth="yes"/>
      <point x="355.8787878787879" y="1494.909090909091"/>
      <point x="246.06060606060606" y="1481.6969696969697"/>
      <point x="152.4848484848485" y="1463.5757575757575" type="curve"/>
      <point x="152.4848484848485" y="5.515151515151516" type="line"/>
      <point x="250.72727272727272" y="-6.0"/>
      <point x="354.8484848484849" y="-11.515151515151516"/>
    </contour>
    <contour>
      <point x="474.54545454545456" y="89.93939393939394" type="curve" smooth="yes"/>
      <point x="406.7878787878788" y="89.93939393939394"/>
      <point x="336.24242424242425" y="91.93939393939394"/>
      <point x="268.06060606060606" y="99.33333333333334" type="curve"/>
      <point x="268.06060606060606" y="1376.3636363636363" type="line"/>
      <point x="335.030303030303" y="1387.7575757575758"/>
      <point x="402.7878787878788" y="1393.4545454545455"/>
      <point x="493.8181818181818" y="1393.4545454545455" type="curve" smooth="yes"/>
      <point x="781.1515151515151" y="1393.4545454545455"/>
      <point x="887.4545454545455" y="1310.7272727272727"/>
      <point x="887.4545454545455" y="1104.909090909091" type="curve" smooth="yes"/>
      <point x="887.4545454545455" y="918.060606060606"/>
      <point x="798.4242424242424" y="811.5757575757576"/>
      <point x="503.8787878787879" y="811.5757575757576" type="curve" smooth="yes"/>
      <point x="249.63636363636363" y="811.5757575757576" type="line"/>
      <point x="249.63636363636363" y="708.3030303030303" type="line"/>
      <point x="541.7575757575758" y="708.3030303030303" type="line" smooth="yes"/>
      <point x="810.8484848484849" y="708.3030303030303"/>
      <point x="929.4545454545455" y="602.9090909090909"/>
      <point x="929.4545454545455" y="394.4848484848485" type="curve" smooth="yes"/>
      <point x="929.4545454545455" y="185.15151515151516"/>
      <point x="806.3636363636364" y="89.93939393939394"/>
    </contour>
  </outline>
</glyph>
<glyph name="F" format="2">
  <advance width="934.2424242424242"/>
  <unicode hex="0046"/>
  <outline>
    <contour>
      <point x="152.4848484848485" y="0.0" type="line"/>
      <point x="269.57575757575756" y="0.0" type="line"/>
      <point x="269.57575757575756" y="1372.7878787878788" type="line"/>
      <point x="917.4545454545455" y="1372.7878787878788" type="line"/>
      <point x="917.4545454545455" y="1480.0" type="line"/>
      <point x="152.4848484848485" y="1480.0" type="line"/>
    </contour>
    <contour>
      <point x="245.5151515151515" y="699.2121212121212" type="line"/>
      <point x="826.2424242424242" y="699.2121212121212" type="line"/>
      <point x="826.2424242424242" y="806.4242424242424" type="line"/>
      <point x="245.5151515151515" y="806.4242424242424" type="line"/>
    </contour>
  </outline>
</glyph>
<glyph name="H" format="2">
  <advance width="1242.121212121212"/>
  <unicode hex="0048"/>
  <anchor x="621.2121212121212" y="0.0" name="bottom"/>
  <anchor x="621.2121212121212" y="1149.090909090909" name="center"/>
  <anchor x="621.2121212121212" y="1520.0" name="top"/>
  <anchor x="34.78787878787879" y="1480.0" name="topleft"/>
  <outline>
    <contour>
      <point x="152.4848484848485" y="0.0" type="line"/>
      <point x="269.57575757575756" y="0.0" type="line"/>
      <point x="269.57575757575756" y="704.969696969697" type="line"/>
      <point x="972.5454545454545" y="704.969696969697" type="line"/>
      <point x="972.5454545454545" y="0.0" type="line"/>
      <point x="1089.6363636363637" y="0.0" type="line"/>
      <point x="1089.6363636363637" y="1480.0" type="line"/>
      <point x="972.5454545454545" y="1480.0" type="line"/>
      <point x="972.5454545454545" y="815.2121212121212" type="line"/>
      <point x="269.57575757575756" y="815.2121212121212" type="line"/>
      <point x="269.57575757575756" y="1480.0" type="line"/>
      <point x="152.4848484848485" y="1480.0" type="line"/>
    </contour>
  </outline>
</glyph>
<glyph name="I" format="2">
  <advance width="422.06060606060606"/>
  <unicode hex="0049"/>
  <anchor x="211.03030303030303" y="0.0" name="bottom"/>
  <anchor x="269.57575757575756" y="0.0" name="ogonek"/>
  <anchor x="211.03030303030303" y="1520.0" name="top"/>
  <outline>
    <contour>
      <point x="152.4848484848485" y="0.0" type="line"/>
      <point x="269.57575757575756" y="0.0" type="line"/>
      <point x="269.57575757575756" y="1480.0" type="line"/>
      <point x="152.4848484848485" y="1480.0" type="line"/>
    </contour>
  </outline>
</glyph>
<glyph name="J" format="2">
  <advance width="422.06060606060606"/>
  <unicode hex="004A"/>
  <anchor x="303.5151515151515" y="0.0" name="bottom"/>
  <anchor x="211.03030303030303" y="1520.0" name="top"/>
  <outline>
    <contour>
      <point x="68.54545454545455" y="-341.5151515151515" type="line"/>
      <point x="209.75757575757575" y="-135.3939393939394"/>
      <point x="262.7878787878788" y="29.575757575757578"/>
      <point x="269.57575757575756" y="266.0" type="curve"/>
      <point x="269.57575757575756" y="1480.0" type="line"/>
      <point x="152.4848484848485" y="1480.0" type="line"/>
      <point x="152.4848484848485" y="289.030303030303" type="line" smooth="yes"/>
      <point x="152.4848484848485" y="45.696969696969695"/>
      <point x="105.51515151515152" y="-102.36363636363636"/>
      <point x="-12.666666666666668" y="-287.2121212121212" type="curve"/>
    </contour>
  </outline>
</glyph>
<glyph name="K" format="2">
  <advance width="1070.0"/>
  <unicode hex="004B"/>
  <anchor x="569.6363636363636" y="0.0" name="bottom"/>
  <anchor x="567.8181818181819" y="1480.0" name="top"/>
  <outline>
    <contour>
      <point x="979.939393939394" y="0.0" type="line"/>
      <point x="1112.8484848484848" y="0.0" type="line"/>
      <point x="528.969696969697" y="780.3636363636364" type="line"/>
      <point x="528.3636363636364" y="743.3333333333334" type="line"/>
      <point x="1071.7575757575758" y="1480.0" type="line"/>
      <point x="942.3636363636364" y="1480.0" type="line"/>
      <point x="411.3939393939394" y="756.7878787878788" type="line"/>
    </contour>
    <contour>
      <point x="152.4848484848485" y="0.0" type="line"/>
      <point x="269.57575757575756" y="0.0" type="line"/>
      <point x="269.57575757575756" y="1480.0" type="line"/>
      <point x="152.4848484848485" y="1480.0" type="line"/>
    </contour>
    <contour>
      <point x="248.12121212121212" y="704.969696969697" type="line"/>
      <point x="467.93939393939394" y="704.969696969697" type="line"/>
      <point x="467.93939393939394" y="813.5151515151515" type="line"/>
      <point x="248.12121212121212" y="813.5151515151515" type="line"/>
    </contour>
  </outline>
</glyph>
<glyph name="L" format="2">
  <advance width="912.1212121212121"/>
  <unicode hex="004C"/>
  <anchor x="531.1515151515151" y="0.0" name="bottom"/>
  <anchor x="592.8484848484849" y="1616.0" name="caronalt"/>
  <anchor x="663.6363636363636" y="792.1818181818181" name="periodcentered"/>
  <anchor x="212.24242424242425" y="786.1212121212121" name="slash"/>
  <anchor x="212.24242424242425" y="1520.0" name="top"/>
  <outline>
    <contour>
      <point x="152.4848484848485" y="0.0" type="line"/>
      <point x="908.1212121212121" y="0.0" type="line"/>
      <point x="908.1212121212121" y="108.42424242424242" type="line"/>
      <point x="269.57575757575756" y="108.42424242424242" type="line"/>
      <point x="269.57575757575756" y="1480.0" type="line"/>
      <point x="152.4848484848485" y="1480.0" type="line"/>
    </contour>
  </outline>
</glyph>
<glyph name="M" format="2">
  <advance width="1549.3333333333333"/>
  <unicode hex="004D"/>
  <anchor x="778.6060606060606" y="0.0" name="bottom"/>
  <anchor x="778.6060606060606" y="1480.0" name="top"/>
  <outline>
    <contour>
      <point x="156.4848484848485" y="0.0" type="line"/>
      <point x="267.6363636363636" y="0.0" type="line"/>
      <point x="267.6363636363636" y="1371.8181818181818" type="line"/>
      <point x="225.57575757575756" y="1371.8181818181818" type="line"/>
      <point x="719.3939393939394" y="203.03030303030303" type="line"/>
      <point x="829.939393939394" y="203.03030303030303" type="line"/>
      <point x="1319.939393939394" y="1371.8181818181818" type="line"/>
      <point x="1281.6969696969697" y="1371.8181818181818" type="line"/>
      <point x="1281.6969696969697" y="0.0" type="line"/>
      <point x="1392.8484848484848" y="0.0" type="line"/>
      <point x="1392.8484848484848" y="1480.0" type="line"/>
      <point x="1255.030303030303" y="1480.0" type="line"/>
      <point x="761.5757575757576" y="290.4848484848485" type="line"/>
      <point x="793.2727272727273" y="290.4848484848485" type="line"/>
      <point x="294.3030303030303" y="1480.0" type="line"/>
      <point x="156.4848484848485" y="1480.0" type="line"/>
    </contour>
  </outline>
</glyph>
<glyph name="N" format="2">
  <advance width="1268.0"/>
  <unicode hex="004E"/>
  <anchor x="634.0" y="0.0" name="bottom"/>
  <anchor x="634.0" y="1520.0" name="top"/>
  <outline>
    <contour>
      <point x="152.4848484848485" y="0.0" type="line"/>
      <point x="263.93939393939394" y="0.0" type="line"/>
      <point x="263.93939393939394" y="1345.7575757575758" type="line"/>
      <point x="228.0" y="1345.7575757575758" type="line"/>
      <point x="991.939393939394" y="0.0" type="line"/>
      <point x="1115.5151515151515" y="0.0" type="line"/>
      <point x="1115.5151515151515" y="1480.0" type="line"/>
      <point x="1004.060606060606" y="1480.0" type="line"/>
      <point x="1004.060606060606" y="134.24242424242425" type="line"/>
      <point x="1040.0" y="134.24242424242425" type="line"/>
      <point x="276.06060606060606" y="1480.0" type="line"/>
      <point x="152.4848484848485" y="1480.0" type="line"/>
    </contour>
  </outline>
</glyph>
<glyph name="P" format="2">
  <advance width="1078.8484848484848"/>
  <unicode hex="0050"/>
  <outline>
    <contour>
      <point x="152.4848484848485" y="0.0" type="line"/>
      <point x="269.57575757575756" y="0.0" type="line"/>
      <point x="269.57575757575756" y="506.3030303030303" type="line"/>
      <point x="323.93939393939394" y="501.2121212121212"/>
      <point x="374.7878787878788" y="499.2121212121212"/>
      <point x="433.1515151515151" y="499.2121212121212" type="curve" smooth="yes"/>
      <point x="815.1515151515151" y="499.2121212121212"/>
      <point x="993.8181818181819" y="670.5454545454545"/>
      <point x="993.8181818181819" y="995.2121212121212" type="curve" smooth="yes"/>
      <point x="993.8181818181819" y="1338.4848484848485"/>
      <point x="815.1515151515151" y="1494.909090909091"/>
      <point x="462.1212121212121" y="1494.909090909091" type="curve" smooth="yes"/>
      <point x="351.3333333333333" y="1494.909090909091"/>
      <point x="246.06060606060606" y="1481.6969696969697"/>
      <point x="152.4848484848485" y="1465.2727272727273" type="curve"/>
    </contour>
    <contour>
      <point x="438.8484848484849" y="602.7878787878788" type="curve" smooth="yes"/>
      <point x="380.1818181818182" y="602.7878787878788"/>
      <point x="325.030303030303" y="604.7878787878788"/>
      <point x="269.57575757575756" y="612.1818181818181" type="curve"/>
      <point x="269.57575757575756" y="1376.5454545454545" type="line"/>
      <point x="332.90909090909093" y="1385.939393939394"/>
      <point x="397.3333333333333" y="1391.3333333333333"/>
      <point x="467.8787878787879" y="1391.3333333333333" type="curve" smooth="yes"/>
      <point x="745.4545454545455" y="1391.3333333333333"/>
      <point x="875.1515151515151" y="1271.8181818181818"/>
      <point x="875.1515151515151" y="991.2121212121212" type="curve" smooth="yes"/>
      <point x="875.1515151515151" y="725.8787878787879"/>
      <point x="736.969696969697" y="602.7878787878788"/>
    </contour>
  </outline>
</glyph>
<glyph name="T" format="2">
  <advance width="1011.2121212121212"/>
  <unicode hex="0054"/>
  <anchor x="505.75757575757575" y="0.0" name="bottom"/>
  <anchor x="505.75757575757575" y="784.8484848484849" name="center"/>
  <anchor x="505.75757575757575" y="1520.0" name="top"/>
  <outline>
    <contour>
      <point x="446.90909090909093" y="0.0" type="line"/>
      <point x="564.3030303030303" y="0.0" type="line"/>
      <point x="564.3030303030303" y="1371.5757575757575" type="line"/>
      <point x="1003.8181818181819" y="1371.5757575757575" type="line"/>
      <point x="1003.8181818181819" y="1480.0" type="line"/>
      <point x="7.393939393939394" y="1480.0" type="line"/>
      <point x="7.393939393939394" y="1371.5757575757575" type="line"/>
      <point x="446.90909090909093" y="1371.5757575757575" type="line"/>
    </contour>
  </outline>
</glyph>
<glyph name="V" format="2">
  <advance width="1125.5757575757575"/>
  <unicode hex="0056"/>
  <outline>
    <contour>
      <point x="477.45454545454544" y="0.0" type="line"/>
      <point x="648.1212121212121" y="0.0" type="line"/>
      <point x="1119.8181818181818" y="1480.0" type="line"/>
      <point x="1003.7575757575758" y="1480.0" type="line"/>
      <point x="552.6060606060606" y="56.66666666666667" type="line"/>
      <point x="577.6969696969697" y="56.66666666666667" type="line"/>
      <point x="129.45454545454544" y="1480.0" type="line"/>
      <point x="5.757575757575758" y="1480.0" type="line"/>
    </contour>
  </outline>
</glyph>
<glyph name="W" format="2">
  <advance width="1810.7878787878788"/>
  <unicode hex="0057"/>
  <anchor x="907.0909090909091" y="0.0" name="bottom"/>
  <anchor x="907.0909090909091" y="1520.0" name="top"/>
  <outline>
    <contour>
      <point x="414.90909090909093" y="0.0" type="line"/>
      <point x="571.6363636363636" y="0.0" type="line"/>
      <point x="921.5757575757576" y="1395.1515151515152" type="line"/>
      <point x="894.5454545454545" y="1395.1515151515152" type="line"/>
      <point x="1239.1515151515152" y="0.0" type="line"/>
      <point x="1395.878787878788" y="0.0" type="line"/>
      <point x="1762.6666666666667" y="1480.0" type="line"/>
      <point x="1649.5151515151515" y="1480.0" type="line"/>
      <point x="1300.6666666666667" y="54.84848484848485" type="line"/>
      <point x="1330.3030303030303" y="54.84848484848485" type="line"/>
      <point x="980.3636363636364" y="1480.0" type="line"/>
      <point x="836.3636363636364" y="1480.0" type="line"/>
      <point x="483.3939393939394" y="54.84848484848485" type="line"/>
      <point x="514.2424242424242" y="54.84848484848485" type="line"/>
      <point x="168.9090909090909" y="1480.0" type="line"/>
      <point x="48.121212121212125" y="1480.0" type="line"/>
    </contour>
  </outline>
</glyph>
<glyph name="X" format="2">
  <advance width="1108.4242424242425"/>
  <unicode hex="0058"/>
  <outline>
    <contour>
      <point x="954.1212121212121" y="0.0" type="line"/>
      <point x="1087.6363636363637" y="0.0" type="line"/>
      <point x="622.5454545454545" y="752.5454545454545" type="line"/>
      <point x="554.060606060606" y="853.3333333333334" type="line"/>
      <point x="167.45454545454544" y="1480.0" type="line"/>
      <point x="34.72727272727273" y="1480.0" type="line"/>
      <point x="485.57575757575756" y="752.2424242424242" type="line"/>
      <point x="554.060606060606" y="650.6666666666666" type="line"/>
    </contour>
    <contour>
      <point x="19.272727272727273" y="0.0" type="line"/>
      <point x="152.0" y="0.0" type="line"/>
      <point x="554.060606060606" y="650.6666666666666" type="line"/>
      <point x="622.5454545454545" y="752.5454545454545" type="line"/>
      <point x="1072.1818181818182" y="1480.0" type="line"/>
      <point x="940.6666666666666" y="1480.0" type="line"/>
      <point x="554.060606060606" y="853.3333333333334" type="line"/>
      <point x="485.57575757575756" y="752.2424242424242" type="line"/>
    </contour>
  </outline>
</glyph>
<glyph name="Z" format="2">
  <advance width="974.5454545454545"/>
  <unicode hex="005A"/>
  <anchor x="487.2121212121212" y="0.0" name="bottom"/>
  <anchor x="488.42424242424244" y="1520.0" name="top"/>
  <outline>
    <contour>
      <point x="52.36363636363636" y="0.0" type="line"/>
      <point x="922.1818181818181" y="0.0" type="line"/>
      <point x="922.1818181818181" y="106.72727272727272" type="line"/>
      <point x="172.78787878787878" y="106.72727272727272" type="line"/>
      <point x="186.36363636363637" y="74.66666666666666" type="line"/>
      <point x="912.1818181818181" y="1412.7272727272727" type="line"/>
      <point x="912.1818181818181" y="1480.0" type="line"/>
      <point x="62.36363636363636" y="1480.0" type="line"/>
      <point x="62.36363636363636" y="1373.2727272727273" type="line"/>
      <point x="791.7575757575758" y="1373.2727272727273" type="line"/>
      <point x="778.1818181818181" y="1405.3333333333333" type="line"/>
      <point x="52.36363636363636" y="67.27272727272728" type="line"/>
    </contour>
  </outline>
</glyph>
<glyph name="bracketleft" format="2">
  <advance width="565.3939393939394"/>
  <unicode hex="005B"/>
  <outline>
    <contour>
      <point x="172.4848484848485" y="-440.0" type="line"/>
      <point x="603.8787878787879" y="-440.0" type="line"/>
      <point x="603.8787878787879" y="-340.24242424242425" type="line"/>
      <point x="288.6666666666667" y="-340.24242424242425" type="line"/>
      <point x="288.6666666666667" y="1516.2424242424242" type="line"/>
      <point x="603.8787878787879" y="1516.2424242424242" type="line"/>
      <point x="603.8787878787879" y="1616.0" type="line"/>
      <point x="172.4848484848485" y="1616.0" type="line"/>
    </contour>
  </outline>
</glyph>
<glyph name="backslash" format="2">
  <advance width="468.0"/>
  <unicode hex="005C"/>
  <outline>
    <contour>
      <point x="352.54545454545456" y="-240.0" type="line"/>
      <point x="468.0" y="-240.0" type="line"/>
      <point x="115.45454545454545" y="1616.0" type="line"/>
      <point x="0.0" y="1616.0" type="line"/>
    </contour>
  </outline>
</glyph>
<glyph name="bracketright" format="2">
  <advance width="565.3939393939394"/>
  <unicode hex="005D"/>
  <outline>
    <contour>
      <point x="-38.484848484848484" y="-440.0" type="line"/>
      <point x="392.90909090909093" y="-440.0" type="line"/>
      <point x="392.90909090909093" y="1616.0" type="line"/>
      <point x="-38.484848484848484" y="1616.0" type="line"/>
      <point x="-38.484848484848484" y="1516.2424242424242" type="line"/>
      <point x="276.72727272727275" y="1516.2424242424242" type="line"/>
      <point x="276.72727272727275" y="-340.24242424242425" type="line"/>
      <point x="-38.484848484848484" y="-340.24242424242425" type="line"/>
    </contour>
  </outline>
</glyph>
<glyph name="underscore" format="2">
  <advance width="947.1515151515151"/>
  <unicode hex="005F"/>
  <outline>
    <contour>
      <point x="88.48484848484848" y="-99.75757575757575" type="line"/>
      <point x="858.6666666666666" y="-99.75757575757575" type="line"/>
      <point x="858.6666666666666" y="0.0" type="line"/>
      <point x="88.48484848484848" y="0.0" type="line"/>
    </contour>
  </outline>
</glyph>
<glyph name="grave" format="2">
  <advance width="860.6060606060606"/>
  <unicode hex="0060"/>
  <anchor x="430.3030303030303" y="1200.0" name="_top"/>
  <anchor x="430.3030303030303" y="1571.1515151515152" name="top"/>
  <outline>
    <contour>
      <point x="381.09090909090907" y="1257.3333333333333" type="line"/>
      <point x="479.5151515151515" y="1257.3333333333333" type="line"/>
      <point x="322.42424242424244" y="1616.0" type="line"/>
      <point x="202.54545454545453" y="1616.0" type="line"/>
    </contour>
  </outline>
</glyph>
<glyph name="b" format="2">
  <advance width="942.7878787878788"/>
  <unicode hex="0062"/>
  <anchor x="475.45454545454544" y="0.0" name="bottom"/>
  <anchor x="192.24242424242425" y="1616.0" name="top"/>
  <outline>
    <contour>
      <point x="388.3636363636364" y="-18.303030303030305" type="curve" smooth="yes"/>
      <point x="691.7575757575758" y="-18.606060606060606"/>
      <point x="862.060606060606" y="159.45454545454547"/>
      <point x="862.060606060606" y="560.9090909090909" type="curve" smooth="yes"/>
      <point x="862.060606060606" y="971.7575757575758"/>
      <point x="695.4545454545455" y="1099.3333333333333"/>
      <point x="506.54545454545456" y="1099.3333333333333" type="curve" smooth="yes"/>
      <point x="391.27272727272725" y="1099.3333333333333"/>
      <point x="305.0909090909091" y="1043.1515151515152"/>
      <point x="258.0" y="979.5151515151515" type="curve"/>
      <point x="250.1818181818182" y="979.5151515151515" type="line"/>
      <point x="250.1818181818182" y="1616.0" type="line"/>
      <point x="134.0" y="1616.0" type="line"/>
      <point x="134.0" y="22.242424242424242" type="line"/>
      <point x="202.78787878787878" y="-3.090909090909091"/>
      <point x="303.57575757575756" y="-18.303030303030305"/>
    </contour>
    <contour>
      <point x="393.2121212121212" y="81.93939393939394" type="curve" smooth="yes"/>
      <point x="344.969696969697" y="81.93939393939394"/>
      <point x="286.54545454545456" y="90.72727272727272"/>
      <point x="250.1818181818182" y="101.51515151515152" type="curve"/>
      <point x="250.1818181818182" y="860.060606060606" type="line"/>
      <point x="297.030303030303" y="947.8181818181819"/>
      <point x="388.90909090909093" y="994.2424242424242"/>
      <point x="477.09090909090907" y="994.2424242424242" type="curve" smooth="yes"/>
      <point x="625.0909090909091" y="994.2424242424242"/>
      <point x="741.2727272727273" y="912.6060606060606"/>
      <point x="741.2727272727273" y="548.969696969697" type="curve" smooth="yes"/>
      <point x="741.2727272727273" y="207.21212121212122"/>
      <point x="616.0" y="81.93939393939394"/>
    </contour>
  </outline>
</glyph>
<glyph name="f" format="2">
  <advance width="588.969696969697"/>
  <unicode hex="0066"/>
  <outline>
    <contour>
      <point x="198.9090909090909" y="0.0" type="line"/>
      <point x="314.1818181818182" y="0.0" type="line"/>
      <point x="314.1818181818182" y="1322.4242424242425" type="line" smooth="yes"/>
      <point x="314.1818181818182" y="1472.8484848484848"/>
      <point x="384.54545454545456" y="1533.030303030303"/>
      <point x="520.8484848484849" y="1533.030303030303" type="curve" smooth="yes"/>
      <point x="565.5151515151515" y="1533.030303030303"/>
      <point x="598.3030303030303" y="1529.3333333333333"/>
      <point x="638.7878787878788" y="1521.939393939394" type="curve"/>
      <point x="638.7878787878788" y="1625.6969696969697" type="line"/>
      <point x="598.1818181818181" y="1633.6969696969697"/>
      <point x="550.969696969697" y="1636.0"/>
      <point x="514.8484848484849" y="1636.0" type="curve" smooth="yes"/>
      <point x="305.5151515151515" y="1636.0"/>
      <point x="198.9090909090909" y="1526.969696969697"/>
      <point x="198.9090909090909" y="1320.1818181818182" type="curve" smooth="yes"/>
    </contour>
    <contour>
      <point x="8.0" y="983.2727272727273" type="line"/>
      <point x="603.5757575757576" y="983.2727272727273" type="line"/>
      <point x="603.5757575757576" y="1083.030303030303" type="line"/>
      <point x="8.0" y="1083.030303030303" type="line"/>
    </contour>
  </outline>
</glyph>
<glyph name="j" format="2">
  <advance width="384.4848484848485"/>
  <unicode hex="006A"/>
  <anchor x="192.24242424242425" y="1200.0" name="_top"/>
  <anchor x="192.24242424242425" y="1200.0" name="top"/>
  <outline>
    <contour>
      <point x="50.06060606060606" y="-462.42424242424244" type="line"/>
      <point x="190.96969696969697" y="-256.3030303030303"/>
      <point x="250.4848484848485" y="-91.33333333333333"/>
      <point x="250.4848484848485" y="179.03030303030303" type="curve" smooth="yes"/>
      <point x="250.4848484848485" y="1083.030303030303" type="line"/>
      <point x="134.0" y="1083.030303030303" type="line"/>
      <point x="134.0" y="168.12121212121212" type="line" smooth="yes"/>
      <point x="134.0" y="-75.21212121212122"/>
      <point x="87.03030303030303" y="-223.27272727272728"/>
      <point x="-31.151515151515152" y="-408.1212121212121" type="curve"/>
    </contour>
    <contour>
      <point x="192.24242424242425" y="1337.2727272727273" type="curve" smooth="yes"/>
      <point x="247.33333333333334" y="1337.2727272727273"/>
      <point x="280.3030303030303" y="1369.4545454545455"/>
      <point x="280.3030303030303" y="1421.3939393939395" type="curve" smooth="yes"/>
      <point x="280.3030303030303" y="1473.3333333333333"/>
      <point x="247.33333333333334" y="1507.2121212121212"/>
      <point x="192.24242424242425" y="1507.2121212121212" type="curve" smooth="yes"/>
      <point x="137.15151515151516" y="1507.2121212121212"/>
      <point x="104.18181818181819" y="1473.3333333333333"/>
      <point x="104.18181818181819" y="1421.3939393939395" type="curve" smooth="yes"/>
      <point x="104.18181818181819" y="1369.4545454545455"/>
      <point x="137.15151515151516" y="1337.2727272727273"/>
    </contour>
  </outline>
</glyph>
<glyph name="k" format="2">
  <advance width="871.0909090909091"/>
  <unicode hex="006B"/>
  <guideline x="559.0909090909091" y="554.1212121212121" angle="0.0"/>
  <anchor x="480.7878787878788" y="0.0" name="bottom"/>
  <anchor x="192.24242424242425" y="1616.0" name="top"/>
  <outline>
    <contour>
      <point x="764.4242424242424" y="0.0" type="line"/>
      <point x="898.1212121212121" y="0.0" type="line"/>
      <point x="488.8484848484849" y="573.6969696969697" type="line"/>
      <point x="488.8484848484849" y="536.6666666666666" type="line"/>
      <point x="865.5151515151515" y="1083.030303030303" type="line"/>
      <point x="735.030303030303" y="1083.030303030303" type="line"/>
      <point x="368.7878787878788" y="554.1212121212121" type="line"/>
    </contour>
    <contour>
      <point x="231.75757575757575" y="504.24242424242425" type="line"/>
      <point x="422.1212121212121" y="504.24242424242425" type="line"/>
      <point x="422.1212121212121" y="604.0" type="line"/>
      <point x="231.75757575757575" y="604.0" type="line"/>
    </contour>
    <contour>
      <point x="134.0" y="0.0" type="line"/>
      <point x="250.1818181818182" y="0.0" type="line"/>
      <point x="250.1818181818182" y="1616.0" type="line"/>
      <point x="134.0" y="1616.0" type="line"/>
    </contour>
  </outline>
</glyph>
<glyph name="l" format="2">
  <advance width="384.1818181818182"/>
  <unicode hex="006C"/>
  <anchor x="192.24242424242425" y="0.0" name="bottom"/>
  <anchor x="347.1515151515151" y="1616.0" name="caronalt"/>
  <anchor x="403.6363636363636" y="794.0" name="periodcentered"/>
  <anchor x="192.24242424242425" y="714.0" name="slash"/>
  <anchor x="192.24242424242425" y="1616.0" name="top"/>
  <outline>
    <contour>
      <point x="134.0" y="0.0" type="line"/>
      <point x="250.1818181818182" y="0.0" type="line"/>
      <point x="250.1818181818182" y="1616.0" type="line"/>
      <point x="134.0" y="1616.0" type="line"/>
    </contour>
  </outline>
</glyph>
<glyph name="p" format="2">
  <advance width="942.7878787878788"/>
  <unicode hex="0070"/>
  <outline>
    <contour>
      <point x="134.0" y="-440.0" type="line"/>
      <point x="250.1818181818182" y="-440.0" type="line"/>
      <point x="250.1818181818182" y="-9.818181818181818" type="line"/>
      <point x="291.8181818181818" y="-14.90909090909091"/>
      <point x="341.6363636363636" y="-18.303030303030305"/>
      <point x="383.27272727272725" y="-18.303030303030305" type="curve" smooth="yes"/>
      <point x="693.4545454545455" y="-18.303030303030305"/>
      <point x="862.060606060606" y="159.75757575757575"/>
      <point x="862.060606060606" y="561.2121212121212" type="curve" smooth="yes"/>
      <point x="862.060606060606" y="972.060606060606"/>
      <point x="693.030303030303" y="1099.3333333333333"/>
      <point x="499.2121212121212" y="1099.3333333333333" type="curve" smooth="yes"/>
      <point x="385.5151515151515" y="1099.3333333333333"/>
      <point x="299.3333333333333" y="1041.939393939394"/>
      <point x="252.54545454545456" y="972.6060606060606" type="curve"/>
      <point x="243.33333333333334" y="972.6060606060606" type="line"/>
      <point x="234.3030303030303" y="1083.030303030303" type="line"/>
      <point x="134.0" y="1083.030303030303" type="line"/>
    </contour>
    <contour>
      <point x="389.8181818181818" y="81.93939393939394" type="curve" smooth="yes"/>
      <point x="345.8787878787879" y="81.93939393939394"/>
      <point x="286.54545454545456" y="87.33333333333334"/>
      <point x="250.1818181818182" y="94.42424242424242" type="curve"/>
      <point x="250.1818181818182" y="855.7575757575758" type="line"/>
      <point x="297.3333333333333" y="947.5151515151515"/>
      <point x="389.8181818181818" y="994.5454545454545"/>
      <point x="477.2121212121212" y="994.5454545454545" type="curve" smooth="yes"/>
      <point x="625.0909090909091" y="994.5454545454545"/>
      <point x="741.2727272727273" y="912.9090909090909"/>
      <point x="741.2727272727273" y="549.2727272727273" type="curve" smooth="yes"/>
      <point x="741.2727272727273" y="207.21212121212122"/>
      <point x="616.0" y="81.93939393939394"/>
    </contour>
  </outline>
</glyph>
<glyph name="q" format="2">
  <advance width="942.7878787878788"/>
  <unicode hex="0071"/>
  <outline>
    <contour>
      <point x="692.6060606060606" y="-440.0" type="line"/>
      <point x="808.7878787878788" y="-440.0" type="line"/>
      <point x="808.7878787878788" y="1058.7878787878788" type="line"/>
      <point x="743.3939393939394" y="1082.4242424242425"/>
      <point x="639.2121212121212" y="1099.3333333333333"/>
      <point x="554.4242424242424" y="1099.3333333333333" type="curve" smooth="yes"/>
      <point x="251.03030303030303" y="1099.3333333333333"/>
      <point x="80.72727272727272" y="921.5757575757576"/>
      <point x="80.72727272727272" y="520.1212121212121" type="curve" smooth="yes"/>
      <point x="80.72727272727272" y="109.27272727272728"/>
      <point x="247.33333333333334" y="-18.303030303030305"/>
      <point x="436.24242424242425" y="-18.303030303030305" type="curve" smooth="yes"/>
      <point x="551.5151515151515" y="-18.303030303030305"/>
      <point x="637.6969696969697" y="37.878787878787875"/>
      <point x="684.7878787878788" y="101.51515151515152" type="curve"/>
      <point x="692.6060606060606" y="101.51515151515152" type="line"/>
    </contour>
    <contour>
      <point x="465.6969696969697" y="86.78787878787878" type="curve" smooth="yes"/>
      <point x="317.6969696969697" y="86.78787878787878"/>
      <point x="201.5151515151515" y="168.42424242424244"/>
      <point x="201.5151515151515" y="532.060606060606" type="curve" smooth="yes"/>
      <point x="201.5151515151515" y="873.8181818181819"/>
      <point x="327.3939393939394" y="999.0909090909091"/>
      <point x="549.2727272727273" y="999.0909090909091" type="curve" smooth="yes"/>
      <point x="597.5151515151515" y="999.0909090909091"/>
      <point x="656.2424242424242" y="990.3030303030303"/>
      <point x="692.6060606060606" y="981.5151515151515" type="curve"/>
      <point x="692.6060606060606" y="220.96969696969697" type="line"/>
      <point x="645.7575757575758" y="133.21212121212122"/>
      <point x="553.8787878787879" y="86.78787878787878"/>
    </contour>
  </outline>
</glyph>
<glyph name="r" format="2">
  <advance width="598.1212121212121"/>
  <unicode hex="0072"/>
  <anchor x="192.24242424242425" y="0.0" name="bottom"/>
  <anchor x="339.1515151515151" y="1200.0" name="top"/>
  <outline>
    <contour>
      <point x="134.0" y="0.0" type="line"/>
      <point x="250.1818181818182" y="0.0" type="line"/>
      <point x="250.1818181818182" y="807.0909090909091" type="line"/>
      <point x="306.54545454545456" y="918.6666666666666"/>
      <point x="418.4848484848485" y="979.2121212121212"/>
      <point x="524.2424242424242" y="979.2121212121212" type="curve" smooth="yes"/>
      <point x="549.4545454545455" y="979.2121212121212"/>
      <point x="566.0" y="978.9090909090909"/>
      <point x="588.1212121212121" y="976.0" type="curve"/>
      <point x="588.1212121212121" y="1087.939393939394" type="line"/>
      <point x="574.6060606060606" y="1090.2424242424242"/>
      <point x="554.4848484848485" y="1092.5454545454545"/>
      <point x="529.8787878787879" y="1092.5454545454545" type="curve" smooth="yes"/>
      <point x="421.27272727272725" y="1092.5454545454545"/>
      <point x="317.6969696969697" y="1041.7575757575758"/>
      <point x="251.63636363636363" y="935.8181818181819" type="curve"/>
      <point x="242.42424242424244" y="935.8181818181819" type="line"/>
      <point x="232.78787878787878" y="1083.030303030303" type="line"/>
      <point x="134.0" y="1083.030303030303" type="line"/>
    </contour>
  </outline>
</glyph>
<glyph name="v" format="2">
  <advance width="887.3939393939394"/>
  <unicode hex="0076"/>
  <anchor x="444.54545454545456" y="0.0" name="bottom"/>
  <anchor x="444.54545454545456" y="1200.0" name="top"/>
  <outline>
    <contour>
      <point x="365.93939393939394" y="0.0" type="line"/>
      <point x="521.4545454545455" y="0.0" type="line"/>
      <point x="878.7272727272727" y="1083.030303030303" type="line"/>
      <point x="756.6666666666666" y="1083.030303030303" type="line"/>
      <point x="433.45454545454544" y="77.03030303030303" type="line"/>
      <point x="456.3636363636364" y="77.03030303030303" type="line"/>
      <point x="133.15151515151516" y="1083.030303030303" type="line"/>
      <point x="8.666666666666666" y="1083.030303030303" type="line"/>
    </contour>
  </outline>
</glyph>
<glyph name="w" format="2">
  <advance width="1472.1818181818182"/>
  <unicode hex="0077"/>
  <anchor x="736.2424242424242" y="0.0" name="bottom"/>
  <anchor x="737.939393939394" y="1200.0" name="top"/>
  <outline>
    <contour>
      <point x="328.3636363636364" y="0.0" type="line"/>
      <point x="470.24242424242425" y="0.0" type="line"/>
      <point x="745.1515151515151" y="986.6666666666666" type="line"/>
      <point x="729.939393939394" y="986.6666666666666" type="line"/>
      <point x="1002.2424242424242" y="0.0" type="line"/>
      <point x="1144.121212121212" y="0.0" type="line"/>
      <point x="1427.4545454545455" y="1083.030303030303" type="line"/>
      <point x="1316.5454545454545" y="1083.030303030303" type="line"/>
      <point x="1063.1515151515152" y="97.57575757575758" type="line"/>
      <point x="1080.060606060606" y="97.57575757575758" type="line"/>
      <point x="809.3939393939394" y="1083.030303030303" type="line"/>
      <point x="667.5151515151515" y="1083.030303030303" type="line"/>
      <point x="395.93939393939394" y="97.27272727272728" type="line"/>
      <point x="411.6363636363636" y="97.27272727272728" type="line"/>
      <point x="159.45454545454544" y="1083.030303030303" type="line"/>
      <point x="44.72727272727273" y="1083.030303030303" type="line"/>
    </contour>
  </outline>
</glyph>
<glyph name="x" format="2">
  <advance width="826.3030303030303"/>
  <unicode hex="0078"/>
  <anchor x="414.0" y="0.0" name="bottom"/>
  <anchor x="414.3030303030303" y="1200.0" name="top"/>
  <outline>
    <contour>
      <point x="689.2727272727273" y="0.0" type="line"/>
      <point x="820.1818181818181" y="0.0" type="line"/>
      <point x="481.0909090909091" y="547.8181818181819" type="line"/>
      <point x="414.6060606060606" y="642.060606060606" type="line"/>
      <point x="143.63636363636363" y="1083.030303030303" type="line"/>
      <point x="12.727272727272727" y="1083.030303030303" type="line"/>
      <point x="344.90909090909093" y="545.5151515151515" type="line"/>
      <point x="412.0" y="453.57575757575756" type="line"/>
    </contour>
    <contour>
      <point x="8.424242424242424" y="0.0" type="line"/>
      <point x="135.8181818181818" y="0.0" type="line"/>
      <point x="412.0" y="453.57575757575756" type="line"/>
      <point x="481.0909090909091" y="547.8181818181819" type="line"/>
      <point x="812.969696969697" y="1083.030303030303" type="line"/>
      <point x="685.5757575757576" y="1083.030303030303" type="line"/>
      <point x="414.6060606060606" y="642.060606060606" type="line"/>
      <point x="344.90909090909093" y="545.5151515151515" type="line"/>
    </contour>
  </outline>
</glyph>
<glyph name="y" format="2">
  <advance width="887.3939393939394"/>
  <unicode hex="0079"/>
  <anchor x="684.1818181818181" y="0.0" name="bottom"/>
  <anchor x="444.54545454545456" y="1200.0" name="top"/>
  <outline>
    <contour>
      <point x="258.54545454545456" y="-440.0" type="line"/>
      <point x="376.6060606060606" y="-440.0" type="line"/>
      <point x="878.7272727272727" y="1083.030303030303" type="line"/>
      <point x="756.6666666666666" y="1083.030303030303" type="line"/>
      <point x="433.45454545454544" y="77.03030303030303" type="line"/>
      <point x="405.09090909090907" y="0.0" type="line"/>
    </contour>
    <contour>
      <point x="365.93939393939394" y="0.0" type="line"/>
      <point x="476.54545454545456" y="0.0" type="line"/>
      <point x="133.15151515151516" y="1083.030303030303" type="line"/>
      <point x="8.666666666666666" y="1083.030303030303" type="line"/>
    </contour>
  </outline>
</glyph>
<glyph name="braceleft" format="2">
  <advance width="605.3939393939394"/>
  <unicode hex="007B"/>
  <outline>
    <contour>
      <point x="514.7878787878788" y="-460.0" type="curve" smooth="yes"/>
      <point x="562.7272727272727" y="-460.0"/>
      <point x="610.5454545454545" y="-455.6969696969697"/>
      <point x="643.8787878787879" y="-449.3939393939394" type="curve"/>
      <point x="643.8787878787879" y="-357.6363636363636" type="line"/>
      <point x="521.6969696969697" y="-357.6363636363636" type="line" smooth="yes"/>
      <point x="391.5151515151515" y="-357.6363636363636"/>
      <point x="328.6666666666667" y="-296.0"/>
      <point x="328.6666666666667" y="-166.72727272727272" type="curve" smooth="yes"/>
      <point x="328.6666666666667" y="404.6060606060606" type="line" smooth="yes"/>
      <point x="328.6666666666667" y="532.7272727272727"/>
      <point x="275.0909090909091" y="610.1818181818181"/>
      <point x="152.9090909090909" y="632.2424242424242" type="curve"/>
      <point x="152.9090909090909" y="614.7878787878788" type="line"/>
      <point x="275.0909090909091" y="636.8484848484849"/>
      <point x="328.6666666666667" y="714.3030303030303"/>
      <point x="328.6666666666667" y="842.4242424242424" type="curve" smooth="yes"/>
      <point x="328.6666666666667" y="1342.7272727272727" type="line" smooth="yes"/>
      <point x="328.6666666666667" y="1472.0"/>
      <point x="391.5151515151515" y="1533.6363636363637"/>
      <point x="521.6969696969697" y="1533.6363636363637" type="curve" smooth="yes"/>
      <point x="643.8787878787879" y="1533.6363636363637" type="line"/>
      <point x="643.8787878787879" y="1625.3939393939395" type="line"/>
      <point x="610.5454545454545" y="1631.6969696969697"/>
      <point x="562.7272727272727" y="1636.0"/>
      <point x="514.7878787878788" y="1636.0" type="curve" smooth="yes"/>
      <point x="315.1515151515151" y="1636.0"/>
      <point x="212.4848484848485" y="1533.939393939394"/>
      <point x="212.4848484848485" y="1335.3333333333333" type="curve" smooth="yes"/>
      <point x="212.4848484848485" y="837.8787878787879" type="line" smooth="yes"/>
      <point x="212.4848484848485" y="725.2727272727273"/>
      <point x="153.8181818181818" y="673.3939393939394"/>
      <point x="49.696969696969695" y="673.3939393939394" type="curve" smooth="yes"/>
      <point x="36.90909090909091" y="673.3939393939394" type="line"/>
      <point x="36.90909090909091" y="573.6363636363636" type="line"/>
      <point x="49.696969696969695" y="573.6363636363636" type="line" smooth="yes"/>
      <point x="153.8181818181818" y="573.6363636363636"/>
      <point x="212.4848484848485" y="521.7575757575758"/>
      <point x="212.4848484848485" y="409.1515151515151" type="curve" smooth="yes"/>
      <point x="212.4848484848485" y="-159.33333333333334" type="line" smooth="yes"/>
      <point x="212.4848484848485" y="-357.93939393939394"/>
      <point x="315.1515151515151" y="-460.0"/>
    </contour>
  </outline>
</glyph>
<glyph name="braceright" format="2">
  <advance width="605.3939393939394"/>
  <unicode hex="007D"/>
  <outline>
    <contour>
      <point x="90.60606060606061" y="-460.0" type="curve" smooth="yes"/>
      <point x="290.24242424242425" y="-460.0"/>
      <point x="392.90909090909093" y="-357.93939393939394"/>
      <point x="392.90909090909093" y="-159.33333333333334" type="curve" smooth="yes"/>
      <point x="392.90909090909093" y="409.1515151515151" type="line" smooth="yes"/>
      <point x="392.90909090909093" y="521.7575757575758"/>
      <point x="451.57575757575756" y="573.6363636363636"/>
      <point x="555.6969696969697" y="573.6363636363636" type="curve" smooth="yes"/>
      <point x="568.4848484848485" y="573.6363636363636" type="line"/>
      <point x="568.4848484848485" y="673.3939393939394" type="line"/>
      <point x="555.6969696969697" y="673.3939393939394" type="line" smooth="yes"/>
      <point x="451.57575757575756" y="673.3939393939394"/>
      <point x="392.90909090909093" y="725.2727272727273"/>
      <point x="392.90909090909093" y="837.8787878787879" type="curve" smooth="yes"/>
      <point x="392.90909090909093" y="1335.3333333333333" type="line" smooth="yes"/>
      <point x="392.90909090909093" y="1533.939393939394"/>
      <point x="290.24242424242425" y="1636.0"/>
      <point x="90.60606060606061" y="1636.0" type="curve" smooth="yes"/>
      <point x="42.666666666666664" y="1636.0"/>
      <point x="-5.151515151515151" y="1631.6969696969697"/>
      <point x="-38.484848484848484" y="1625.3939393939395" type="curve"/>
      <point x="-38.484848484848484" y="1533.6363636363637" type="line"/>
      <point x="83.6969696969697" y="1533.6363636363637" type="line" smooth="yes"/>
      <point x="213.87878787878788" y="1533.6363636363637"/>
      <point x="276.72727272727275" y="1472.0"/>
      <point x="276.72727272727275" y="1342.7272727272727" type="curve" smooth="yes"/>
      <point x="276.72727272727275" y="842.4242424242424" type="line" smooth="yes"/>
      <point x="276.72727272727275" y="714.3030303030303"/>
      <point x="331.2121212121212" y="636.8484848484849"/>
      <point x="452.4848484848485" y="614.7878787878788" type="curve"/>
      <point x="452.4848484848485" y="632.2424242424242" type="line"/>
      <point x="331.2121212121212" y="610.1818181818181"/>
      <point x="276.72727272727275" y="532.7272727272727"/>
      <point x="276.72727272727275" y="404.6060606060606" type="curve" smooth="yes"/>
      <point x="276.72727272727275" y="-166.72727272727272" type="line" smooth="yes"/>
      <point x="276.72727272727275" y="-296.0"/>
      <point x="213.87878787878788" y="-357.6363636363636"/>
      <point x="83.6969696969697" y="-357.6363636363636" type="curve" smooth="yes"/>
      <point x="-38.484848484848484" y="-357.6363636363636" type="line"/>
      <point x="-38.484848484848484" y="-449.3939393939394" type="line"/>
      <point x="-5.151515151515151" y="-455.6969696969697"/>
      <point x="42.666666666666664" y="-460.0"/>
    </contour>
  </outline>
</glyph>
<glyph name="asciitilde" format="2">
  <advance width="1019.030303030303"/>
  <unicode hex="007E"/>
  <outline>
    <contour>
      <point x="685.1515151515151" y="647.3333333333334" type="curve" smooth="yes"/>
      <point x="767.3939393939394" y="647.3333333333334"/>
      <point x="837.6969696969697" y="679.030303030303"/>
      <point x="885.030303030303" y="739.1515151515151" type="curve"/>
      <point x="885.030303030303" y="854.4848484848485" type="line"/>
      <point x="827.3939393939394" y="781.5757575757576"/>
      <point x="762.4848484848485" y="746.1818181818181"/>
      <point x="684.060606060606" y="746.1818181818181" type="curve" smooth="yes"/>
      <point x="576.7272727272727" y="746.1818181818181"/>
      <point x="469.5151515151515" y="862.4848484848485"/>
      <point x="333.8787878787879" y="862.4848484848485" type="curve" smooth="yes"/>
      <point x="251.63636363636363" y="862.4848484848485"/>
      <point x="181.33333333333334" y="830.7878787878788"/>
      <point x="134.0" y="770.6666666666666" type="curve"/>
      <point x="134.0" y="655.3333333333334" type="line"/>
      <point x="191.63636363636363" y="728.2424242424242"/>
      <point x="256.54545454545456" y="763.6363636363636"/>
      <point x="334.969696969697" y="763.6363636363636" type="curve" smooth="yes"/>
      <point x="442.3030303030303" y="763.6363636363636"/>
      <point x="549.5151515151515" y="647.3333333333334"/>
    </contour>
  </outline>
</glyph>
<glyph name="exclamdown" format="2">
  <advance width="427.8787878787879"/>
  <unicode hex="00A1"/>
  <outline>
    <contour>
      <point x="176.0" y="732.4848484848485" type="line"/>
      <point x="151.87878787878788" y="176.06060606060606" type="line"/>
      <point x="151.87878787878788" y="-380.0" type="line"/>
      <point x="276.0" y="-380.0" type="line"/>
      <point x="276.0" y="176.06060606060606" type="line"/>
      <point x="252.4848484848485" y="732.4848484848485" type="line"/>
    </contour>
    <contour>
      <point x="213.93939393939394" y="1094.5454545454545" type="curve" smooth="yes"/>
      <point x="161.57575757575756" y="1094.5454545454545"/>
      <point x="124.06060606060606" y="1060.2424242424242"/>
      <point x="124.06060606060606" y="1005.2727272727273" type="curve" smooth="yes"/>
      <point x="124.06060606060606" y="950.3030303030303"/>
      <point x="160.96969696969697" y="914.3030303030303"/>
      <point x="213.93939393939394" y="914.3030303030303" type="curve" smooth="yes"/>
      <point x="266.90909090909093" y="914.3030303030303"/>
      <point x="303.8181818181818" y="950.9090909090909"/>
      <point x="303.8181818181818" y="1005.2727272727273" type="curve" smooth="yes"/>
      <point x="303.8181818181818" y="1059.6363636363637"/>
      <point x="266.3030303030303" y="1094.5454545454545"/>
    </contour>
  </outline>
</glyph>
<glyph name="cent" format="2">
  <advance width="718.7272727272727"/>
  <unicode hex="00A2"/>
  <outline>
    <contour>
      <point x="482.8484848484849" y="-18.606060606060606" type="curve" smooth="yes"/>
      <point x="554.060606060606" y="-18.606060606060606"/>
      <point x="626.7878787878788" y="-6.606060606060606"/>
      <point x="704.1818181818181" y="20.78787878787879" type="curve"/>
      <point x="704.1818181818181" y="125.75757575757575" type="line"/>
      <point x="624.4242424242424" y="97.57575757575758"/>
      <point x="559.1515151515151" y="85.87878787878788"/>
      <point x="502.969696969697" y="85.87878787878788" type="curve" smooth="yes"/>
      <point x="304.969696969697" y="85.87878787878788"/>
      <point x="202.72727272727272" y="191.6969696969697"/>
      <point x="202.72727272727272" y="545.5151515151515" type="curve" smooth="yes"/>
      <point x="202.72727272727272" y="892.9090909090909"/>
      <point x="313.45454545454544" y="994.8484848484849"/>
      <point x="537.1515151515151" y="994.8484848484849" type="curve" smooth="yes"/>
      <point x="580.8484848484849" y="994.8484848484849"/>
      <point x="642.1212121212121" y="989.1515151515151"/>
      <point x="704.1818181818181" y="972.969696969697" type="curve"/>
      <point x="704.1818181818181" y="1077.939393939394" type="line"/>
      <point x="645.2727272727273" y="1093.3333333333333"/>
      <point x="582.6666666666666" y="1099.3333333333333"/>
      <point x="529.030303030303" y="1099.3333333333333" type="curve" smooth="yes"/>
      <point x="239.93939393939394" y="1099.3333333333333"/>
      <point x="80.72727272727272" y="953.6969696969697"/>
      <point x="80.72727272727272" y="541.2121212121212" type="curve" smooth="yes"/>
      <point x="80.72727272727272" y="130.84848484848484"/>
      <point x="224.9090909090909" y="-18.606060606060606"/>
    </contour>
    <contour>
      <point x="426.6060606060606" y="-240.0" type="line"/>
      <point x="529.3939393939394" y="-240.0" type="line"/>
      <point x="529.3939393939394" y="9.090909090909092" type="line"/>
      <point x="426.6060606060606" y="9.090909090909092" type="line"/>
    </contour>
    <contour>
      <point x="426.6060606060606" y="1073.939393939394" type="line"/>
      <point x="529.3939393939394" y="1073.939393939394" type="line"/>
      <point x="529.3939393939394" y="1323.030303030303" type="line"/>
      <point x="426.6060606060606" y="1323.030303030303" type="line"/>
    </contour>
  </outline>
</glyph>
<glyph name="sterling" format="2">
  <advance width="1071.939393939394"/>
  <unicode hex="00A3"/>
  <outline>
    <contour>
      <point x="276.1818181818182" y="45.93939393939394" type="line"/>
      <point x="392.3636363636364" y="45.93939393939394" type="line"/>
      <point x="392.3636363636364" y="1083.878787878788" type="line" smooth="yes"/>
      <point x="392.3636363636364" y="1300.1818181818182"/>
      <point x="506.6666666666667" y="1392.6060606060605"/>
      <point x="741.3333333333334" y="1392.6060606060605" type="curve" smooth="yes"/>
      <point x="825.030303030303" y="1392.6060606060605"/>
      <point x="908.6666666666666" y="1382.3030303030303"/>
      <point x="993.7575757575758" y="1355.5151515151515" type="curve"/>
      <point x="993.7575757575758" y="1462.6060606060605" type="line"/>
      <point x="923.3333333333334" y="1486.0"/>
      <point x="821.8181818181819" y="1498.3030303030303"/>
      <point x="737.2727272727273" y="1498.3030303030303" type="curve" smooth="yes"/>
      <point x="436.8484848484849" y="1498.3030303030303"/>
      <point x="276.1818181818182" y="1358.7272727272727"/>
      <point x="276.1818181818182" y="1082.3636363636363" type="curve" smooth="yes"/>
    </contour>
    <contour>
      <point x="75.45454545454545" y="0.0" type="line"/>
      <point x="1024.3636363636363" y="0.0" type="line"/>
      <point x="1024.3636363636363" y="104.9090909090909" type="line"/>
      <point x="75.45454545454545" y="104.9090909090909" type="line"/>
    </contour>
    <contour>
      <point x="75.45454545454545" y="700.1212121212121" type="line"/>
      <point x="850.7272727272727" y="700.1212121212121" type="line"/>
      <point x="850.7272727272727" y="799.8787878787879" type="line"/>
      <point x="75.45454545454545" y="799.8787878787879" type="line"/>
    </contour>
  </outline>
</glyph>
<glyph name="yen" format="2">
  <advance width="1058.7272727272727"/>
  <unicode hex="00A5"/>
  <outline>
    <contour>
      <point x="470.969696969697" y="0.0" type="line"/>
      <point x="588.060606060606" y="0.0" type="line"/>
      <point x="588.060606060606" y="717.3939393939394" type="line"/>
      <point x="562.3636363636364" y="622.9090909090909" type="line"/>
      <point x="1060.2424242424242" y="1480.0" type="line"/>
      <point x="938.7878787878788" y="1480.0" type="line"/>
      <point x="511.8787878787879" y="746.1212121212121" type="line"/>
      <point x="550.7878787878788" y="746.1212121212121" type="line"/>
      <point x="125.87878787878788" y="1480.0" type="line"/>
      <point x="-2.424242424242424" y="1480.0" type="line"/>
      <point x="496.6666666666667" y="622.9090909090909" type="line"/>
      <point x="470.969696969697" y="718.3030303030303" type="line"/>
    </contour>
    <contour>
      <point x="172.4848484848485" y="309.6969696969697" type="line"/>
      <point x="886.5454545454545" y="309.6969696969697" type="line"/>
      <point x="886.5454545454545" y="399.45454545454544" type="line"/>
      <point x="172.4848484848485" y="399.45454545454544" type="line"/>
    </contour>
    <contour>
      <point x="172.4848484848485" y="648.5454545454545" type="line"/>
      <point x="886.5454545454545" y="648.5454545454545" type="line"/>
      <point x="886.5454545454545" y="738.3030303030303" type="line"/>
      <point x="172.4848484848485" y="738.3030303030303" type="line"/>
    </contour>
  </outline>
</glyph>
<glyph name="brokenbar" format="2">
  <advance width="414.1818181818182"/>
  <unicode hex="00A6"/>
  <outline>
    <contour>
      <point x="152.4848484848485" y="836.0" type="line"/>
      <point x="261.6969696969697" y="836.0" type="line"/>
      <point x="261.6969696969697" y="1616.0" type="line"/>
      <point x="152.4848484848485" y="1616.0" type="line"/>
    </contour>
    <contour>
      <point x="152.4848484848485" y="-440.0" type="line"/>
      <point x="261.6969696969697" y="-440.0" type="line"/>
      <point x="261.6969696969697" y="340.0" type="line"/>
      <point x="152.4848484848485" y="340.0" type="line"/>
    </contour>
  </outline>
</glyph>
<glyph name="section" format="2">
  <advance width="840.8484848484849"/>
  <unicode hex="00A7"/>
  <outline>
    <contour>
      <point x="358.7878787878788" y="-18.606060606060606" type="curve" smooth="yes"/>
      <point x="586.9090909090909" y="-18.606060606060606"/>
      <point x="719.3939393939394" y="96.24242424242425"/>
      <point x="719.3939393939394" y="287.3939393939394" type="curve" smooth="yes"/>
      <point x="719.3939393939394" y="430.1212121212121"/>
      <point x="659.3333333333334" y="523.6969696969697"/>
      <point x="472.4848484848485" y="575.2727272727273" type="curve" smooth="yes"/>
      <point x="364.72727272727275" y="604.3030303030303" type="line" smooth="yes"/>
      <point x="254.42424242424244" y="635.2727272727273"/>
      <point x="201.0909090909091" y="695.2121212121212"/>
      <point x="201.0909090909091" y="800.3030303030303" type="curve" smooth="yes"/>
      <point x="201.0909090909091" y="868.969696969697"/>
      <point x="232.96969696969697" y="927.8181818181819"/>
      <point x="293.3333333333333" y="969.3333333333334" type="curve"/>
      <point x="219.3939393939394" y="1026.6666666666667" type="line"/>
      <point x="145.75757575757575" y="973.1515151515151"/>
      <point x="98.42424242424242" y="891.939393939394"/>
      <point x="98.42424242424242" y="794.7878787878788" type="curve" smooth="yes"/>
      <point x="98.42424242424242" y="648.9090909090909"/>
      <point x="164.4848484848485" y="555.2121212121212"/>
      <point x="338.1212121212121" y="507.6363636363636" type="curve" smooth="yes"/>
      <point x="445.8787878787879" y="478.3030303030303" type="line" smooth="yes"/>
      <point x="550.8484848484849" y="448.24242424242425"/>
      <point x="607.2727272727273" y="397.2121212121212"/>
      <point x="607.2727272727273" y="281.27272727272725" type="curve" smooth="yes"/>
      <point x="607.2727272727273" y="151.93939393939394"/>
      <point x="520.1818181818181" y="80.12121212121212"/>
      <point x="358.1818181818182" y="80.12121212121212" type="curve" smooth="yes"/>
      <point x="283.6363636363636" y="80.12121212121212"/>
      <point x="210.1818181818182" y="92.42424242424242"/>
      <point x="122.48484848484848" y="119.81818181818181" type="curve"/>
      <point x="122.48484848484848" y="19.393939393939394" type="line"/>
      <point x="196.42424242424244" y="-4.909090909090909"/>
      <point x="276.3636363636364" y="-18.606060606060606"/>
    </contour>
    <contour>
      <point x="620.7272727272727" y="449.8181818181818" type="line"/>
      <point x="695.5757575757576" y="501.93939393939394"/>
      <point x="742.4242424242424" y="582.060606060606"/>
      <point x="742.4242424242424" y="688.9090909090909" type="curve" smooth="yes"/>
      <point x="742.4242424242424" y="836.7878787878788"/>
      <point x="682.3636363636364" y="932.969696969697"/>
      <point x="497.93939393939394" y="983.939393939394" type="curve" smooth="yes"/>
      <point x="390.1818181818182" y="1012.969696969697" type="line" smooth="yes"/>
      <point x="283.5151515151515" y="1043.030303030303"/>
      <point x="233.57575757575756" y="1098.8484848484848"/>
      <point x="233.57575757575756" y="1200.909090909091" type="curve" smooth="yes"/>
      <point x="233.57575757575756" y="1309.2727272727273"/>
      <point x="311.0909090909091" y="1397.5757575757575"/>
      <point x="489.3333333333333" y="1397.5757575757575" type="curve" smooth="yes"/>
      <point x="558.2424242424242" y="1397.5757575757575"/>
      <point x="615.2727272727273" y="1391.5757575757575"/>
      <point x="687.5757575757576" y="1373.878787878788" type="curve"/>
      <point x="687.5757575757576" y="1474.3030303030303" type="line"/>
      <point x="625.4545454545455" y="1488.3030303030303"/>
      <point x="561.5151515151515" y="1496.3030303030303"/>
      <point x="485.09090909090907" y="1496.3030303030303" type="curve" smooth="yes"/>
      <point x="249.21212121212122" y="1496.3030303030303"/>
      <point x="121.45454545454545" y="1369.2727272727273"/>
      <point x="121.45454545454545" y="1194.7878787878788" type="curve" smooth="yes"/>
      <point x="121.45454545454545" y="1055.5757575757575"/>
      <point x="187.21212121212122" y="963.8787878787879"/>
      <point x="363.57575757575756" y="916.0" type="curve" smooth="yes"/>
      <point x="471.3333333333333" y="886.969696969697" type="line" smooth="yes"/>
      <point x="579.939393939394" y="856.0"/>
      <point x="639.7575757575758" y="800.8484848484849"/>
      <point x="639.7575757575758" y="683.3939393939394" type="curve" smooth="yes"/>
      <point x="639.7575757575758" y="608.3636363636364"/>
      <point x="608.7878787878788" y="553.2121212121212"/>
      <point x="549.5757575757576" y="512.4848484848485" type="curve"/>
    </contour>
  </outline>
</glyph>
<glyph name="copyright" format="2">
  <advance width="1672.4848484848485"/>
  <unicode hex="00A9"/>
  <outline>
    <contour>
      <point x="836.2424242424242" y="-22.0" type="curve" smooth="yes"/>
      <point x="1283.1515151515152" y="-22.0"/>
      <point x="1581.1515151515152" y="282.0"/>
      <point x="1581.1515151515152" y="740.0" type="curve" smooth="yes"/>
      <point x="1581.1515151515152" y="1198.0"/>
      <point x="1283.1515151515152" y="1502.0"/>
      <point x="836.2424242424242" y="1502.0" type="curve" smooth="yes"/>
      <point x="389.3333333333333" y="1502.0"/>
      <point x="91.33333333333333" y="1198.0"/>
      <point x="91.33333333333333" y="740.0" type="curve" smooth="yes"/>
      <point x="91.33333333333333" y="282.0"/>
      <point x="389.3333333333333" y="-22.0"/>
    </contour>
    <contour>
      <point x="875.6969696969697" y="324.0" type="curve" smooth="yes"/>
      <point x="954.3030303030303" y="324.0"/>
      <point x="1026.3030303030303" y="336.0"/>
      <point x="1091.5757575757575" y="364.1818181818182" type="curve"/>
      <point x="1091.5757575757575" y="458.06060606060606" type="line"/>
      <point x="1010.1818181818181" y="428.1818181818182"/>
      <point x="942.7272727272727" y="418.7878787878788"/>
      <point x="885.030303030303" y="418.7878787878788" type="curve" smooth="yes"/>
      <point x="701.7575757575758" y="418.7878787878788"/>
      <point x="588.8484848484849" y="520.3030303030303"/>
      <point x="588.8484848484849" y="737.0909090909091" type="curve" smooth="yes"/>
      <point x="588.8484848484849" y="949.0909090909091"/>
      <point x="700.8484848484849" y="1049.2121212121212"/>
      <point x="905.5151515151515" y="1049.2121212121212" type="curve" smooth="yes"/>
      <point x="973.3939393939394" y="1049.2121212121212"/>
      <point x="1029.878787878788" y="1039.8181818181818"/>
      <point x="1091.5757575757575" y="1023.030303030303" type="curve"/>
      <point x="1091.5757575757575" y="1116.909090909091" type="line"/>
      <point x="1028.7878787878788" y="1136.0"/>
      <point x="968.4848484848485" y="1144.0"/>
      <point x="899.5757575757576" y="1144.0" type="curve" smooth="yes"/>
      <point x="633.1515151515151" y="1144.0"/>
      <point x="482.3030303030303" y="995.3939393939394"/>
      <point x="482.3030303030303" y="733.6969696969697" type="curve" smooth="yes"/>
      <point x="482.3030303030303" y="463.8181818181818"/>
      <point x="639.3333333333334" y="324.0"/>
    </contour>
    <contour>
      <point x="836.2424242424242" y="67.81818181818181" type="curve" smooth="yes"/>
      <point x="440.54545454545456" y="67.81818181818181"/>
      <point x="182.66666666666666" y="333.8181818181818"/>
      <point x="182.66666666666666" y="740.0" type="curve" smooth="yes"/>
      <point x="182.66666666666666" y="1146.1818181818182"/>
      <point x="440.54545454545456" y="1412.1818181818182"/>
      <point x="836.2424242424242" y="1412.1818181818182" type="curve" smooth="yes"/>
      <point x="1231.939393939394" y="1412.1818181818182"/>
      <point x="1489.8181818181818" y="1146.1818181818182"/>
      <point x="1489.8181818181818" y="740.0" type="curve" smooth="yes"/>
      <point x="1489.8181818181818" y="333.8181818181818"/>
      <point x="1231.939393939394" y="67.81818181818181"/>
    </contour>
  </outline>
</glyph>
<glyph name="ordfeminine" format="2">
  <advance width="734.4848484848485"/>
  <unicode hex="00AA"/>
  <outline>
    <contour>
      <point x="298.24242424242425" y="595.3939393939394" type="curve" smooth="yes"/>
      <point x="391.8181818181818" y="595.3939393939394"/>
      <point x="474.0" y="631.5757575757576"/>
      <point x="526.969696969697" y="706.4848484848485" type="curve"/>
      <point x="534.4848484848485" y="706.4848484848485" type="line"/>
      <point x="543.5151515151515" y="610.0" type="line"/>
      <point x="634.969696969697" y="610.0" type="line"/>
      <point x="634.969696969697" y="1195.1515151515152" type="line" smooth="yes"/>
      <point x="634.969696969697" y="1418.3636363636363"/>
      <point x="532.7272727272727" y="1493.5151515151515"/>
      <point x="332.3636363636364" y="1493.5151515151515" type="curve" smooth="yes"/>
      <point x="260.1212121212121" y="1493.5151515151515"/>
      <point x="172.78787878787878" y="1479.8181818181818"/>
      <point x="107.15151515151516" y="1456.4242424242425" type="curve"/>
      <point x="107.15151515151516" y="1360.6060606060605" type="line"/>
      <point x="181.63636363636363" y="1385.3939393939395"/>
      <point x="255.63636363636363" y="1398.7878787878788"/>
      <point x="316.8484848484849" y="1398.7878787878788" type="curve" smooth="yes"/>
      <point x="457.5151515151515" y="1398.7878787878788"/>
      <point x="527.3333333333334" y="1353.5151515151515"/>
      <point x="527.3333333333334" y="1203.3939393939395" type="curve" smooth="yes"/>
      <point x="527.3333333333334" y="799.8787878787879" type="line"/>
      <point x="472.1212121212121" y="714.7272727272727"/>
      <point x="394.24242424242425" y="685.8787878787879"/>
      <point x="328.8484848484849" y="685.8787878787879" type="curve" smooth="yes"/>
      <point x="225.57575757575756" y="685.8787878787879"/>
      <point x="165.33333333333334" y="737.8181818181819"/>
      <point x="165.33333333333334" y="845.5151515151515" type="curve" smooth="yes"/>
      <point x="165.33333333333334" y="945.2121212121212"/>
      <point x="225.27272727272728" y="999.1515151515151"/>
      <point x="356.72727272727275" y="1011.3333333333334" type="curve" smooth="yes"/>
      <point x="574.3030303030303" y="1032.0" type="line"/>
      <point x="559.6363636363636" y="1110.1818181818182" type="line"/>
      <point x="349.45454545454544" y="1089.2121212121212" type="line" smooth="yes"/>
      <point x="143.93939393939394" y="1070.4242424242425"/>
      <point x="55.515151515151516" y="982.9090909090909"/>
      <point x="55.515151515151516" y="830.8484848484849" type="curve" smooth="yes"/>
      <point x="55.515151515151516" y="685.3333333333334"/>
      <point x="154.72727272727272" y="595.3939393939394"/>
    </contour>
  </outline>
</glyph>
<glyph name="guillemetleft" format="2">
  <advance width="778.1212121212121"/>
  <unicode hex="00AB"/>
  <outline>
    <contour>
      <point x="291.93939393939394" y="138.4848484848485" type="line"/>
      <point x="407.2121212121212" y="138.4848484848485" type="line"/>
      <point x="217.6969696969697" y="561.5151515151515" type="line"/>
      <point x="407.2121212121212" y="984.5454545454545" type="line"/>
      <point x="291.93939393939394" y="984.5454545454545" type="line"/>
      <point x="102.42424242424242" y="561.5151515151515" type="line"/>
    </contour>
    <contour>
      <point x="600.4242424242424" y="138.4848484848485" type="line"/>
      <point x="715.6969696969697" y="138.4848484848485" type="line"/>
      <point x="526.1818181818182" y="561.5151515151515" type="line"/>
      <point x="715.6969696969697" y="984.5454545454545" type="line"/>
      <point x="600.4242424242424" y="984.5454545454545" type="line"/>
      <point x="410.90909090909093" y="561.5151515151515" type="line"/>
    </contour>
  </outline>
</glyph>
<glyph name="logicalnot" format="2">
  <advance width="1240.0"/>
  <unicode hex="00AC"/>
  <outline>
    <contour>
      <point x="1010.1212121212121" y="191.6969696969697" type="line"/>
      <point x="1115.090909090909" y="191.6969696969697" type="line"/>
      <point x="1115.090909090909" y="809.8787878787879" type="line"/>
      <point x="134.0" y="809.8787878787879" type="line"/>
      <point x="134.0" y="710.1212121212121" type="line"/>
      <point x="1010.1212121212121" y="710.1212121212121" type="line"/>
    </contour>
  </outline>
</glyph>
<glyph name="softhyphen" format="2">
  <advance width="689.030303030303"/>
  <unicode hex="00AD"/>
  <outline>
    <contour>
      <point x="134.0" y="510.72727272727275" type="line"/>
      <point x="555.030303030303" y="510.72727272727275" type="line"/>
      <point x="555.030303030303" y="612.3030303030303" type="line"/>
      <point x="134.0" y="612.3030303030303" type="line"/>
    </contour>
  </outline>
</glyph>
<glyph name="registered" format="2">
  <advance width="1468.0"/>
  <unicode hex="00AE"/>
  <outline>
    <contour>
      <point x="734.0" y="268.0" type="curve" smooth="yes"/>
      <point x="1096.0" y="268.0"/>
      <point x="1344.0" y="518.0"/>
      <point x="1344.0" y="882.0" type="curve" smooth="yes"/>
      <point x="1344.0" y="1246.0"/>
      <point x="1096.0" y="1498.0"/>
      <point x="734.0" y="1498.0" type="curve" smooth="yes"/>
      <point x="372.0" y="1498.0"/>
      <point x="124.0" y="1246.0"/>
      <point x="124.0" y="882.0" type="curve" smooth="yes"/>
      <point x="124.0" y="518.0"/>
      <point x="372.0" y="268.0"/>
    </contour>
    <contour>
      <point x="901.0909090909091" y="600.0" type="line"/>
      <point x="993.1515151515151" y="600.0" type="line"/>
      <point x="820.7878787878788" y="853.939393939394" type="line"/>
      <point x="745.030303030303" y="827.939393939394" type="line"/>
    </contour>
    <contour>
      <point x="734.0" y="347.6363636363636" type="curve" smooth="yes"/>
      <point x="415.09090909090907" y="347.6363636363636"/>
      <point x="207.15151515151516" y="558.1818181818181"/>
      <point x="207.15151515151516" y="882.0" type="curve" smooth="yes"/>
      <point x="207.15151515151516" y="1206.121212121212"/>
      <point x="415.09090909090907" y="1418.3636363636363"/>
      <point x="734.0" y="1418.3636363636363" type="curve" smooth="yes"/>
      <point x="1052.909090909091" y="1418.3636363636363"/>
      <point x="1260.8484848484848" y="1206.121212121212"/>
      <point x="1260.8484848484848" y="882.0" type="curve" smooth="yes"/>
      <point x="1260.8484848484848" y="558.1818181818181"/>
      <point x="1052.909090909091" y="347.6363636363636"/>
    </contour>
    <contour>
      <point x="523.8787878787879" y="600.0" type="line"/>
      <point x="605.030303030303" y="600.0" type="line"/>
      <point x="605.939393939394" y="819.939393939394" type="line"/>
      <point x="720.9090909090909" y="819.939393939394" type="line" smooth="yes"/>
      <point x="885.6363636363636" y="819.939393939394"/>
      <point x="967.939393939394" y="885.6363636363636"/>
      <point x="967.939393939394" y="1004.969696969697" type="curve" smooth="yes"/>
      <point x="967.939393939394" y="1124.3030303030303"/>
      <point x="883.6363636363636" y="1192.0"/>
      <point x="720.9090909090909" y="1192.0" type="curve" smooth="yes"/>
      <point x="523.8787878787879" y="1192.0" type="line"/>
    </contour>
    <contour>
      <point x="605.939393939394" y="892.5454545454545" type="line"/>
      <point x="605.939393939394" y="1119.3939393939395" type="line"/>
      <point x="735.030303030303" y="1119.3939393939395" type="line" smooth="yes"/>
      <point x="837.3333333333334" y="1119.3939393939395"/>
      <point x="887.3939393939394" y="1081.8181818181818"/>
      <point x="887.3939393939394" y="1004.969696969697" type="curve" smooth="yes"/>
      <point x="887.3939393939394" y="928.1212121212121"/>
      <point x="839.3333333333334" y="892.5454545454545"/>
      <point x="735.030303030303" y="892.5454545454545" type="curve" smooth="yes"/>
    </contour>
  </outline>
</glyph>
<glyph name="macron" format="2">
  <advance width="860.6060606060606"/>
  <unicode hex="00AF"/>
  <anchor x="430.3030303030303" y="1200.0" name="_top"/>
  <anchor x="430.3030303030303" y="1565.090909090909" name="top"/>
  <outline>
    <contour>
      <point x="164.24242424242425" y="1379.1515151515152" type="line"/>
      <point x="696.3636363636364" y="1379.1515151515152" type="line"/>
      <point x="696.3636363636364" y="1465.6363636363637" type="line"/>
      <point x="164.24242424242425" y="1465.6363636363637" type="line"/>
    </contour>
  </outline>
</glyph>
<glyph name="degree" format="2">
  <advance width="911.3939393939394"/>
  <unicode hex="00B0"/>
  <outline>
    <contour>
      <point x="455.6969696969697" y="835.3333333333334" type="curve" smooth="yes"/>
      <point x="648.8484848484849" y="835.3333333333334"/>
      <point x="787.3939393939394" y="974.969696969697"/>
      <point x="787.3939393939394" y="1166.121212121212" type="curve" smooth="yes"/>
      <point x="787.3939393939394" y="1357.2727272727273"/>
      <point x="648.8484848484849" y="1496.6060606060605"/>
      <point x="455.6969696969697" y="1496.6060606060605" type="curve" smooth="yes"/>
      <point x="262.54545454545456" y="1496.6060606060605"/>
      <point x="124.0" y="1357.2727272727273"/>
      <point x="124.0" y="1166.121212121212" type="curve" smooth="yes"/>
      <point x="124.0" y="974.969696969697"/>
      <point x="262.54545454545456" y="835.3333333333334"/>
    </contour>
    <contour>
      <point x="455.6969696969697" y="923.8787878787879" type="curve" smooth="yes"/>
      <point x="317.6969696969697" y="923.8787878787879"/>
      <point x="218.36363636363637" y="1017.5151515151515"/>
      <point x="218.36363636363637" y="1166.121212121212" type="curve" smooth="yes"/>
      <point x="218.36363636363637" y="1314.7272727272727"/>
      <point x="318.0" y="1408.060606060606"/>
      <point x="455.6969696969697" y="1408.060606060606" type="curve" smooth="yes"/>
      <point x="593.3939393939394" y="1408.060606060606"/>
      <point x="693.030303030303" y="1314.7272727272727"/>
      <point x="693.030303030303" y="1166.121212121212" type="curve" smooth="yes"/>
      <point x="693.030303030303" y="1017.5151515151515"/>
      <point x="593.6969696969697" y="923.8787878787879"/>
    </contour>
  </outline>
</glyph>
<glyph name="plusminus" format="2">
  <advance width="1019.030303030303"/>
  <unicode hex="00B1"/>
  <outline>
    <contour>
      <point x="457.030303030303" y="326.6060606060606" type="line"/>
      <point x="562.0" y="326.6060606060606" type="line"/>
      <point x="562.0" y="667.8181818181819" type="line"/>
      <point x="885.030303030303" y="667.8181818181819" type="line"/>
      <point x="885.030303030303" y="767.5757575757576" type="line"/>
      <point x="562.0" y="767.5757575757576" type="line"/>
      <point x="562.0" y="1108.7878787878788" type="line"/>
      <point x="457.030303030303" y="1108.7878787878788" type="line"/>
      <point x="457.030303030303" y="767.5757575757576" type="line"/>
      <point x="134.0" y="767.5757575757576" type="line"/>
      <point x="134.0" y="667.8181818181819" type="line"/>
      <point x="457.030303030303" y="667.8181818181819" type="line"/>
    </contour>
    <contour>
      <point x="134.0" y="0.30303030303030304" type="line"/>
      <point x="885.030303030303" y="0.30303030303030304" type="line"/>
      <point x="885.030303030303" y="100.06060606060606" type="line"/>
      <point x="134.0" y="100.06060606060606" type="line"/>
    </contour>
  </outline>
</glyph>
<glyph name="threesuperior" format="2">
  <advance width="701.2121212121212"/>
  <unicode hex="00B3"/>
  <outline>
    <contour>
      <point x="289.6363636363636" y="-148.3030303030303" type="curve" smooth="yes"/>
      <point x="492.06060606060606" y="-148.3030303030303"/>
      <point x="617.8181818181819" y="-50.78787878787879"/>
      <point x="617.8181818181819" y="127.33333333333333" type="curve" smooth="yes"/>
      <point x="617.8181818181819" y="272.3030303030303"/>
      <point x="533.4545454545455" y="366.7878787878788"/>
      <point x="372.0" y="390.4848484848485" type="curve"/>
      <point x="372.0" y="377.3939393939394" type="line"/>
      <point x="508.8484848484849" y="406.4848484848485"/>
      <point x="586.4242424242424" y="499.27272727272725"/>
      <point x="586.4242424242424" y="626.3636363636364" type="curve" smooth="yes"/>
      <point x="586.4242424242424" y="788.4848484848485"/>
      <point x="483.27272727272725" y="876.3030303030303"/>
      <point x="290.6666666666667" y="876.3030303030303" type="curve" smooth="yes"/>
      <point x="220.24242424242425" y="876.3030303030303"/>
      <point x="140.6060606060606" y="864.0"/>
      <point x="90.18181818181819" y="840.6060606060606" type="curve"/>
      <point x="90.18181818181819" y="751.7575757575758" type="line"/>
      <point x="149.57575757575756" y="777.1515151515151"/>
      <point x="212.6060606060606" y="789.1515151515151"/>
      <point x="282.0" y="789.1515151515151" type="curve" smooth="yes"/>
      <point x="419.6363636363636" y="789.1515151515151"/>
      <point x="488.4848484848485" y="734.3030303030303"/>
      <point x="488.4848484848485" y="619.2121212121212" type="curve" smooth="yes"/>
      <point x="488.4848484848485" y="499.6363636363636"/>
      <point x="400.4848484848485" y="422.1212121212121"/>
      <point x="231.33333333333334" y="422.1212121212121" type="curve" smooth="yes"/>
      <point x="179.15151515151516" y="422.1212121212121" type="line"/>
      <point x="179.15151515151516" y="332.3636363636364" type="line"/>
      <point x="269.27272727272725" y="332.3636363636364" type="line" smooth="yes"/>
      <point x="442.54545454545456" y="332.3636363636364"/>
      <point x="519.8787878787879" y="255.45454545454547"/>
      <point x="519.8787878787879" y="132.36363636363637" type="curve" smooth="yes"/>
      <point x="519.8787878787879" y="2.4848484848484844"/>
      <point x="432.3636363636364" y="-61.151515151515156"/>
      <point x="286.1212121212121" y="-61.151515151515156" type="curve" smooth="yes"/>
      <point x="218.42424242424244" y="-61.151515151515156"/>
      <point x="142.0" y="-49.45454545454545"/>
      <point x="73.6969696969697" y="-24.666666666666664" type="curve"/>
      <point x="73.6969696969697" y="-113.51515151515152" type="line"/>
      <point x="139.5151515151515" y="-136.6060606060606"/>
      <point x="211.63636363636363" y="-148.3030303030303"/>
    </contour>
  </outline>
</glyph>
<glyph name="acute" format="2">
  <advance width="860.6060606060606"/>
  <unicode hex="00B4"/>
  <anchor x="430.3030303030303" y="1200.0" name="_top"/>
  <anchor x="430.3030303030303" y="1571.1515151515152" name="top"/>
  <outline>
    <contour>
      <point x="381.09090909090907" y="1257.3333333333333" type="line"/>
      <point x="479.5151515151515" y="1257.3333333333333" type="line"/>
      <point x="658.060606060606" y="1616.0" type="line"/>
      <point x="538.1818181818181" y="1616.0" type="line"/>
    </contour>
  </outline>
</glyph>
<glyph name="paragraph" format="2">
  <advance width="1078.8484848484848"/>
  <unicode hex="00B6"/>
  <outline>
    <contour>
      <point x="602.7878787878788" y="0.0" type="line"/>
      <point x="701.0909090909091" y="0.0" type="line"/>
      <point x="701.0909090909091" y="1480.0" type="line"/>
      <point x="635.0909090909091" y="1488.6060606060605"/>
      <point x="559.7575757575758" y="1494.909090909091"/>
      <point x="480.8484848484849" y="1494.909090909091" type="curve" smooth="yes"/>
      <point x="215.63636363636363" y="1494.909090909091"/>
      <point x="85.03030303030303" y="1338.4848484848485"/>
      <point x="85.03030303030303" y="995.2121212121212" type="curve" smooth="yes"/>
      <point x="85.03030303030303" y="670.5454545454545"/>
      <point x="215.63636363636363" y="499.2121212121212"/>
      <point x="495.27272727272725" y="499.2121212121212" type="curve" smooth="yes"/>
      <point x="534.5454545454545" y="499.2121212121212"/>
      <point x="563.8181818181819" y="500.90909090909093"/>
      <point x="602.7878787878788" y="504.3030303030303" type="curve"/>
    </contour>
    <contour>
      <point x="828.060606060606" y="0.0" type="line"/>
      <point x="926.3636363636364" y="0.0" type="line"/>
      <point x="926.3636363636364" y="1480.0" type="line"/>
      <point x="828.060606060606" y="1480.0" type="line"/>
    </contour>
  </outline>
</glyph>
<glyph name="periodcentered" format="2">
  <advance width="387.8787878787879"/>
  <unicode hex="00B7"/>
  <anchor x="193.93939393939394" y="560.0" name="_periodcentered"/>
  <outline>
    <contour>
      <point x="193.93939393939394" y="469.030303030303" type="curve" smooth="yes"/>
      <point x="246.3030303030303" y="469.030303030303"/>
      <point x="283.8181818181818" y="503.93939393939394"/>
      <point x="283.8181818181818" y="558.3030303030303" type="curve" smooth="yes"/>
      <point x="283.8181818181818" y="612.6666666666666"/>
      <point x="246.9090909090909" y="649.2727272727273"/>
      <point x="193.93939393939394" y="649.2727272727273" type="curve" smooth="yes"/>
      <point x="140.96969696969697" y="649.2727272727273"/>
      <point x="104.06060606060606" y="613.2727272727273"/>
      <point x="104.06060606060606" y="558.3030303030303" type="curve" smooth="yes"/>
      <point x="104.06060606060606" y="503.3333333333333"/>
      <point x="141.57575757575756" y="469.030303030303"/>
    </contour>
  </outline>
</glyph>
<glyph name="cedilla" format="2">
  <advance width="860.6060606060606"/>
  <unicode hex="00B8"/>
  <anchor x="430.3030303030303" y="0.0" name="_bottom"/>
  <outline>
    <contour>
      <point x="425.0909090909091" y="-409.09090909090907" type="curve" smooth="yes"/>
      <point x="544.7272727272727" y="-409.09090909090907"/>
      <point x="607.7575757575758" y="-348.06060606060606"/>
      <point x="607.7575757575758" y="-258.6060606060606" type="curve" smooth="yes"/>
      <point x="607.7575757575758" y="-165.15151515151516"/>
      <point x="547.3939393939394" y="-107.63636363636364"/>
      <point x="433.030303030303" y="-107.63636363636364" type="curve"/>
      <point x="471.8181818181818" y="-138.96969696969697" type="line"/>
      <point x="471.8181818181818" y="20.0" type="line"/>
      <point x="396.1212121212121" y="20.0" type="line"/>
      <point x="396.1212121212121" y="-166.12121212121212" type="line"/>
      <point x="424.54545454545456" y="-166.12121212121212" type="line" smooth="yes"/>
      <point x="493.3333333333333" y="-166.12121212121212"/>
      <point x="530.7272727272727" y="-194.9090909090909"/>
      <point x="530.7272727272727" y="-256.1818181818182" type="curve" smooth="yes"/>
      <point x="530.7272727272727" y="-312.6666666666667"/>
      <point x="497.3333333333333" y="-342.24242424242425"/>
      <point x="426.8484848484849" y="-342.24242424242425" type="curve" smooth="yes"/>
      <point x="382.06060606060606" y="-342.24242424242425"/>
      <point x="330.8484848484849" y="-334.24242424242425"/>
      <point x="277.1515151515151" y="-306.06060606060606" type="curve"/>
      <point x="277.1515151515151" y="-376.3030303030303" type="line"/>
      <point x="317.27272727272725" y="-397.3939393939394"/>
      <point x="374.3636363636364" y="-409.09090909090907"/>
    </contour>
  </outline>
</glyph>
<glyph name="onesuperior" format="2">
  <advance width="701.2121212121212"/>
  <unicode hex="00B9"/>
  <outline>
    <contour>
      <point x="339.2121212121212" y="-116.0" type="line"/>
      <point x="439.27272727272725" y="-116.0" type="line"/>
      <point x="439.27272727272725" y="868.0" type="line"/>
      <point x="378.8484848484849" y="868.0" type="line"/>
      <point x="132.9090909090909" y="685.6363636363636" type="line"/>
      <point x="132.9090909090909" y="585.3333333333334" type="line"/>
      <point x="378.8484848484849" y="767.6969696969697" type="line"/>
      <point x="339.2121212121212" y="788.4242424242424" type="line"/>
    </contour>
    <contour>
      <point x="139.27272727272728" y="-136.0" type="line"/>
      <point x="629.5151515151515" y="-136.0" type="line"/>
      <point x="629.5151515151515" y="-44.60606060606061" type="line"/>
      <point x="139.27272727272728" y="-44.60606060606061" type="line"/>
    </contour>
  </outline>
</glyph>
<glyph name="ordmasculine" format="2">
  <advance width="782.4848484848485"/>
  <unicode hex="00BA"/>
  <outline>
    <contour>
      <point x="391.3939393939394" y="595.3939393939394" type="curve" smooth="yes"/>
      <point x="592.4242424242424" y="595.3939393939394"/>
      <point x="721.7575757575758" y="726.060606060606"/>
      <point x="721.7575757575758" y="1045.6969696969697" type="curve" smooth="yes"/>
      <point x="721.7575757575758" y="1365.3333333333333"/>
      <point x="592.4242424242424" y="1493.5151515151515"/>
      <point x="391.3939393939394" y="1493.5151515151515" type="curve" smooth="yes"/>
      <point x="190.36363636363637" y="1493.5151515151515"/>
      <point x="60.72727272727273" y="1366.8484848484848"/>
      <point x="60.72727272727273" y="1045.6969696969697" type="curve" smooth="yes"/>
      <point x="60.72727272727273" y="724.5454545454545"/>
      <point x="190.36363636363637" y="595.3939393939394"/>
    </contour>
    <contour>
      <point x="391.3939393939394" y="686.4848484848485" type="curve" smooth="yes"/>
      <point x="258.6666666666667" y="686.4848484848485"/>
      <point x="172.66666666666666" y="764.1818181818181"/>
      <point x="172.66666666666666" y="1045.6969696969697" type="curve" smooth="yes"/>
      <point x="172.66666666666666" y="1327.5151515151515"/>
      <point x="258.6666666666667" y="1402.4242424242425"/>
      <point x="391.3939393939394" y="1402.4242424242425" type="curve" smooth="yes"/>
      <point x="524.1212121212121" y="1402.4242424242425"/>
      <point x="609.8181818181819" y="1327.5151515151515"/>
      <point x="609.8181818181819" y="1045.6969696969697" type="curve" smooth="yes"/>
      <point x="609.8181818181819" y="764.1818181818181"/>
      <point x="524.1212121212121" y="686.4848484848485"/>
    </contour>
  </outline>
</glyph>
<glyph name="guillemetright" format="2">
  <advance width="778.1212121212121"/>
  <unicode hex="00BB"/>
  <outline>
    <contour>
      <point x="62.42424242424242" y="138.4848484848485" type="line"/>
      <point x="177.6969696969697" y="138.4848484848485" type="line"/>
      <point x="367.2121212121212" y="561.5151515151515" type="line"/>
      <point x="177.6969696969697" y="984.5454545454545" type="line"/>
      <point x="62.42424242424242" y="984.5454545454545" type="line"/>
      <point x="251.93939393939394" y="561.5151515151515" type="line"/>
    </contour>
    <contour>
      <point x="370.90909090909093" y="138.4848484848485" type="line"/>
      <point x="486.1818181818182" y="138.4848484848485" type="line"/>
      <point x="675.6969696969697" y="561.5151515151515" type="line"/>
      <point x="486.1818181818182" y="984.5454545454545" type="line"/>
      <point x="370.90909090909093" y="984.5454545454545" type="line"/>
      <point x="560.4242424242424" y="561.5151515151515" type="line"/>
    </contour>
  </outline>
</glyph>
<glyph name="onequarter" format="2">
  <advance width="1610.969696969697"/>
  <unicode hex="00BC"/>
  <outline>
    <contour>
      <point x="339.2121212121212" y="636.0" type="line"/>
      <point x="439.27272727272725" y="636.0" type="line"/>
      <point x="439.27272727272725" y="1620.0" type="line"/>
      <point x="378.8484848484849" y="1620.0" type="line"/>
      <point x="132.9090909090909" y="1437.6363636363637" type="line"/>
      <point x="132.9090909090909" y="1337.3333333333333" type="line"/>
      <point x="378.8484848484849" y="1519.6969696969697" type="line"/>
      <point x="339.2121212121212" y="1540.4242424242425" type="line"/>
    </contour>
    <contour>
      <point x="139.27272727272728" y="616.0" type="line"/>
      <point x="629.5151515151515" y="616.0" type="line"/>
      <point x="629.5151515151515" y="707.3939393939394" type="line"/>
      <point x="139.27272727272728" y="707.3939393939394" type="line"/>
    </contour>
    <contour>
      <point x="393.6363636363636" y="-136.0" type="line"/>
      <point x="497.5151515151515" y="-136.0" type="line"/>
      <point x="1217.3333333333333" y="1616.0" type="line"/>
      <point x="1113.4545454545455" y="1616.0" type="line"/>
    </contour>
    <contour>
      <point x="942.2424242424242" y="105.6969696969697" type="line"/>
      <point x="1582.1818181818182" y="105.6969696969697" type="line"/>
      <point x="1582.1818181818182" y="190.54545454545456" type="line"/>
      <point x="1026.8484848484848" y="190.54545454545456" type="line"/>
      <point x="1043.878787878788" y="164.78787878787878" type="line"/>
      <point x="1375.7575757575758" y="864.0" type="line"/>
      <point x="1275.3333333333333" y="864.0" type="line"/>
      <point x="942.2424242424242" y="164.78787878787878" type="line"/>
    </contour>
    <contour>
      <point x="1362.7272727272727" y="-136.0" type="line"/>
      <point x="1454.7272727272727" y="-136.0" type="line"/>
      <point x="1454.7272727272727" y="526.0" type="line"/>
      <point x="1383.2121212121212" y="526.0" type="line"/>
      <point x="1362.7272727272727" y="190.54545454545456" type="line"/>
    </contour>
  </outline>
</glyph>
<glyph name="onehalf" format="2">
  <advance width="1610.969696969697"/>
  <unicode hex="00BD"/>
  <outline>
    <contour>
      <point x="339.2121212121212" y="636.0" type="line"/>
      <point x="439.27272727272725" y="636.0" type="line"/>
      <point x="439.27272727272725" y="1620.0" type="line"/>
      <point x="378.8484848484849" y="1620.0" type="line"/>
      <point x="132.9090909090909" y="1437.6363636363637" type="line"/>
      <point x="132.9090909090909" y="1337.3333333333333" type="line"/>
      <point x="378.8484848484849" y="1519.6969696969697" type="line"/>
      <point x="339.2121212121212" y="1540.4242424242425" type="line"/>
    </contour>
    <contour>
      <point x="139.27272727272728" y="616.0" type="line"/>
      <point x="629.5151515151515" y="616.0" type="line"/>
      <point x="629.5151515151515" y="707.3939393939394" type="line"/>
      <point x="139.27272727272728" y="707.3939393939394" type="line"/>
    </contour>
    <contour>
      <point x="393.6363636363636" y="-136.0" type="line"/>
      <point x="497.5151515151515" y="-136.0" type="line"/>
      <point x="1217.3333333333333" y="1616.0" type="line"/>
      <point x="1113.4545454545455" y="1616.0" type="line"/>
    </contour>
    <contour>
      <point x="1000.5454545454545" y="-136.0" type="line"/>
      <point x="1505.030303030303" y="-136.0" type="line"/>
      <point x="1505.030303030303" y="-44.60606060606061" type="line"/>
      <point x="1100.6666666666667" y="-44.60606060606061" type="line"/>
      <point x="1114.060606060606" y="-72.18181818181819" type="line"/>
      <point x="1342.4242424242425" y="277.45454545454544" type="line" smooth="yes"/>
      <point x="1437.5151515151515" y="422.6060606060606"/>
      <point x="1474.909090909091" y="517.2121212121212"/>
      <point x="1476.6060606060605" y="616.6060606060606" type="curve" smooth="yes"/>
      <point x="1478.3030303030303" y="801.8787878787879"/>
      <point x="1365.3333333333333" y="876.3030303030303"/>
      <point x="1187.2121212121212" y="876.3030303030303" type="curve" smooth="yes"/>
      <point x="1114.0" y="876.3030303030303"/>
      <point x="1039.7575757575758" y="864.0"/>
      <point x="988.2424242424242" y="840.6060606060606" type="curve"/>
      <point x="988.2424242424242" y="749.6363636363636" type="line"/>
      <point x="1045.6363636363637" y="774.7272727272727"/>
      <point x="1106.060606060606" y="786.7272727272727"/>
      <point x="1175.939393939394" y="786.7272727272727" type="curve" smooth="yes"/>
      <point x="1305.2121212121212" y="786.7272727272727"/>
      <point x="1375.1515151515152" y="738.8484848484849"/>
      <point x="1375.1515151515152" y="610.969696969697" type="curve" smooth="yes"/>
      <point x="1375.1515151515152" y="526.4242424242424"/>
      <point x="1338.3636363636363" y="443.45454545454544"/>
      <point x="1256.1818181818182" y="316.90909090909093" type="curve" smooth="yes"/>
      <point x="1000.5454545454545" y="-77.21212121212122" type="line"/>
    </contour>
  </outline>
</glyph>
<glyph name="questiondown" format="2">
  <advance width="783.030303030303"/>
  <unicode hex="00BF"/>
  <outline>
    <contour>
      <point x="481.8787878787879" y="747.8787878787879" type="line"/>
      <point x="405.3939393939394" y="747.8787878787879" type="line"/>
      <point x="392.3636363636364" y="389.3333333333333" type="line"/>
      <point x="145.33333333333334" y="278.42424242424244"/>
      <point x="55.45454545454545" y="152.0"/>
      <point x="55.45454545454545" y="-42.72727272727273" type="curve" smooth="yes"/>
      <point x="55.45454545454545" y="-269.8787878787879"/>
      <point x="198.12121212121212" y="-400.0"/>
      <point x="466.3636363636364" y="-400.0" type="curve" smooth="yes"/>
      <point x="565.3939393939394" y="-400.0"/>
      <point x="676.5454545454545" y="-380.0"/>
      <point x="747.5757575757576" y="-346.6060606060606" type="curve"/>
      <point x="747.5757575757576" y="-242.84848484848484" type="line"/>
      <point x="662.1818181818181" y="-279.6363636363636"/>
      <point x="574.2424242424242" y="-297.6363636363636"/>
      <point x="474.8484848484849" y="-297.6363636363636" type="curve" smooth="yes"/>
      <point x="272.24242424242425" y="-297.6363636363636"/>
      <point x="171.5151515151515" y="-209.5151515151515"/>
      <point x="171.5151515151515" y="-37.45454545454545" type="curve" smooth="yes"/>
      <point x="171.5151515151515" y="125.51515151515152"/>
      <point x="253.57575757575756" y="233.8181818181818"/>
      <point x="502.06060606060606" y="327.030303030303" type="curve"/>
    </contour>
    <contour>
      <point x="443.6363636363636" y="1094.5454545454545" type="curve" smooth="yes"/>
      <point x="389.57575757575756" y="1094.5454545454545"/>
      <point x="353.75757575757575" y="1057.939393939394"/>
      <point x="353.75757575757575" y="1006.1818181818181" type="curve" smooth="yes"/>
      <point x="353.75757575757575" y="952.7272727272727"/>
      <point x="390.6666666666667" y="916.1212121212121"/>
      <point x="443.6363636363636" y="916.1212121212121" type="curve" smooth="yes"/>
      <point x="496.6060606060606" y="916.1212121212121"/>
      <point x="533.5151515151515" y="952.1212121212121"/>
      <point x="533.5151515151515" y="1006.1818181818181" type="curve" smooth="yes"/>
      <point x="533.5151515151515" y="1058.5454545454545"/>
      <point x="496.0" y="1094.5454545454545"/>
    </contour>
  </outline>
</glyph>
<glyph name="Aacute" format="2">
  <advance width="1155.7575757575758"/>
  <unicode hex="00C1"/>
  <anchor x="578.7272727272727" y="1520.0" name="_top"/>
  <anchor x="578.7272727272727" y="0.0" name="bottom"/>
  <anchor x="1134.909090909091" y="0.0" name="ogonek"/>
  <anchor x="578.7272727272727" y="1520.0" name="top"/>
  <outline>
    <contour>
      <point x="20.848484848484848" y="0.0" type="line"/>
      <point x="139.5151515151515" y="0.0" type="line"/>
      <point x="589.3333333333334" y="1419.6969696969697" type="line"/>
      <point x="563.5151515151515" y="1419.6969696969697" type="line"/>
      <point x="1013.939393939394" y="0.0" type="line"/>
      <point x="1134.909090909091" y="0.0" type="line"/>
      <point x="658.9090909090909" y="1480.0" type="line"/>
      <point x="496.8484848484849" y="1480.0" type="line"/>
    </contour>
    <contour>
      <point x="246.0" y="500.1212121212121" type="line"/>
      <point x="909.4545454545455" y="500.1212121212121" type="line"/>
      <point x="881.5757575757576" y="606.1212121212121" type="line"/>
      <point x="273.8787878787879" y="606.1212121212121" type="line"/>
    </contour>
    <contour>
      <point x="528.9090909090909" y="1611.4545454545455" type="line"/>
      <point x="628.5454545454545" y="1611.4545454545455" type="line"/>
      <point x="783.7575757575758" y="1890.121212121212" type="line"/>
      <point x="662.060606060606" y="1890.121212121212" type="line"/>
    </contour>
  </outline>
</glyph>
<glyph name="Atilde" format="2">
  <advance width="1155.7575757575758"/>
  <unicode hex="00C3"/>
  <anchor x="578.7272727272727" y="1520.0" name="_top"/>
  <anchor x="578.7272727272727" y="0.0" name="bottom"/>
  <anchor x="1134.909090909091" y="0.0" name="ogonek"/>
  <anchor x="578.7272727272727" y="1520.0" name="top"/>
  <outline>
    <contour>
      <point x="20.848484848484848" y="0.0" type="line"/>
      <point x="139.5151515151515" y="0.0" type="line"/>
      <point x="589.3333333333334" y="1419.6969696969697" type="line"/>
      <point x="563.5151515151515" y="1419.6969696969697" type="line"/>
      <point x="1013.939393939394" y="0.0" type="line"/>
      <point x="1134.909090909091" y="0.0" type="line"/>
      <point x="658.9090909090909" y="1480.0" type="line"/>
      <point x="496.8484848484849" y="1480.0" type="line"/>
    </contour>
    <contour>
      <point x="246.0" y="500.1212121212121" type="line"/>
      <point x="909.4545454545455" y="500.1212121212121" type="line"/>
      <point x="881.5757575757576" y="606.1212121212121" type="line"/>
      <point x="273.8787878787879" y="606.1212121212121" type="line"/>
    </contour>
    <contour>
      <point x="713.0909090909091" y="1679.3333333333333" type="curve" smooth="yes"/>
      <point x="776.2424242424242" y="1679.3333333333333"/>
      <point x="824.3636363636364" y="1703.030303030303"/>
      <point x="858.0" y="1743.4545454545455" type="curve"/>
      <point x="858.0" y="1834.909090909091" type="line"/>
      <point x="816.3636363636364" y="1786.6060606060605"/>
      <point x="773.939393939394" y="1762.3030303030303"/>
      <point x="713.6969696969697" y="1762.3030303030303" type="curve" smooth="yes"/>
      <point x="626.8484848484849" y="1762.3030303030303"/>
      <point x="550.1212121212121" y="1840.909090909091"/>
      <point x="444.3636363636364" y="1840.909090909091" type="curve" smooth="yes"/>
      <point x="381.2121212121212" y="1840.909090909091"/>
      <point x="333.09090909090907" y="1816.909090909091"/>
      <point x="299.45454545454544" y="1776.4848484848485" type="curve"/>
      <point x="299.45454545454544" y="1685.030303030303" type="line"/>
      <point x="341.09090909090907" y="1733.3333333333333"/>
      <point x="383.5151515151515" y="1757.6363636363637"/>
      <point x="443.75757575757575" y="1757.6363636363637" type="curve" smooth="yes"/>
      <point x="530.6060606060606" y="1757.6363636363637"/>
      <point x="607.3333333333334" y="1679.3333333333333"/>
    </contour>
  </outline>
</glyph>
<glyph name="Adieresis" format="2">
  <advance width="1155.7575757575758"/>
  <unicode hex="00C4"/>
  <anchor x="578.7272727272727" y="1520.0" name="_top"/>
  <anchor x="578.7272727272727" y="0.0" name="bottom"/>
  <anchor x="1134.909090909091" y="0.0" name="ogonek"/>
  <anchor x="578.7272727272727" y="1520.0" name="top"/>
  <outline>
    <contour>
      <point x="20.848484848484848" y="0.0" type="line"/>
      <point x="139.5151515151515" y="0.0" type="line"/>
      <point x="589.3333333333334" y="1419.6969696969697" type="line"/>
      <point x="563.5151515151515" y="1419.6969696969697" type="line"/>
      <point x="1013.939393939394" y="0.0" type="line"/>
      <point x="1134.909090909091" y="0.0" type="line"/>
      <point x="658.9090909090909" y="1480.0" type="line"/>
      <point x="496.8484848484849" y="1480.0" type="line"/>
    </contour>
    <contour>
      <point x="246.0" y="500.1212121212121" type="line"/>
      <point x="909.4545454545455" y="500.1212121212121" type="line"/>
      <point x="881.5757575757576" y="606.1212121212121" type="line"/>
      <point x="273.8787878787879" y="606.1212121212121" type="line"/>
    </contour>
    <contour>
      <point x="769.3333333333334" y="1671.8181818181818" type="curve" smooth="yes"/>
      <point x="819.8787878787879" y="1671.8181818181818"/>
      <point x="853.4545454545455" y="1701.878787878788"/>
      <point x="853.4545454545455" y="1751.6969696969697" type="curve" smooth="yes"/>
      <point x="853.4545454545455" y="1801.5151515151515"/>
      <point x="819.8787878787879" y="1833.2727272727273"/>
      <point x="769.3333333333334" y="1833.2727272727273" type="curve" smooth="yes"/>
      <point x="718.7878787878788" y="1833.2727272727273"/>
      <point x="685.2121212121212" y="1801.5151515151515"/>
      <point x="685.2121212121212" y="1751.6969696969697" type="curve" smooth="yes"/>
      <point x="685.2121212121212" y="1701.878787878788"/>
      <point x="718.7878787878788" y="1671.8181818181818"/>
    </contour>
    <contour>
      <point x="388.1212121212121" y="1671.8181818181818" type="curve" smooth="yes"/>
      <point x="438.6666666666667" y="1671.8181818181818"/>
      <point x="472.24242424242425" y="1701.878787878788"/>
      <point x="472.24242424242425" y="1751.6969696969697" type="curve" smooth="yes"/>
      <point x="472.24242424242425" y="1801.5151515151515"/>
      <point x="438.6666666666667" y="1833.2727272727273"/>
      <point x="388.1212121212121" y="1833.2727272727273" type="curve" smooth="yes"/>
      <point x="337.57575757575756" y="1833.2727272727273"/>
      <point x="304.0" y="1801.5151515151515"/>
      <point x="304.0" y="1751.6969696969697" type="curve" smooth="yes"/>
      <point x="304.0" y="1701.878787878788"/>
      <point x="337.57575757575756" y="1671.8181818181818"/>
    </contour>
  </outline>
</glyph>
<glyph name="Aring" format="2">
  <advance width="1155.7575757575758"/>
  <unicode hex="00C5"/>
  <anchor x="582.1212121212121" y="1367.2727272727273" name="_top"/>
  <anchor x="578.7272727272727" y="0.0" name="bottom"/>
  <anchor x="1134.909090909091" y="0.0" name="ogonek"/>
  <anchor x="578.7272727272727" y="1520.0" name="top"/>
  <outline>
    <contour>
      <point x="20.848484848484848" y="0.0" type="line"/>
      <point x="139.5151515151515" y="0.0" type="line"/>
      <point x="589.3333333333334" y="1419.6969696969697" type="line"/>
      <point x="563.5151515151515" y="1419.6969696969697" type="line"/>
      <point x="1013.939393939394" y="0.0" type="line"/>
      <point x="1134.909090909091" y="0.0" type="line"/>
      <point x="658.9090909090909" y="1480.0" type="line"/>
      <point x="496.8484848484849" y="1480.0" type="line"/>
    </contour>
    <contour>
      <point x="246.0" y="500.1212121212121" type="line"/>
      <point x="909.4545454545455" y="500.1212121212121" type="line"/>
      <point x="881.5757575757576" y="606.1212121212121" type="line"/>
      <point x="273.8787878787879" y="606.1212121212121" type="line"/>
    </contour>
    <contour>
      <point x="582.1212121212121" y="1451.2121212121212" type="curve" smooth="yes"/>
      <point x="692.060606060606" y="1451.2121212121212"/>
      <point x="772.7878787878788" y="1531.3333333333333"/>
      <point x="772.7878787878788" y="1640.6666666666667" type="curve" smooth="yes"/>
      <point x="772.7878787878788" y="1750.0"/>
      <point x="692.060606060606" y="1830.121212121212"/>
      <point x="582.1212121212121" y="1830.121212121212" type="curve" smooth="yes"/>
      <point x="472.1818181818182" y="1830.121212121212"/>
      <point x="391.45454545454544" y="1750.0"/>
      <point x="391.45454545454544" y="1640.6666666666667" type="curve" smooth="yes"/>
      <point x="391.45454545454544" y="1531.3333333333333"/>
      <point x="472.1818181818182" y="1451.2121212121212"/>
    </contour>
    <contour>
      <point x="582.1212121212121" y="1516.2424242424242" type="curve" smooth="yes"/>
      <point x="510.6666666666667" y="1516.2424242424242"/>
      <point x="460.0" y="1563.5151515151515"/>
      <point x="460.0" y="1640.6666666666667" type="curve" smooth="yes"/>
      <point x="460.0" y="1717.8181818181818"/>
      <point x="510.6666666666667" y="1765.090909090909"/>
      <point x="582.1212121212121" y="1765.090909090909" type="curve" smooth="yes"/>
      <point x="653.5757575757576" y="1765.090909090909"/>
      <point x="704.2424242424242" y="1717.8181818181818"/>
      <point x="704.2424242424242" y="1640.6666666666667" type="curve" smooth="yes"/>
      <point x="704.2424242424242" y="1563.5151515151515"/>
      <point x="653.5757575757576" y="1516.2424242424242"/>
    </contour>
  </outline>
</glyph>
<glyph name="AE" format="2">
  <advance width="1590.8484848484848"/>
  <unicode hex="00C6"/>
  <anchor x="867.4545454545455" y="0.0" name="bottom"/>
  <anchor x="814.8484848484849" y="1520.0" name="top"/>
  <outline>
    <contour>
      <point x="20.848484848484848" y="0.0" type="line"/>
      <point x="140.42424242424244" y="0.0" type="line"/>
      <point x="588.7878787878788" y="1373.3939393939395" type="line"/>
      <point x="823.7575757575758" y="1373.3939393939395" type="line"/>
      <point x="823.7575757575758" y="1480.0" type="line"/>
      <point x="507.030303030303" y="1480.0" type="line"/>
    </contour>
    <contour>
      <point x="247.6969696969697" y="499.8181818181818" type="line"/>
      <point x="844.3030303030303" y="499.8181818181818" type="line"/>
      <point x="844.3030303030303" y="606.4242424242424" type="line"/>
      <point x="275.57575757575756" y="606.4242424242424" type="line"/>
    </contour>
    <contour>
      <point x="828.9090909090909" y="0.0" type="line"/>
      <point x="1553.2121212121212" y="0.0" type="line"/>
      <point x="1553.2121212121212" y="106.60606060606061" type="line"/>
      <point x="938.5454545454545" y="106.60606060606061" type="line"/>
      <point x="877.030303030303" y="1373.3939393939395" type="line"/>
      <point x="1543.2121212121212" y="1373.3939393939395" type="line"/>
      <point x="1543.2121212121212" y="1480.0" type="line"/>
      <point x="758.2424242424242" y="1480.0" type="line"/>
    </contour>
    <contour>
      <point x="872.6666666666666" y="706.7878787878788" type="line"/>
      <point x="1451.090909090909" y="706.7878787878788" type="line"/>
      <point x="1451.090909090909" y="813.3939393939394" type="line"/>
      <point x="872.6666666666666" y="813.3939393939394" type="line"/>
    </contour>
  </outline>
</glyph>
<glyph name="Ccedilla" format="2">
  <advance width="956.060606060606"/>
  <unicode hex="00C7"/>
  <anchor x="611.6363636363636" y="0.0" name="_bottom"/>
  <anchor x="611.6363636363636" y="0.0" name="bottom"/>
  <anchor x="603.1515151515151" y="1520.0" name="top"/>
  <outline>
    <contour>
      <point x="654.6060606060606" y="-18.303030303030305" type="curve" smooth="yes"/>
      <point x="760.3030303030303" y="-18.303030303030305"/>
      <point x="857.939393939394" y="3.090909090909091"/>
      <point x="935.6363636363636" y="31.393939393939394" type="curve"/>
      <point x="935.6363636363636" y="138.78787878787878" type="line"/>
      <point x="835.4545454545455" y="104.0"/>
      <point x="753.1515151515151" y="87.69696969696969"/>
      <point x="661.6969696969697" y="87.69696969696969" type="curve" smooth="yes"/>
      <point x="381.1515151515151" y="87.69696969696969"/>
      <point x="214.54545454545456" y="231.8181818181818"/>
      <point x="214.54545454545456" y="741.6969696969697" type="curve" smooth="yes"/>
      <point x="214.54545454545456" y="1238.1818181818182"/>
      <point x="375.57575757575756" y="1392.3030303030303"/>
      <point x="668.4848484848485" y="1392.3030303030303" type="curve" smooth="yes"/>
      <point x="757.5757575757576" y="1392.3030303030303"/>
      <point x="839.2727272727273" y="1383.6969696969697"/>
      <point x="935.6363636363636" y="1352.4242424242425" type="curve"/>
      <point x="935.6363636363636" y="1459.8181818181818" type="line"/>
      <point x="849.939393939394" y="1484.909090909091"/>
      <point x="757.3333333333334" y="1498.3030303030303"/>
      <point x="669.8181818181819" y="1498.3030303030303" type="curve" smooth="yes"/>
      <point x="304.54545454545456" y="1498.3030303030303"/>
      <point x="91.33333333333333" y="1296.4242424242425"/>
      <point x="91.33333333333333" y="737.6969696969697" type="curve" smooth="yes"/>
      <point x="91.33333333333333" y="169.15151515151516"/>
      <point x="307.8181818181818" y="-18.303030303030305"/>
    </contour>
    <contour>
      <point x="613.939393939394" y="-409.09090909090907" type="curve" smooth="yes"/>
      <point x="733.2121212121212" y="-409.09090909090907"/>
      <point x="808.1212121212121" y="-354.8484848484849"/>
      <point x="808.1212121212121" y="-256.90909090909093" type="curve" smooth="yes"/>
      <point x="808.1212121212121" y="-158.36363636363637"/>
      <point x="730.7878787878788" y="-105.93939393939394"/>
      <point x="618.4848484848485" y="-105.93939393939394" type="curve"/>
      <point x="645.3939393939394" y="-138.96969696969697" type="line"/>
      <point x="645.3939393939394" y="20.0" type="line"/>
      <point x="569.6969696969697" y="20.0" type="line"/>
      <point x="569.6969696969697" y="-166.12121212121212" type="line"/>
      <point x="608.3030303030303" y="-166.12121212121212" type="line" smooth="yes"/>
      <point x="682.6060606060606" y="-166.12121212121212"/>
      <point x="729.3939393939394" y="-193.21212121212122"/>
      <point x="729.3939393939394" y="-254.4848484848485" type="curve" smooth="yes"/>
      <point x="729.3939393939394" y="-316.06060606060606"/>
      <point x="683.2121212121212" y="-342.24242424242425"/>
      <point x="610.6060606060606" y="-342.24242424242425" type="curve" smooth="yes"/>
      <point x="559.5151515151515" y="-342.24242424242425"/>
      <point x="506.4848484848485" y="-332.54545454545456"/>
      <point x="439.2121212121212" y="-302.6666666666667" type="curve"/>
      <point x="439.2121212121212" y="-372.90909090909093" type="line"/>
      <point x="492.90909090909093" y="-397.3939393939394"/>
      <point x="555.2121212121212" y="-409.09090909090907"/>
    </contour>
  </outline>
</glyph>
<glyph name="Eacute" format="2">
  <advance width="973.5757575757576"/>
  <unicode hex="00C9"/>
  <anchor x="562.060606060606" y="1520.0" name="_top"/>
  <anchor x="562.060606060606" y="0.0" name="bottom"/>
  <anchor x="855.939393939394" y="0.0" name="ogonek"/>
  <anchor x="562.060606060606" y="1520.0" name="top"/>
  <anchor x="36.0" y="1480.0" name="topleft"/>
  <outline>
    <contour>
      <point x="152.4848484848485" y="0.0" type="line"/>
      <point x="935.939393939394" y="0.0" type="line"/>
      <point x="935.939393939394" y="106.60606060606061" type="line"/>
      <point x="268.6666666666667" y="106.60606060606061" type="line"/>
      <point x="268.6666666666667" y="1373.3939393939395" type="line"/>
      <point x="925.939393939394" y="1373.3939393939395" type="line"/>
      <point x="925.939393939394" y="1480.0" type="line"/>
      <point x="152.4848484848485" y="1480.0" type="line"/>
    </contour>
    <contour>
      <point x="245.5151515151515" y="706.7878787878788" type="line"/>
      <point x="833.8181818181819" y="706.7878787878788" type="line"/>
      <point x="833.8181818181819" y="813.3939393939394" type="line"/>
      <point x="245.5151515151515" y="813.3939393939394" type="line"/>
    </contour>
    <contour>
      <point x="512.2424242424242" y="1611.4545454545455" type="line"/>
      <point x="611.8787878787879" y="1611.4545454545455" type="line"/>
      <point x="767.0909090909091" y="1890.121212121212" type="line"/>
      <point x="645.3939393939394" y="1890.121212121212" type="line"/>
    </contour>
  </outline>
</glyph>
<glyph name="Ecircumflex" format="2">
  <advance width="973.5757575757576"/>
  <unicode hex="00CA"/>
  <anchor x="562.060606060606" y="1520.0" name="_top"/>
  <anchor x="562.060606060606" y="0.0" name="bottom"/>
  <anchor x="855.939393939394" y="0.0" name="ogonek"/>
  <anchor x="562.060606060606" y="1520.0" name="top"/>
  <anchor x="36.0" y="1480.0" name="topleft"/>
  <outline>
    <contour>
      <point x="152.4848484848485" y="0.0" type="line"/>
      <point x="935.939393939394" y="0.0" type="line"/>
      <point x="935.939393939394" y="106.60606060606061" type="line"/>
      <point x="268.6666666666667" y="106.60606060606061" type="line"/>
      <point x="268.6666666666667" y="1373.3939393939395" type="line"/>
      <point x="925.939393939394" y="1373.3939393939395" type="line"/>
      <point x="925.939393939394" y="1480.0" type="line"/>
      <point x="152.4848484848485" y="1480.0" type="line"/>
    </contour>
    <contour>
      <point x="245.5151515151515" y="706.7878787878788" type="line"/>
      <point x="833.8181818181819" y="706.7878787878788" type="line"/>
      <point x="833.8181818181819" y="813.3939393939394" type="line"/>
      <point x="245.5151515151515" y="813.3939393939394" type="line"/>
    </contour>
    <contour>
      <point x="309.8787878787879" y="1611.4545454545455" type="line"/>
      <point x="408.06060606060606" y="1611.4545454545455" type="line"/>
      <point x="572.1818181818181" y="1849.8181818181818" type="line"/>
      <point x="551.939393939394" y="1849.8181818181818" type="line"/>
      <point x="716.060606060606" y="1611.4545454545455" type="line"/>
      <point x="814.2424242424242" y="1611.4545454545455" type="line"/>
      <point x="618.8484848484849" y="1890.121212121212" type="line"/>
      <point x="505.27272727272725" y="1890.121212121212" type="line"/>
    </contour>
  </outline>
</glyph>
<glyph name="Edieresis" format="2">
  <advance width="973.5757575757576"/>
  <unicode hex="00CB"/>
  <anchor x="562.060606060606" y="1520.0" name="_top"/>
  <anchor x="562.060606060606" y="0.0" name="bottom"/>
  <anchor x="855.939393939394" y="0.0" name="ogonek"/>
  <anchor x="562.060606060606" y="1520.0" name="top"/>
  <anchor x="36.0" y="1480.0" name="topleft"/>
  <outline>
    <contour>
      <point x="152.4848484848485" y="0.0" type="line"/>
      <point x="935.939393939394" y="0.0" type="line"/>
      <point x="935.939393939394" y="106.60606060606061" type="line"/>
      <point x="268.6666666666667" y="106.60606060606061" type="line"/>
      <point x="268.6666666666667" y="1373.3939393939395" type="line"/>
      <point x="925.939393939394" y="1373.3939393939395" type="line"/>
      <point x="925.939393939394" y="1480.0" type="line"/>
      <point x="152.4848484848485" y="1480.0" type="line"/>
    </contour>
    <contour>
      <point x="245.5151515151515" y="706.7878787878788" type="line"/>
      <point x="833.8181818181819" y="706.7878787878788" type="line"/>
      <point x="833.8181818181819" y="813.3939393939394" type="line"/>
      <point x="245.5151515151515" y="813.3939393939394" type="line"/>
    </contour>
    <contour>
      <point x="752.6666666666666" y="1671.8181818181818" type="curve" smooth="yes"/>
      <point x="803.2121212121212" y="1671.8181818181818"/>
      <point x="836.7878787878788" y="1701.878787878788"/>
      <point x="836.7878787878788" y="1751.6969696969697" type="curve" smooth="yes"/>
      <point x="836.7878787878788" y="1801.5151515151515"/>
      <point x="803.2121212121212" y="1833.2727272727273"/>
      <point x="752.6666666666666" y="1833.2727272727273" type="curve" smooth="yes"/>
      <point x="702.1212121212121" y="1833.2727272727273"/>
      <point x="668.5454545454545" y="1801.5151515151515"/>
      <point x="668.5454545454545" y="1751.6969696969697" type="curve" smooth="yes"/>
      <point x="668.5454545454545" y="1701.878787878788"/>
      <point x="702.1212121212121" y="1671.8181818181818"/>
    </contour>
    <contour>
      <point x="371.45454545454544" y="1671.8181818181818" type="curve" smooth="yes"/>
      <point x="422.0" y="1671.8181818181818"/>
      <point x="455.57575757575756" y="1701.878787878788"/>
      <point x="455.57575757575756" y="1751.6969696969697" type="curve" smooth="yes"/>
      <point x="455.57575757575756" y="1801.5151515151515"/>
      <point x="422.0" y="1833.2727272727273"/>
      <point x="371.45454545454544" y="1833.2727272727273" type="curve" smooth="yes"/>
      <point x="320.90909090909093" y="1833.2727272727273"/>
      <point x="287.3333333333333" y="1801.5151515151515"/>
      <point x="287.3333333333333" y="1751.6969696969697" type="curve" smooth="yes"/>
      <point x="287.3333333333333" y="1701.878787878788"/>
      <point x="320.90909090909093" y="1671.8181818181818"/>
    </contour>
  </outline>
</glyph>
<glyph name="Igrave" format="2">
  <advance width="422.06060606060606"/>
  <unicode hex="00CC"/>
  <anchor x="211.03030303030303" y="1520.0" name="_top"/>
  <anchor x="211.03030303030303" y="0.0" name="bottom"/>
  <anchor x="269.57575757575756" y="0.0" name="ogonek"/>
  <anchor x="211.03030303030303" y="1520.0" name="top"/>
  <outline>
    <contour>
      <point x="152.4848484848485" y="0.0" type="line"/>
      <point x="269.57575757575756" y="0.0" type="line"/>
      <point x="269.57575757575756" y="1480.0" type="line"/>
      <point x="152.4848484848485" y="1480.0" type="line"/>
    </contour>
    <contour>
      <point x="161.21212121212122" y="1611.4545454545455" type="line"/>
      <point x="260.8484848484849" y="1611.4545454545455" type="line"/>
      <point x="127.6969696969697" y="1890.121212121212" type="line"/>
      <point x="6.0" y="1890.121212121212" type="line"/>
    </contour>
  </outline>
</glyph>
<glyph name="Icircumflex" format="2">
  <advance width="422.06060606060606"/>
  <unicode hex="00CE"/>
  <anchor x="211.03030303030303" y="1520.0" name="_top"/>
  <anchor x="211.03030303030303" y="0.0" name="bottom"/>
  <anchor x="269.57575757575756" y="0.0" name="ogonek"/>
  <anchor x="211.03030303030303" y="1520.0" name="top"/>
  <outline>
    <contour>
      <point x="152.4848484848485" y="0.0" type="line"/>
      <point x="269.57575757575756" y="0.0" type="line"/>
      <point x="269.57575757575756" y="1480.0" type="line"/>
      <point x="152.4848484848485" y="1480.0" type="line"/>
    </contour>
    <contour>
      <point x="-41.15151515151515" y="1611.4545454545455" type="line"/>
      <point x="57.03030303030303" y="1611.4545454545455" type="line"/>
      <point x="221.15151515151516" y="1849.8181818181818" type="line"/>
      <point x="200.9090909090909" y="1849.8181818181818" type="line"/>
      <point x="365.030303030303" y="1611.4545454545455" type="line"/>
      <point x="463.2121212121212" y="1611.4545454545455" type="line"/>
      <point x="267.8181818181818" y="1890.121212121212" type="line"/>
      <point x="154.24242424242425" y="1890.121212121212" type="line"/>
    </contour>
  </outline>
</glyph>
<glyph name="Idieresis" format="2">
  <advance width="422.06060606060606"/>
  <unicode hex="00CF"/>
  <anchor x="211.03030303030303" y="1520.0" name="_top"/>
  <anchor x="211.03030303030303" y="0.0" name="bottom"/>
  <anchor x="269.57575757575756" y="0.0" name="ogonek"/>
  <anchor x="211.03030303030303" y="1520.0" name="top"/>
  <outline>
    <contour>
      <point x="152.4848484848485" y="0.0" type="line"/>
      <point x="269.57575757575756" y="0.0" type="line"/>
      <point x="269.57575757575756" y="1480.0" type="line"/>
      <point x="152.4848484848485" y="1480.0" type="line"/>
    </contour>
    <contour>
      <point x="401.6363636363636" y="1671.8181818181818" type="curve" smooth="yes"/>
      <point x="452.1818181818182" y="1671.8181818181818"/>
      <point x="485.75757575757575" y="1701.878787878788"/>
      <point x="485.75757575757575" y="1751.6969696969697" type="curve" smooth="yes"/>
      <point x="485.75757575757575" y="1801.5151515151515"/>
      <point x="452.1818181818182" y="1833.2727272727273"/>
      <point x="401.6363636363636" y="1833.2727272727273" type="curve" smooth="yes"/>
      <point x="351.09090909090907" y="1833.2727272727273"/>
      <point x="317.5151515151515" y="1801.5151515151515"/>
      <point x="317.5151515151515" y="1751.6969696969697" type="curve" smooth="yes"/>
      <point x="317.5151515151515" y="1701.878787878788"/>
      <point x="351.09090909090907" y="1671.8181818181818"/>
    </contour>
    <contour>
      <point x="20.424242424242426" y="1671.8181818181818" type="curve" smooth="yes"/>
      <point x="70.96969696969697" y="1671.8181818181818"/>
      <point x="104.54545454545455" y="1701.878787878788"/>
      <point x="104.54545454545455" y="1751.6969696969697" type="curve" smooth="yes"/>
      <point x="104.54545454545455" y="1801.5151515151515"/>
      <point x="70.96969696969697" y="1833.2727272727273"/>
      <point x="20.424242424242426" y="1833.2727272727273" type="curve" smooth="yes"/>
      <point x="-30.12121212121212" y="1833.2727272727273"/>
      <point x="-63.6969696969697" y="1801.5151515151515"/>
      <point x="-63.6969696969697" y="1751.6969696969697" type="curve" smooth="yes"/>
      <point x="-63.6969696969697" y="1701.878787878788"/>
      <point x="-30.12121212121212" y="1671.8181818181818"/>
    </contour>
  </outline>
</glyph>
<glyph name="Ntilde" format="2">
  <advance width="1268.0"/>
  <unicode hex="00D1"/>
  <anchor x="634.0" y="1520.0" name="_top"/>
  <anchor x="634.0" y="0.0" name="bottom"/>
  <anchor x="634.0" y="1520.0" name="top"/>
  <outline>
    <contour>
      <point x="152.4848484848485" y="0.0" type="line"/>
      <point x="263.93939393939394" y="0.0" type="line"/>
      <point x="263.93939393939394" y="1345.7575757575758" type="line"/>
      <point x="228.0" y="1345.7575757575758" type="line"/>
      <point x="991.939393939394" y="0.0" type="line"/>
      <point x="1115.5151515151515" y="0.0" type="line"/>
      <point x="1115.5151515151515" y="1480.0" type="line"/>
      <point x="1004.060606060606" y="1480.0" type="line"/>
      <point x="1004.060606060606" y="134.24242424242425" type="line"/>
      <point x="1040.0" y="134.24242424242425" type="line"/>
      <point x="276.06060606060606" y="1480.0" type="line"/>
      <point x="152.4848484848485" y="1480.0" type="line"/>
    </contour>
    <contour>
      <point x="768.3636363636364" y="1679.3333333333333" type="curve" smooth="yes"/>
      <point x="831.5151515151515" y="1679.3333333333333"/>
      <point x="879.6363636363636" y="1703.030303030303"/>
      <point x="913.2727272727273" y="1743.4545454545455" type="curve"/>
      <point x="913.2727272727273" y="1834.909090909091" type="line"/>
      <point x="871.6363636363636" y="1786.6060606060605"/>
      <point x="829.2121212121212" y="1762.3030303030303"/>
      <point x="768.969696969697" y="1762.3030303030303" type="curve" smooth="yes"/>
      <point x="682.1212121212121" y="1762.3030303030303"/>
      <point x="605.3939393939394" y="1840.909090909091"/>
      <point x="499.6363636363636" y="1840.909090909091" type="curve" smooth="yes"/>
      <point x="436.4848484848485" y="1840.909090909091"/>
      <point x="388.3636363636364" y="1816.909090909091"/>
      <point x="354.72727272727275" y="1776.4848484848485" type="curve"/>
      <point x="354.72727272727275" y="1685.030303030303" type="line"/>
      <point x="396.3636363636364" y="1733.3333333333333"/>
      <point x="438.7878787878788" y="1757.6363636363637"/>
      <point x="499.030303030303" y="1757.6363636363637" type="curve" smooth="yes"/>
      <point x="585.8787878787879" y="1757.6363636363637"/>
      <point x="662.6060606060606" y="1679.3333333333333"/>
    </contour>
  </outline>
</glyph>
<glyph name="Otilde" format="2">
  <advance width="1199.1515151515152"/>
  <unicode hex="00D5"/>
  <anchor x="599.5757575757576" y="1520.0" name="_top"/>
  <anchor x="599.5757575757576" y="0.0" name="bottom"/>
  <anchor x="599.5757575757576" y="740.0" name="center"/>
  <anchor x="747.4545454545455" y="0.0" name="ogonek"/>
  <anchor x="599.5757575757576" y="1520.0" name="top"/>
  <anchor x="38.60606060606061" y="1480.0" name="topleft"/>
  <anchor x="746.2424242424242" y="1480.0" name="topright"/>
  <outline>
    <contour>
      <point x="599.5757575757576" y="-18.303030303030305" type="curve" smooth="yes"/>
      <point x="908.3030303030303" y="-18.303030303030305"/>
      <point x="1107.8181818181818" y="185.33333333333334"/>
      <point x="1107.8181818181818" y="740.0" type="curve" smooth="yes"/>
      <point x="1107.8181818181818" y="1294.6666666666667"/>
      <point x="908.3030303030303" y="1498.3030303030303"/>
      <point x="599.5757575757576" y="1498.3030303030303" type="curve" smooth="yes"/>
      <point x="290.8484848484849" y="1498.3030303030303"/>
      <point x="91.33333333333333" y="1294.6666666666667"/>
      <point x="91.33333333333333" y="740.0" type="curve" smooth="yes"/>
      <point x="91.33333333333333" y="185.33333333333334"/>
      <point x="290.8484848484849" y="-18.303030303030305"/>
    </contour>
    <contour>
      <point x="599.5757575757576" y="86.78787878787878" type="curve" smooth="yes"/>
      <point x="365.8181818181818" y="86.78787878787878"/>
      <point x="213.63636363636363" y="237.5151515151515"/>
      <point x="213.63636363636363" y="744.6060606060606" type="curve" smooth="yes"/>
      <point x="213.63636363636363" y="1242.4848484848485"/>
      <point x="365.8181818181818" y="1393.2121212121212"/>
      <point x="599.5757575757576" y="1393.2121212121212" type="curve" smooth="yes"/>
      <point x="833.3333333333334" y="1393.2121212121212"/>
      <point x="985.5151515151515" y="1242.4848484848485"/>
      <point x="985.5151515151515" y="735.3939393939394" type="curve" smooth="yes"/>
      <point x="985.5151515151515" y="237.5151515151515"/>
      <point x="833.3333333333334" y="86.78787878787878"/>
    </contour>
    <contour>
      <point x="733.939393939394" y="1679.3333333333333" type="curve" smooth="yes"/>
      <point x="797.0909090909091" y="1679.3333333333333"/>
      <point x="845.2121212121212" y="1703.030303030303"/>
      <point x="878.8484848484849" y="1743.4545454545455" type="curve"/>
      <point x="878.8484848484849" y="1834.909090909091" type="line"/>
      <point x="837.2121212121212" y="1786.6060606060605"/>
      <point x="794.7878787878788" y="1762.3030303030303"/>
      <point x="734.5454545454545" y="1762.3030303030303" type="curve" smooth="yes"/>
      <point x="647.6969696969697" y="1762.3030303030303"/>
      <point x="570.969696969697" y="1840.909090909091"/>
      <point x="465.2121212121212" y="1840.909090909091" type="curve" smooth="yes"/>
      <point x="402.06060606060606" y="1840.909090909091"/>
      <point x="353.93939393939394" y="1816.909090909091"/>
      <point x="320.3030303030303" y="1776.4848484848485" type="curve"/>
      <point x="320.3030303030303" y="1685.030303030303" type="line"/>
      <point x="361.93939393939394" y="1733.3333333333333"/>
      <point x="404.3636363636364" y="1757.6363636363637"/>
      <point x="464.6060606060606" y="1757.6363636363637" type="curve" smooth="yes"/>
      <point x="551.4545454545455" y="1757.6363636363637"/>
      <point x="628.1818181818181" y="1679.3333333333333"/>
    </contour>
  </outline>
</glyph>
<glyph name="multiply" format="2">
  <advance width="957.0909090909091"/>
  <unicode hex="00D7"/>
  <outline>
    <contour>
      <point x="181.75757575757575" y="393.75757575757575" type="line"/>
      <point x="478.54545454545456" y="690.5454545454545" type="line"/>
      <point x="775.3333333333334" y="393.75757575757575" type="line"/>
      <point x="844.7878787878788" y="463.2121212121212" type="line"/>
      <point x="548.0" y="760.0" type="line"/>
      <point x="844.7878787878788" y="1056.7878787878788" type="line"/>
      <point x="775.3333333333334" y="1126.2424242424242" type="line"/>
      <point x="478.54545454545456" y="829.4545454545455" type="line"/>
      <point x="181.75757575757575" y="1126.2424242424242" type="line"/>
      <point x="112.3030303030303" y="1056.7878787878788" type="line"/>
      <point x="409.09090909090907" y="760.0" type="line"/>
      <point x="112.3030303030303" y="463.2121212121212" type="line"/>
    </contour>
  </outline>
</glyph>
<glyph name="Uacute" format="2">
  <advance width="1219.2121212121212"/>
  <unicode hex="00DA"/>
  <anchor x="611.2121212121212" y="1520.0" name="_top"/>
  <anchor x="611.2121212121212" y="0.0" name="bottom"/>
  <anchor x="749.5151515151515" y="0.0" name="ogonek"/>
  <anchor x="611.2121212121212" y="1520.0" name="top"/>
  <anchor x="970.5454545454545" y="1480.0" name="topright"/>
  <outline>
    <contour>
      <point x="611.2121212121212" y="-18.303030303030305" type="curve" smooth="yes"/>
      <point x="935.030303030303" y="-18.303030303030305"/>
      <point x="1074.4242424242425" y="147.8181818181818"/>
      <point x="1074.4242424242425" y="508.969696969697" type="curve" smooth="yes"/>
      <point x="1074.4242424242425" y="1480.0" type="line"/>
      <point x="960.2424242424242" y="1480.0" type="line"/>
      <point x="960.2424242424242" y="493.8181818181818" type="line" smooth="yes"/>
      <point x="960.2424242424242" y="217.27272727272728"/>
      <point x="859.0909090909091" y="87.3939393939394"/>
      <point x="611.2121212121212" y="87.3939393939394" type="curve" smooth="yes"/>
      <point x="363.3333333333333" y="87.3939393939394"/>
      <point x="261.8787878787879" y="217.27272727272728"/>
      <point x="261.8787878787879" y="493.8181818181818" type="curve" smooth="yes"/>
      <point x="261.8787878787879" y="1480.0" type="line"/>
      <point x="144.78787878787878" y="1480.0" type="line"/>
      <point x="144.78787878787878" y="508.969696969697" type="line" smooth="yes"/>
      <point x="144.78787878787878" y="147.8181818181818"/>
      <point x="286.7878787878788" y="-18.303030303030305"/>
    </contour>
    <contour>
      <point x="561.3939393939394" y="1611.4545454545455" type="line"/>
      <point x="661.030303030303" y="1611.4545454545455" type="line"/>
      <point x="816.2424242424242" y="1890.121212121212" type="line"/>
      <point x="694.5454545454545" y="1890.121212121212" type="line"/>
    </contour>
  </outline>
</glyph>
<glyph name="Udieresis" format="2">
  <advance width="1219.2121212121212"/>
  <unicode hex="00DC"/>
  <anchor x="611.2121212121212" y="1520.0" name="_top"/>
  <anchor x="611.2121212121212" y="0.0" name="bottom"/>
  <anchor x="749.5151515151515" y="0.0" name="ogonek"/>
  <anchor x="611.2121212121212" y="1520.0" name="top"/>
  <anchor x="970.5454545454545" y="1480.0" name="topright"/>
  <outline>
    <contour>
      <point x="611.2121212121212" y="-18.303030303030305" type="curve" smooth="yes"/>
      <point x="935.030303030303" y="-18.303030303030305"/>
      <point x="1074.4242424242425" y="147.8181818181818"/>
      <point x="1074.4242424242425" y="508.969696969697" type="curve" smooth="yes"/>
      <point x="1074.4242424242425" y="1480.0" type="line"/>
      <point x="960.2424242424242" y="1480.0" type="line"/>
      <point x="960.2424242424242" y="493.8181818181818" type="line" smooth="yes"/>
      <point x="960.2424242424242" y="217.27272727272728"/>
      <point x="859.0909090909091" y="87.3939393939394"/>
      <point x="611.2121212121212" y="87.3939393939394" type="curve" smooth="yes"/>
      <point x="363.3333333333333" y="87.3939393939394"/>
      <point x="261.8787878787879" y="217.27272727272728"/>
      <point x="261.8787878787879" y="493.8181818181818" type="curve" smooth="yes"/>
      <point x="261.8787878787879" y="1480.0" type="line"/>
      <point x="144.78787878787878" y="1480.0" type="line"/>
      <point x="144.78787878787878" y="508.969696969697" type="line" smooth="yes"/>
      <point x="144.78787878787878" y="147.8181818181818"/>
      <point x="286.7878787878788" y="-18.303030303030305"/>
    </contour>
    <contour>
      <point x="801.8181818181819" y="1671.8181818181818" type="curve" smooth="yes"/>
      <point x="852.3636363636364" y="1671.8181818181818"/>
      <point x="885.939393939394" y="1701.878787878788"/>
      <point x="885.939393939394" y="1751.6969696969697" type="curve" smooth="yes"/>
      <point x="885.939393939394" y="1801.5151515151515"/>
      <point x="852.3636363636364" y="1833.2727272727273"/>
      <point x="801.8181818181819" y="1833.2727272727273" type="curve" smooth="yes"/>
      <point x="751.2727272727273" y="1833.2727272727273"/>
      <point x="717.6969696969697" y="1801.5151515151515"/>
      <point x="717.6969696969697" y="1751.6969696969697" type="curve" smooth="yes"/>
      <point x="717.6969696969697" y="1701.878787878788"/>
      <point x="751.2727272727273" y="1671.8181818181818"/>
    </contour>
    <contour>
      <point x="420.6060606060606" y="1671.8181818181818" type="curve" smooth="yes"/>
      <point x="471.1515151515151" y="1671.8181818181818"/>
      <point x="504.72727272727275" y="1701.878787878788"/>
      <point x="504.72727272727275" y="1751.6969696969697" type="curve" smooth="yes"/>
      <point x="504.72727272727275" y="1801.5151515151515"/>
      <point x="471.1515151515151" y="1833.2727272727273"/>
      <point x="420.6060606060606" y="1833.2727272727273" type="curve" smooth="yes"/>
      <point x="370.06060606060606" y="1833.2727272727273"/>
      <point x="336.4848484848485" y="1801.5151515151515"/>
      <point x="336.4848484848485" y="1751.6969696969697" type="curve" smooth="yes"/>
      <point x="336.4848484848485" y="1701.878787878788"/>
      <point x="370.06060606060606" y="1671.8181818181818"/>
    </contour>
  </outline>
</glyph>
<glyph name="Thorn" format="2">
  <advance width="1088.8484848484848"/>
  <unicode hex="00DE"/>
  <outline>
    <contour>
      <point x="152.4848484848485" y="0.0" type="line"/>
      <point x="269.57575757575756" y="0.0" type="line"/>
      <point x="269.57575757575756" y="269.3939393939394" type="line"/>
      <point x="323.93939393939394" y="264.3030303030303"/>
      <point x="375.0909090909091" y="262.3030303030303"/>
      <point x="433.75757575757575" y="262.3030303030303" type="curve" smooth="yes"/>
      <point x="815.4545454545455" y="262.3030303030303"/>
      <point x="993.8181818181819" y="433.030303030303"/>
      <point x="993.8181818181819" y="758.3030303030303" type="curve" smooth="yes"/>
      <point x="993.8181818181819" y="1101.5757575757575"/>
      <point x="815.1515151515151" y="1258.0"/>
      <point x="462.72727272727275" y="1258.0" type="curve" smooth="yes"/>
      <point x="390.72727272727275" y="1258.0"/>
      <point x="316.1212121212121" y="1250.909090909091"/>
      <point x="269.57575757575756" y="1244.121212121212" type="curve"/>
      <point x="269.57575757575756" y="1480.0" type="line"/>
      <point x="152.4848484848485" y="1480.0" type="line"/>
    </contour>
    <contour>
      <point x="438.8484848484849" y="365.8787878787879" type="curve" smooth="yes"/>
      <point x="380.1818181818182" y="365.8787878787879"/>
      <point x="325.030303030303" y="367.8787878787879"/>
      <point x="269.57575757575756" y="375.27272727272725" type="curve"/>
      <point x="269.57575757575756" y="1139.6363636363637" type="line"/>
      <point x="332.90909090909093" y="1149.030303030303"/>
      <point x="397.3333333333333" y="1154.4242424242425"/>
      <point x="467.8787878787879" y="1154.4242424242425" type="curve" smooth="yes"/>
      <point x="745.4545454545455" y="1154.4242424242425"/>
      <point x="875.1515151515151" y="1034.909090909091"/>
      <point x="875.1515151515151" y="754.3030303030303" type="curve" smooth="yes"/>
      <point x="875.1515151515151" y="488.969696969697"/>
      <point x="736.969696969697" y="365.8787878787879"/>
    </contour>
  </outline>
</glyph>
<glyph name="germandbls" format="2">
  <advance width="1174.060606060606"/>
  <unicode hex="00DF"/>
  <outline>
    <contour>
      <point x="759.8181818181819" y="-18.606060606060606" type="curve" smooth="yes"/>
      <point x="984.5454545454545" y="-18.606060606060606"/>
      <point x="1117.030303030303" y="96.24242424242425"/>
      <point x="1117.030303030303" y="288.90909090909093" type="curve" smooth="yes"/>
      <point x="1117.030303030303" y="436.7878787878788"/>
      <point x="1056.969696969697" y="533.5757575757576"/>
      <point x="870.1212121212121" y="585.1515151515151" type="curve" smooth="yes"/>
      <point x="767.8181818181819" y="612.969696969697" type="line" smooth="yes"/>
      <point x="661.1515151515151" y="643.030303030303"/>
      <point x="611.2121212121212" y="698.8484848484849"/>
      <point x="611.2121212121212" y="800.9090909090909" type="curve" smooth="yes"/>
      <point x="611.2121212121212" y="909.2727272727273"/>
      <point x="688.7272727272727" y="997.5757575757576"/>
      <point x="866.969696969697" y="997.5757575757576" type="curve" smooth="yes"/>
      <point x="922.5454545454545" y="997.5757575757576"/>
      <point x="955.2727272727273" y="992.1818181818181"/>
      <point x="996.6666666666666" y="982.7878787878788" type="curve"/>
      <point x="1007.3939393939394" y="1027.5757575757575"/>
      <point x="1022.0" y="1112.909090909091"/>
      <point x="1022.0" y="1194.8484848484848" type="curve" smooth="yes"/>
      <point x="1022.0" y="1512.6666666666667"/>
      <point x="852.3030303030303" y="1636.0"/>
      <point x="625.2727272727273" y="1636.0" type="curve" smooth="yes"/>
      <point x="363.3333333333333" y="1636.0"/>
      <point x="198.9090909090909" y="1481.4545454545455"/>
      <point x="198.9090909090909" y="1150.7878787878788" type="curve" smooth="yes"/>
      <point x="198.9090909090909" y="0.0" type="line"/>
      <point x="315.0909090909091" y="0.0" type="line"/>
      <point x="315.0909090909091" y="1145.3939393939395" type="line" smooth="yes"/>
      <point x="315.0909090909091" y="1435.5757575757575"/>
      <point x="435.8181818181818" y="1538.1818181818182"/>
      <point x="630.9090909090909" y="1538.1818181818182" type="curve" smooth="yes"/>
      <point x="796.5454545454545" y="1538.1818181818182"/>
      <point x="926.1818181818181" y="1454.121212121212"/>
      <point x="926.1818181818181" y="1193.7575757575758" type="curve" smooth="yes"/>
      <point x="926.1818181818181" y="1137.3333333333333"/>
      <point x="919.5757575757576" y="1086.909090909091"/>
      <point x="910.3636363636364" y="1038.1818181818182" type="curve"/>
      <point x="969.8787878787879" y="1086.4242424242425" type="line"/>
      <point x="933.8787878787879" y="1093.8181818181818"/>
      <point x="888.4242424242424" y="1095.8181818181818"/>
      <point x="860.9090909090909" y="1095.8181818181818" type="curve" smooth="yes"/>
      <point x="626.8484848484849" y="1095.8181818181818"/>
      <point x="499.09090909090907" y="970.6060606060606"/>
      <point x="499.09090909090907" y="797.8181818181819" type="curve" smooth="yes"/>
      <point x="499.09090909090907" y="651.939393939394"/>
      <point x="564.8484848484849" y="557.030303030303"/>
      <point x="741.2121212121212" y="509.1515151515151" type="curve" smooth="yes"/>
      <point x="843.5151515151515" y="481.3333333333333" type="line" smooth="yes"/>
      <point x="948.4848484848485" y="451.27272727272725"/>
      <point x="1004.9090909090909" y="400.24242424242425"/>
      <point x="1004.9090909090909" y="284.3030303030303" type="curve" smooth="yes"/>
      <point x="1004.9090909090909" y="154.96969696969697"/>
      <point x="917.8181818181819" y="83.15151515151516"/>
      <point x="755.8181818181819" y="83.15151515151516" type="curve" smooth="yes"/>
      <point x="681.2727272727273" y="83.15151515151516"/>
      <point x="607.8181818181819" y="93.75757575757575"/>
      <point x="520.1212121212121" y="121.15151515151516" type="curve"/>
      <point x="520.1212121212121" y="17.696969696969695" type="line"/>
      <point x="594.060606060606" y="-6.606060606060606"/>
      <point x="674.0" y="-18.606060606060606"/>
    </contour>
    <contour>
      <point x="8.0" y="981.5757575757576" type="line"/>
      <point x="262.6666666666667" y="981.5757575757576" type="line"/>
      <point x="262.6666666666667" y="1083.030303030303" type="line"/>
      <point x="8.0" y="1083.030303030303" type="line"/>
    </contour>
  </outline>
</glyph>
<glyph name="ae" format="2">
  <advance width="1412.5454545454545"/>
  <unicode hex="00E6"/>
  <anchor x="694.3030303030303" y="0.0" name="bottom"/>
  <anchor x="694.3030303030303" y="1200.0" name="top"/>
  <outline>
    <contour>
      <point x="1059.6969696969697" y="-18.606060606060606" type="curve" smooth="yes"/>
      <point x="1130.8484848484848" y="-18.606060606060606"/>
      <point x="1205.2727272727273" y="-8.303030303030303"/>
      <point x="1294.6060606060605" y="20.78787878787879" type="curve"/>
      <point x="1294.6060606060605" y="124.54545454545455" type="line"/>
      <point x="1202.121212121212" y="96.06060606060606"/>
      <point x="1131.6969696969697" y="83.75757575757575"/>
      <point x="1070.060606060606" y="83.75757575757575" type="curve" smooth="yes"/>
      <point x="856.1212121212121" y="83.75757575757575"/>
      <point x="750.7272727272727" y="188.84848484848484"/>
      <point x="750.7272727272727" y="524.6060606060606" type="curve" smooth="yes"/>
      <point x="750.7272727272727" y="566.2424242424242" type="line" smooth="yes"/>
      <point x="750.7272727272727" y="913.1515151515151"/>
      <point x="853.0909090909091" y="1007.4545454545455"/>
      <point x="993.1515151515151" y="1007.4545454545455" type="curve" smooth="yes"/>
      <point x="1132.909090909091" y="1007.4545454545455"/>
      <point x="1228.1818181818182" y="918.2424242424242"/>
      <point x="1228.1818181818182" y="556.060606060606" type="curve"/>
      <point x="1249.939393939394" y="589.030303030303" type="line"/>
      <point x="723.030303030303" y="589.030303030303" type="line"/>
      <point x="723.030303030303" y="498.4848484848485" type="line"/>
      <point x="1343.5151515151515" y="498.4848484848485" type="line"/>
      <point x="1343.5151515151515" y="540.6060606060606" type="line" smooth="yes"/>
      <point x="1343.5151515151515" y="956.2424242424242"/>
      <point x="1206.6666666666667" y="1101.030303030303"/>
      <point x="996.4848484848485" y="1101.030303030303" type="curve" smooth="yes"/>
      <point x="789.2727272727273" y="1101.030303030303"/>
      <point x="653.8787878787879" y="951.2121212121212"/>
      <point x="653.8787878787879" y="556.6666666666666" type="curve"/>
      <point x="637.5757575757576" y="542.4242424242424" type="line"/>
      <point x="637.5757575757576" y="129.63636363636363"/>
      <point x="779.0909090909091" y="-18.606060606060606"/>
    </contour>
    <contour>
      <point x="370.42424242424244" y="-16.90909090909091" type="curve" smooth="yes"/>
      <point x="501.5151515151515" y="-16.90909090909091"/>
      <point x="626.7878787878788" y="34.36363636363636"/>
      <point x="717.8787878787879" y="210.78787878787878" type="curve"/>
      <point x="672.0" y="292.06060606060606" type="line"/>
      <point x="604.5454545454545" y="131.75757575757575"/>
      <point x="496.969696969697" y="82.12121212121212"/>
      <point x="391.8787878787879" y="82.12121212121212" type="curve" smooth="yes"/>
      <point x="268.3030303030303" y="82.12121212121212"/>
      <point x="193.57575757575756" y="146.06060606060606"/>
      <point x="193.57575757575756" y="281.5151515151515" type="curve" smooth="yes"/>
      <point x="193.57575757575756" y="409.6969696969697"/>
      <point x="261.8181818181818" y="500.6060606060606"/>
      <point x="451.5151515151515" y="500.6060606060606" type="curve" smooth="yes"/>
      <point x="677.8181818181819" y="500.6060606060606" type="line"/>
      <point x="677.8181818181819" y="589.030303030303" type="line"/>
      <point x="445.93939393939394" y="589.030303030303" type="line" smooth="yes"/>
      <point x="176.66666666666666" y="589.030303030303"/>
      <point x="74.12121212121212" y="456.90909090909093"/>
      <point x="74.12121212121212" y="269.57575757575756" type="curve" smooth="yes"/>
      <point x="74.12121212121212" y="83.63636363636364"/>
      <point x="195.33333333333334" y="-16.90909090909091"/>
    </contour>
    <contour>
      <point x="637.5757575757576" y="542.4242424242424" type="line"/>
      <point x="734.7272727272727" y="533.939393939394" type="line"/>
      <point x="734.7272727272727" y="746.3636363636364" type="line" smooth="yes"/>
      <point x="734.7272727272727" y="1004.1212121212121"/>
      <point x="621.030303030303" y="1099.3333333333333"/>
      <point x="396.6666666666667" y="1099.3333333333333" type="curve" smooth="yes"/>
      <point x="313.93939393939394" y="1099.3333333333333"/>
      <point x="212.24242424242425" y="1084.2424242424242"/>
      <point x="133.27272727272728" y="1056.2424242424242" type="curve"/>
      <point x="133.27272727272728" y="952.4848484848485" type="line"/>
      <point x="222.36363636363637" y="983.2727272727273"/>
      <point x="314.969696969697" y="996.969696969697"/>
      <point x="385.27272727272725" y="996.969696969697" type="curve" smooth="yes"/>
      <point x="549.030303030303" y="996.969696969697"/>
      <point x="637.5757575757576" y="942.0"/>
      <point x="637.5757575757576" y="746.2424242424242" type="curve" smooth="yes"/>
    </contour>
  </outline>
</glyph>
